<mxfile host="app.diagrams.net" modified="2024-03-10T05:52:50.061Z" agent="Mozilla/5.0 (Windows NT 10.0; Win64; x64) AppleWebKit/537.36 (KHTML, like Gecko) Chrome/121.0.0.0 Safari/537.36 Edg/121.0.0.0" etag="Uh2l5lhBpWi0fLF-_ZXg" version="24.0.1" type="github">
  <diagram name="第 1 页" id="WRjsuyDADFx8xglvIogP">
    <mxGraphModel dx="4534" dy="1808" grid="1" gridSize="10" guides="1" tooltips="1" connect="1" arrows="1" fold="1" page="1" pageScale="1" pageWidth="827" pageHeight="1169" math="1" shadow="0">
      <root>
        <mxCell id="0" />
        <mxCell id="1" parent="0" />
        <mxCell id="zWZj8fFm0EnB-VlaON-8-1" value="" style="shape=image;verticalLabelPosition=bottom;labelBackgroundColor=default;verticalAlign=top;aspect=fixed;imageAspect=0;image=data:image/png,iVBORw0KGgoAAAANSUhEUgAABQUAAAIuCAYAAAAGzG57AAAgAElEQVR4AezdB5QUVfrHfc++6/m/G0y77rq7CojuqpgILlkkiK4JERAxIElFFBXFgAlBRIQ1K0GCIKgYCEoSRAREBBOiCCJiQMWEYoDp7mp31+d9n9tzi+qq6p7umZ6Z7umv5/Sp7tsVb32qWn5z697dhP+oAWqAGqAGqAFqgBqgBqgBaoAaoAaoAWqAGqAGqAFqoKhqYLeiOloOlhqgBqgBaoAaoAaoAWqAGqAGqAFqgBqgBqgBaoAaoAaEUBAE1AA1QA1QA9QANUANUAPUADVADVAD1AA1QA1QA9RAkdUAoWCRnXAOlxqgBqgBaoAaoAaoAWqAGqAGqAFqgBqgBqgBaoAaIBTEADVADVAD1AA1QA1QA9QANUANUAPUADVADVAD1AA1UGQ1UOFQsORnEV7UAQYwgAEMYAADGMAABjCAAQxgAAMYwAAGqt9AptkmoSChJqEuBjCAAQxgAAMYwAAGMIABDGAAAxjAQA0xQChYQ04kCXv1J+ycA84BBjCAAQxgAAMYwAAGMIABDGAAA4VigFCQUJCEHwMYwAAGMIABDGAAAxjAAAYwgAEMYKDIDBAKFtkJL5S0mv3kLysYwAAGMIABDGAAAxjAAAYwgAEMYKDyDBAKEgrylwAMYAADGMAABjCAAQxgAAMYwAAGMICBIjNAKFhkJ5yEvfISduqWusUABjCAAQxgAAMYwAAGMIABDGCgUAwQChIK8pcADGAAAxjAAAYwgAEMYAADGMAABjCAgSIzQChYZCe8UNJq9pO/rGAAAxjAAAYwgAEMYAADGMAABjCAgcozQChIKMhfAjCAAQxgAAMYwAAGMIABDGAAAxjAAAaKzAChYJGdcBL2ykvYqVvqFgMYwAAGMIABDGAAAxjAAAYwgIFCMUAoSCjIXwIwgAEMYAADGMAABjCAAQxgAAMYwAAGiswAoWANOuE/RP4j3+2IJ13ER9dvILvttpvUrnOg+2p1XBvp3qOn3DB4iIy8617ZsPkT2brtx6TlCiXVZj/5CwwGMIABDGAAAxjAAAYwgAEMYAADGMjeAKFgDQgFv/h2h2z5arusWb855WvJilUydfrTMuPZ5+Sa62+SY1u3MWGhBoY2NNQyDQi5kLK/kKgz6gwDGMAABjCAAQxgAAMYwAAGMICBQjJAKFigoaC2Cvzq+xJ576OtbhA47/llMn3mXBk/5VG56/5x0vfSy2XgoBvd772h4dr3PpKNH2+Vl1avkVH33C8Dr7vBtB7ca6+9TYtCbUW48IVltCAsUB+FdBNiX/nRxAAGMIABDGAAAxjAAAYwgAEMVL0BQsECCn20Fd8z8xfLgKuvk/4DrpJGjZsmtfazrf6807/+bf/QUNAbEGo4qJ8nTHlUatWuIzcNHmqCQduCcOGSZbQeLCAn3Eir/kZKnVPnGMAABjCAAQxgAAMYwAAGMFBoBggF8zTs0VZ6D02aYlrvaR+AB9SqFQgAf7/HHqKhn74aNW5iXvazTm04qO8PObSe+b5Dx05uC8Ihw0ealoXawnD5qjWi03O793SXs6GgTlsd19rsD30PcpMrtJsc+4tZDGAAAxjAAAYwgAEMYAADGMBA0AChYJ6FgtpKT0NAG+j5p/pI8NDhI8ts/WdbAmrQpy0AdRldtqzWhWHfa1+DOlBJIhxsQ6vBPDPDjS14Y6NOqBMMYAADGMAABjCAAQxgAAMYwEB6A4SCeRLwaMtAGwb+s2mzpJaB2rpPW/VpwGfDvopObctA7XtQ1619D2poqNvSl7YY1L4Jrx50o2mJqH0NajiooxlrQKitGLm40l9c1A/1gwEMYAADGMAABjCAAQxgAAMYwEC+GiAUzINQ0IaBOtX+Am3rQH0kuKLhX66W18BQ90sDQTtysbZqzFfY7Bc3XQxgAAMYwAAGMIABDGAAAxjAAAYwkNoAoWA1hoIbPthiWgdq0KYBW4tjW5ngTVvqaSu9XAV6uVqP7pMGlbq/2mJQQ0IdpZgLLPUFRt1QNxjAAAYwgAEMYAADGMAABjCAAQzkowFCwWoMBTVc02Dt2FatzTSfWgamCxJtq0HbYlAffc5H3OwTN10MYAADGMAABjCAAQxgAAMYwAAGMBBugFCwGkJB7Y9Pw8CjSvvn09GBtV8/7ecvXRiXT99pX4N6DPo6un59QsFqcMRNLfymRr1QLxjAAAYwgAEMYAADGMAABjCAgbINEArmIMzZ9mMsq1DMthC0oVo+PiqcSQCpoxrvf8ABJhikf8GyLzZuSNQRBjCAAQxgAAMYwAAGMIABDGAAA/ligFAwy1Bw1RtrTT963Xv0FH1pP4D2vfavN/Kue2Xl62/Jhs2fBIJCXdYbCOpjuJmEb/k8zxOz5sgee+5pgsEnZj4TOOZ8gc5+cNPFAAYwgAEMYAADGMAABjCAAQxgAAO7DBAKZhEKbvlquzRr3tJ9bNa29Es11QBw4ZJd/e3VtEDQhpW3jhhl6kRHT+bi2nVxURfUBQYwgAEMYAADGMAABjCAAQxgAAP5aoBQsIxQcNuPUZk19zkZdPMQM/Ku9v+nIeDv99jDfG7X/gQZcPV1cs31N4m2/Du3e0/zvc6n8+i8e+21t2khqN/po8LTZ84t+BaCNhC0036XDTDHyqAj3Ozy9WbHfmETAxjAAAYwgAEMYAADGMAABjCwywChYJpQUMM+GwLa1oA6QnBZj/1652nUuKkJD214VpOnetxaTwSDuy4wbjbUBQYwgAEMYAADGMAABjCAAQxgAAP5aIBQ0BcKbvhgi+kzUB/11ZDLBl0aDmoYOO/5ZWW28tOWgJnMV9MCwrvuH2dCwe7n9+QxYp+rfLz42Sd+lDCAAQxgAAMYwAAGMIABDGAAA8VrgFDQF95ov3ja2q1Dx84mBLQtBAt1hOCqDh5tfTEacfHeVPhB4dxjAAMYwAAGMIABDGAAAxjAAAby3wChoCcU1FGE99//ANPvn7YK1ICrrEeFqzp0y/ftDR0+0tSb1p22uuQmkP83Ac4R5wgDGMAABjCAAQxgAAMYwAAGMFB8BggFS0PBhyZNMWGWHTBDQ60JUx4t81HhfA/pqmP/bGvBGwYPIRT0hM7cYIvvBss555xjAAMYwAAGMIABDGAAAxjAQL4aIBQsDW1aHddaunTtJoccepjpR7AY+wTMVYDYpl17E7Dqo9j5Cp/94qaMAQxgAAMYwAAGMIABDGAAAxjAQDEbIBT8WWThkmXuI686sEiuwrFiXY999FpbDBbzxcWx8+OCAQxgAAMYwAAGMIABDGAAAxjAQL4aIBT8WaR7j14mFNQRhoutheCqNevltbc35jQI1UFZ7CPEWrf5ip/94saMAQxgAAMYwAAGMIABDGAAAxjAQLEaKPpQcMPmT9wAqzx9CE57cracd36vwOvcHr3liquvkxF33ivPLHgh49DtvjHjA+uaNe/5lMuPnfSIO//5PfuknM+2Wly+eo1cftU1cvwJ/5I//OGP7rHvseee0qFjJ5k6fWaZ67DrSje1oSCtBbm5FuvNlePGPgYwgAEMYAADGMAABjCAAQzks4GiDwVXvbHWBGMaiKULuVJ9d9vIu9xgzRuE+d//7W/7y0mnni5jJ06VV9e+l3JbF/brH1hfjz4XpZz/ioHXJs2faj8XLl0p5/e+QP6831+S5vfvp34+qn4DGT7q7pTbTLUNb3mHjp3d7Wgd5/NFwL5xk8YABjCAAQxgAAMYwAAGMIABDGCg2AwUfSioI+RqEDZ95txyhWCZhoLe8O3wI46UGXMWhm4vLBTce599ZMVra0PnzyQUXLryDTnksHpuSOfdl3Tvj27YSJ59bknodr0BYNj7ocNHuttb+MIyQkFGIcYABjCAAQxgAAMYwAAGMIABDGAAA3lkoOhDwdp1DjThVViwlUmZPxTc909/ksMOP0J++7vfye677+4GY2Hh2/zFLwUCt7BQUJe99IqrAvPq/mUSCp50aofAftSqXUduuW2ETJz6uDww7mE5rnXbwDy63bB9zKRedB57zA9NmsJFn0cXfbH95YPj5a99GMAABjCAAQxgAAMYwAAGMICBoIGiDgW9ow5nGnT55/OHgv0HDHTDuzfWbZK5i5bJzbfeLkcd3cANyWxYdmqHju68dr2pQsHf/OY3suTl1wLzlxUKvrT6rUA42e2882XFa28nrevNdz+Qx2fMkdZt25n9POTQwyo86MohhyZaJ2prTC6+4MVHnVAnGMAABjCAAQxgAAMYwAAGMIABDFSXgaIOBY9t3cYN6mwol+00XSjoX1dYa7zFy1clhXOpQkENEnVb/nWWFQpOeexp9xh1HX/b/4DAOrzr1CCz/4CrZe6ipWnn8y6T6n2jxk3MtgkFucFV1w2O7WIPAxjAAAYwgAEMYAADGMAABjAQbqBoQ0E7wMhee+1tgqtUwVZZ5dmEgvMWL5c//HHXiL8a0ukowNpKz27HGwr++te/lj/9+c9uqHfCv05257PzlxUKPjR5mru8bu+oo+sH1mHXletpm3btCQV5bJhWohjAAAYwgAEMYAADGMAABjCAAQzkoYGiDAW9LQQ1KNPXvOeXlSssyyYU1NBN+++z27RTHQjEBnLeUFAfGb51xL/d+bWPwtVvbXDn1WXKCgWfnDXPXV63t8eee6Yd/djuRy6mOqKzbpOWguGJPH+poF4wgAEMYAADGMAABjCAAQxgAAMYqC4DRRkKal+CdtThI4862gRX46c8mhS2ZRqKZRsK6uO5+x9QKymom/L4DHfb/lDw1bXvyV//tr87f/defdx5MwkFNXC04aOdNmh4jDw1e37SejI93mzm63vp5WbbhILc4KrrBsd2sYcBDGAAAxjAAAYwgAEMYAADGAg3UHSh4PznXzRBVbPmLc3UtmYbMnxkuUKybENBDdX0kWEb0Ol0qGfb/lBQ5z/r7POS5l+yYteAI2W1FNTle17QN2l53aa2OtRlV61ZX67jziQctKHgNdffRDPhPGwmzE0x/KZIvVAvGMAABjCAAQxgAAMYwAAGMFAMBmpkKPhD5D+y7ceobP7sa1m/+VMTemnopwNf2FZ3Orqu/axl02fOLVc4Vp5Q8LyevZNCuoHX3eBuOywUHDPhkaT5Bw8b4c6fSSiowd8hhyVGAvaGkfpeWy1q68MnK6HloA0Fb719JKEgoSAGMIABDGAAAxjAAAYwgAEMYAADGMgjAzUuFNzy1XY3MNPWbDaY8odh9rMGghPK+eiwrr88oaB/n/SzbXkXFgq+/s778tvf/c4NBnUADzt/JqGgzjt/8UtJ67DH751qi8Jcthy0x3nPA2O56PPooi+Gv3ZwjPxVDwMYwAAGMIABDGAAAxjAAAYwkN5AjQkFtWXgoqUrRfsG1EeCtRXg7/fYQw45tJ75rAGVthbU78s7qIgN4rzT8oSC/QcMdAM+DeX69L3EDfnCQkHd3qh7HnCX0YBw0bJXzDKZhoK6jsUvrZbze18oOoCJNwz0vq970MFyx933i/Z96D3O8rwnFEx/8XFzon4wgAEMYAADGMAABjCAAQxgAAMYqC4DNSIUfO+jraEtAss7eEg2AVh5QsFeFyb38XfRJZe5AVyqUFD3qVbtOm6Yd+ZZ52QdCtrjWvnGOmnX/kR3Xd5Q0L6/7sZb3H2yy2U7tf01zpr7HC0FaSmIAQxgAAMYwAAGMIABDGAAAxjAAAbyyEBBh4Lad+CjT8709BNYz4SD5e0fMNvQS+cvTyh4eqczkwK5AVcPcgO4dKHgeef3SlpuwQsvmcFCbJCn00yPQVsCaj+CvS/qJwf4RkPW9eyxx54yc+6ijNcXtl1tmanrWv3mOi76PLroq+svEGyXv35hAAMYwAAGMIABDGAAAxjAAAbyx0BBh4J2BGF9VLgi/QKGBVqZlpUnFGx5XJukcO8Wz8Ah6ULBiVMfT1pu0E1Dyh0K+o/vgosvTVq3hnn77fcX0f4M/fNm81nX88V3OwgFCQUxgAEMYAADGMAABjCAAQxgAAMYwEAeGSi4UHDD5k+k/+UDTIClg4RUxSPC6UKwbEPB5avXyJ/+9OekAO7haU+6wVu6UHD1WxtE+/zToE1fLY49LmehoLYc1FGN7brtdN7i5e6+pauHVN9pv4KEgvnzVwD+IsO5wAAGMIABDGAAAxjAAAYwgAEMYEANZPrfbpnOmGq+XIBb+MKypNCqugNBDcKyDQXP6Nw16Rg0fHtx5etu8JYuFNTtjZ30SNLy5/bonfQ5VTiXafnhRxyZtD5vYJnpOvzz3T7qbpk6/WnRwWBy4YB1cPPCAAYwgAEMYAADGMAABjCAAQxgAAMVM5Aqw/OXV3soqC0Ea9c50ARW+dBC0AZf2YSCE6YkP/6rgeBJp50ub777QcahoM578N//4QZ3u+++u/te12f3q7zTI486Oml9GkKWd112uaeeWWBadB5Qq5Z079FTbhg8RPR8cvFW7OKl/qg/DGAAAxjAAAYwgAEMYAADGMAABsprwB/+pfpcraGgBkj2cVad6gAWNnCq7mmmoeB9Y8bLb37zm6Tj0GNZ8erapGMpq6WgHu/5vS8MrMfWj78+lr7yhryxLrN+AZetWhPYx0efmpW0f/71Z/JZH5keOnyk/O1v+yftt4aD5YXLctz0MIABDGAAAxjAAAYwgAEMYAADGMBA+Q2kCgH95dUaCmp4pKHXnnvuKR06dpLlq9ZUOKjKJMzKZB5/KHjW2efJ9BlzRB+71e8uuqS/tGnXPikMswFe914XBI4jk1DwkekzQ9en6/Xvc5++l5igr1Wbdqb/wanTZ8ri5avltbc3uvOuWrNe7rxvtBxQq3bSerUV4kur33Ln868728963jTQ9daHtv4kHCz/BczNj7rDAAYwgAEMYAADGMAABjCAAQxgoDwG/OFfqs/VGgp6HxvONoiq7Pn9oaAN/Mqa6si+L7/+diBwyyQU1EeIDzr470kBnt2e/3i7dD07dD47/x577pny+ysGXhvYP//6K/JZR422+6FTHinmJlaemxjL4AYDGMAABjCAAQxgAAMYwAAGMJC9gVQhoL+82kJB20pQQyMdybYiIVRlLFueULDrOefJyjfWhR5LJqGgHsekadOTAjUbrvmP0dsqz86TybR1m3by+juZPXbs32Y2n3WwGO0jUvdJw9+HJk3hkeI8Gp6cm2r2N1XqjDrDAAYwgAEMYAADGMAABjCAgUIw4A//Un2ullDQ35fgvOeXhQZp2YRQuZ43m1Dwn02by+Llq9IeQ6ahoB6Hf6RgDdb8x3duj16h4WG6YPC8nr1FHyn2r6uyPut59e4PwSA3z0K4ebKPOMUABjCAAQxgAAMYwAAGMICBQjaQKgT0l1dLKPjcC7vConxsJagh2ZOz55sWjLp//teV1wySW4aNkNETJsuiZa8kjTKcKmB7aPI0dz2XXnFV2mDu3tEPufPqti+76prQ+XWgj9HjHxYNHM/u3kNOO6Oz6devabMW0vK4NtL+xJPk3O49ZdBNQ2T2/MWh60i1v7kq13085bTT3XBQRyku5AuLfeeHAQMYwAAGMIABDGAAAxjAAAYwgIF8NuAP/1J9rpZQcNzEySYk0sdLcxU+sZ7NeV2XEzyPE9NikJtnPt882Td8YgADGMAABjCAAQxgAAMYwEAhG0gVAvrLqyUUvKT/FSYU1FZshHn5Hebl8vxoP4MdOnaWvfbaWxa+sIwWg/QxiAEMYAADGMAABjCAAQxgAAMYwAAGcmzAH/6l+lwtoWCnLl1NKDhk+EhCwfXFEwpqwKgtBjt07GTOP8Egf3kp5L+8sO/4xQAGMIABDGAAAxjAAAYwgIF8NJAqBPSXV3ko+EPkP6bfOx2AIh8HGMllyzjWFR546gjLjRo3ke7n079gPt482Cd+1DCAAQxgAAMYwAAGMIABDGAAA4VrwB/+pfpc5aHgxo+3mkAobERdQrTwEK2m1YsNg9XAwiU8RsyNtnBvtJw7zh0GMIABDGAAAxjAAAYwgAEM5JuBVCGgv7xKQ8GfYv8zjwvrACPat1xNC7s4nuxCTX2MuNVxbeg7IMd9B+TbzYj94QcSAxjAAAYwgAEMYAADGMAABjBQdQb84V+qz1UaCuqjwxqcaSiofcsRomUXotW0+tKBR0xrQQYdIRglGMUABjCAAQxgAAMYwAAGMIABDGAgJwZShYD+8ioNBb/6voRQsMgGFkkXZOpjxBoK9r98QE7Q81eHqvurA3VNXWMAAxjAAAYwgAEMYAADGMAABvLTgD/8S/W5SkPBL77bYUJBDYJoKVjcrQRtWNj30st5hJi/hBAKYwADGMAABjCAAQxgAAMYwAAGMJAjA6lCQH85oSAt96r1Me6hw0fKnnvtxYWfowufv9Lk519pOC+cFwxgAAMYwAAGMIABDGAAAxioKgP+8C/VZ0JBQsFqDQW1pSCjEHNjrKobI9vBGgYwgAEMYAADGMAABjCAAQzUdAOpQkB/eZWGgt/tiLt9CmoYZB8hZVq8jxLrY+QaCl5z/U20FqS1IAYwgAEMYAADGMAABjCAAQxgAAMYqKABf/iX6nOVhoKaxGoAqKMPEwoWbhC4es16mbtoaU5CXRsKDrj6Oi76Cl70Nf0vHRwff83DAAYwgAEMYAADGMAABjCAAQyUbSBVCOgvr/JQcMtX26VR4yYmGKSFYGEGgyPvvl+OOeafMu2JWRUOBrVPQW0p2LRFS0JBQkEMYAADGMAABjCAAQxgAAMYwAAGMFBBA/7wL9XnKg8FNdG1/cgRChZmKPj88lXS9ayzpd9lV5hQsKItBwkFy075+UsIdYQBDGAAAxjAAAYwgAEMYAADGMBAJgZShYD+8moJBSc+kuhHbvyURyvc0oxgseqDxdfefk/uGzNe2rRpJ1deM0gOOeQQOfLIo2TwrcPLdT4JBbmpZXJTYx6cYAADGMAABjCAAQxgAAMYwAAGyjbgD/9Sfa6WUHDOc4vNI6OF3K+g9oWnfSPqtBiDydffeV+6nXu+1K1bV2rXrm1e9eodLjcNGZZ1fWg93jR4KM2DK9g8mBtj2TdG6og6wgAGMIABDGAAAxjAAAYwgIGabiBVCOgvr5ZQUCv/gFq1CrpfwXnPL5Nzu/c0x/D7PfaQDh07ycBBN4qWlxUSLlr2igy7405Z+ca6pHlXvfmuPPzoUzL09lEy4s575dnnlpjvV77xjoydODX0NWfhi0nrsNt+de17oi0xbxt5p0yc+ri89Ora0Pns/AtffFnuuOs++fe9D8qsec/Lm+9+kHZ+Xe7mW4fLwQf/3Q0FNRzUYPDKa66TZaveLHN5XYcdaGThkmWEgoSCGMAABjCAAQxgAAMYwAAGMIABDGCgggb84V+qz9UWCmrLMH1stJBbC9pATYOtRo2bmuOxx5SuBeGV11xv5n1uyctJwdnZ3Xu669D1/OY3v5Gnn31OZsxZmFSu39nXhf36J63D7lP3Xn3ceXTedsefEDqfzq/h5F/+8tek+e8dPSHl/HYb7dqfKIcedlhSKKjB4IEHHiidunTNKBi09VbTU3qOj79EYQADGMAABjCAAQxgAAMYwAAGMFAVBlKFgP7yagsFtRJq1znQBFFDho9MG0CtWvOuLF+9xm29tmrN+qRWdubz6++YeXReG1rpMt7WeJnMd9f94+SWYSNk8LARovuVzatDx85J4aCOsqyhp209eNvIu+TkDh1lzz33MsftDQUXL18lu+++uwy6eYgsfHGlTJo2Xf7+j0NMWLfk5ddk4tQnkl6nduxkQsOpISMAz120VH7729/Kxf2vkAUvvCQTpjwuf/zjvqJhpK0bO9XHgOs3aCR1DzpYnpg1T3TZNu3aS50D67r1bee10wsuvlSat2xljuGYfzaRY/7Z2A0G//73v8s//vEPEwxqMJmuxaC2ZNTAstVxrfkrQAX/ClAVNxW2wY8XBjCAAQxgAAMYwAAGMIABDGAg/w34w79Un6s1FLxh8BATCmmfcjZwCpv2vKCvme/5ZavMfOf17CNNm7dwlzn+hH9Ji1atzTxdup5tyle89rb5nM189lFW2wovV1N9tFiP65rrb5KTTu1gwj5dtzcUvOW2EXJg3YPcY9L57XE/syDxGLGtm9VvbZB9//QnmTT1iaT57fcDr7vBBK72s05POf0MUx+vvb0xaZlFS18x5Rr02flffv0dU6aBoi3zTrt07WaOQ/ehcZNmcmyr40wo2OiYY6RZ8xZyeqfO5rO2GDzhxH9JqkecNTTVenho0hRCQUJBDGAAAxjAAAYwgAEMYAADGMAABjCQAwOpQkB/ebWGghs+2CKtjmtjgiENBqfPnBsaQt3z4Dgzz+gJk833zZq3NK3ttJWb9pWnLewuufxK6dilqxzdoKGZZ/L/3zefBk7aKi+b+Z6cPV9+/etfS48+F5oWftrKL5OXBop9L73M7WNQj0fDQG0NZ1sK2mCt/4CBZt+8oeDMuYtk6vSZ7vGvfmu9tDz2OPnd734vGnDaZVe8tlYaNjrGtOazZf6pPtbbuu3x7jL6/QUXX2K2ufil1Unl2tJQ6+nO+0Ynlev+T3tydlKZfzstj2sjTZo2l+Pbn2BCQG0h2LLlsaKhpLa2POLII6VOnTrS8YzOScHg8lVrTN3odrW16NZtP3LR5+Ci5681+f/XGs4R5wgDGMAABjCAAQxgAAMYwAAGKtuAP/xL9blaQ0FbCRoO6UtbjvmDJ/28ePlq8/2lV1xlvt9r773lL3/9mzzy+AyZ/NiT5ruHJk8zj79qQPjGuk1y7Y2DTXlF5gvbl7AyfWzYHoNONQgMm8+WhYWC9judagu9/fb7i1nnxEemJ61rxJ33mHJ9JNi7jPf9b3/3O9My0Fs24OrrzHL+VocaBuo+a/155//HIYfJ2EmPJJV5v9f3GgrqY8TnnHe+CQU1BDzv/J7SsFEjefChSSYY1D4GNRhsd3x7NxjsfNbZZpu6XQYY4WZo7wNMsYABDGAAAxjAAAYwgOC5kx8AACAASURBVAEMYAADGKi4gVQhoL88L0LB7j12DbARNvCIjoT7hz/8Uc48+1zRR4gPOKCWNG1xrFwx8Foziq+GSwuWrDB94NnBOc7v2Ue0RWFF5vOHYP7Puq+6bfsaWkbfiHb5dKGgPs576GH1zDp79LogEMp17Xau+U4fIbbr80/DQkG7rwteWJG0nA0Fx09+LKlcH2VO9Xiy3Z4NBTUItOGf9imoIeC53XuItgjUMFK/q1u3rpxzXneZt3i5W1/aSpSLveIXO3VIHWIAAxjAAAYwgAEMYAADGMAABjBgDfjDv1Sf8yIU9D5GrAGb/3FbDaF0kIyGjf4pV117vWgfguf3vlAOqFVbup3TXeodcaQ7KIaGgL0v6ifNWxwrI+68t8Lz2QDMP9XHhQ85tJ4ZSKSsloH+ZVOFgvrYrbZ01Ed/dWARbfHoXVYfHf7jvvvKTUOHJ5V759H3+nixBm7ecq0vrdsVr65NKtcWh1o+6p4H3HINYffeZx8z8rF3Hf73NhQccPW1Jvj7Z+MmcuSRR0m9eofL0fXry7QnZslrb78nd90/xpQfdNBBst9++8n//d//mceG9bxbsEy5eWEAAxjAAAYwgAEMYAADGMAABjCAgYobSBUC+svzIhS0J9wOPGIH5tA+Bm1AqH3s7fOHP4g+OqwDdoydONWEWb///R7yyPSn3UDrymsGmVF59fFb7UuwovP5g7BcfA4LBcdMeMT0HzjhkeQWe97t6WAgOkqwt8y+f3zGHHfgkgfHPyzaWvDRp54x82qLvYMO/rt0O/d883npK2/ItCdnmiBVQ8I99txT2h5/gvlOg8jLr7rW1LXWnw5Mov0Oat+Ndlt2akPB4aPuNqHgca3biraW1MFGzj7nPOnQ8QzzyPCiZa+YoPOPf/yjme+AAw6Q666/UT7/+ntCQfoSxAAGMIABDGAAAxjAAAYwgAEMYAADOTTgD/9Sfc6rUFDDwZsGDzVhnz7uqi3wtBWbbYnXvOWx5vOUx56WF1e+bt7/6c9/TgqrpjyeGGBEWwpqeFXR+WwAlstpWCh4aofE6MB6vP7X/MUvyZvvbjJB30mnnp50vHa/9tnnD3Jx/yvc7+zIvjroiAaE+jiwbXl49wMPmW28uvY9M78O4KLb1OCwRctW5n3/yxP9N774cqKe7Tmw29OpDQX1O31EuHmLliaI1T4G7WPEnbp0dY/nV7/6ley9995mXn2c+Jahw7joc3jR23CdacX/qkIdUocYwAAGMIABDGAAAxjAAAYwUKgGUoWA/vK8CwW1wv99170mSNJWgho46WO6Q4aPlPvGTjCP69rReLW/uqG3j3KDMA2qVr7xjpnn3tEPueUVmc8bguXqvfbVp6Gnt/XdVdfeYMq03P96afVb7nFpi8Kw/dBj1EeO7XdzFi2VPn0vEQ0be114sWhLQvvd7PmLzTZsSKjl2rfgmWedI526nCXXDx4qK19/x8z/ypvvmnl18BO7vJ1qC8Fhd9xpWgNqKFi/QQPTAvHhaU+agFDL9t9/f6lb9yAzKvMJ/zpJ3np3kzw161lp3aatHHLIIXJh34tl7fr3CQcJBzGAAQxgAAMYwAAGMIABDGAAAxjAQA4M+MO/VJ/zMhS0SWzTFi1NEKXhYKPGTU04ZQMpppsDIV111cnSlW9I17POFh19+L4x40WDxHbtT5CDDz5YGjdpKvvss485d9t+jJqLe4fzi7y65h0TDB544IHSokVLmbNgERd+Di58e+0w5S9aGMAABjCAAQxgAAMYwAAGMICB4jSQKgT0l+d1KKgDUWj/gbbVn7YatI+xPr98lelv0PY5WF2BWLFvV8+D9oN48imnyWH16km/ywaYgUV69LnItBL861//aloEjp0wKSn002Bwzbr3pN+ll8mhhx4qjZs0kYlTpiXNw82rOG9enHfOOwYwgAEMYAADGMAABjCAAQxgoPwG/OFfqs95HQpaAAtfWGYeJ9bHaisrhHtrw4dm3Wvf+0g2frw14+3oKMT25X/sVz9rC8ewl7/fwPJ+rsw6SVXXGgTqdv/6t/3NVB9Dvn/sBKldu450O+c8sf0Z1qpV2/QfWKdOHTnxXyfJuo2bA6HfD5H/yINjHjLzaUvDYcPvkM+/2R6Yz1pgWv6bAnVH3WEAAxjAAAYwgAEMYAADGMAABmq+gVQhoL+8IEJBBbth8yeioxPrI8WNmzST7r36yJTHZ4iOrJsqvNLyVWvWmxaF2sJQR8bVlwZaNw4ZJus2fSLrN39qlk88otxEWh7bSlod18a8atc5UPRVq3Yd2XOvvdwBMzIN8A6oVUuaNW8pTZo2My8Ny+xLR1i2r3O79zT7pPtV3pcen4aT/rrQEZz1u6sH3WjWfdmV15j+GbXfv+Wr15iXfxnvZ9uvo/bpqC9bf7pO20pTp6d36iK1atWS/fbbTzqc0VmenDVHPtjypVw76Aape9BB0qBhQxk9dnxo2PftTzF5bvFSOa3D6XLQQQdJv0v6MzIxjxKHWuHHq+b/eHGOOccYwAAGMIABDGAAAxjAAAYqZsAf/qX6XDChoBeEhoPeYE5b4tmAygZaGmDZFno6r23VpqGWnUenGm7pfN715fN7e0wVmYYdX4eOnUNDRW9ded9rAKkBpl3X7rvvLvqocJMmTeXtDYkWgTvjIm++s0E6ntFJLuzbT1q1Ok7eff/DlGHPB598Lr37XCjasrBHr95p5/V64H3FbhbUH/WHAQxgAAMYwAAGMIABDGAAAxioOQZShYD+8oIMBRWqthx8aNIUGXnXvdK9R09pcWwrufLq6+TRJ2fKiy+/ZloBaktAfWmYpY8Fv/fRVtm05UvZ8tV2+eLbHaIDX6x6Y61Zl64v3Uvn08eYs3np/mXy0mPQoLOslx5nule3c7uLvs4862z31fnMs6RTl67mZVsmpmuNqGGqBqXaAnP6zGfdloG6rLZy1HBVg0BtPaktKnWfx06cLE/MmC2nntZBDjvsMFnw/BI3+NO+A4fcOtyMQKx9B958y9CUrQA1RNy67Ue554ExUq9ePTMQCQOQ1JybEj8wnEsMYAADGMAABjCAAQxgAAMYwEDlG/CHf6k+F2woCKKKIdr2Y0z0peGohqT60r4U7cvbKtC+14BVlwmrew3/+va71PQNeP+Yh5Lm+fCzL00LwNq1a0vdunVl1pwFSd/71/dT7H8y45m5Zl1HH3203Dd6bNr5/cvzuWI2qD/qDwMYwAAGMIABDGAAAxjAAAYwULgGUoWA/nJCQfpuSxu46UAg9lXWDeGe+x40Qd5119+YtE5tAbhkxStydP365vuevfokfR+2Xg0G337vA7liwFVy8MEHyyWXXhY6UEnYspQV7o2Lc8e5wwAGMIABDGAAAxjAAAYwgAEMVMyAP/xL9ZlQkFCwzIAu04vx4amPmtDv/B49A+vUkE/7FdTWgg0aNJRMHwv+vuRnmbtwsRmopOWxx8rTs+cE1p3p/jFfxW4q1B/1hwEMYAADGMAABjCAAQxgAAMYyH8DqUJAfzmhIKFgzkK2tzdsMqHfsa2Ok8+/2R5Y7+KlK0w/gRoMNm7SRJavfDUwT9jNxbQa3LBJht8+Upq3aCFndu2WcagYtj7K8v8GxjniHGEAAxjAAAYwgAEMYAADGMAABspnwB/+pfpMKEgomFEwl8mF+OlX203fgfXrNwjtN1D7HXy6tK9ADQZvvPmWrLat4eD855dIm7bt5JBDDpEBV12d1fKZHAPzlO+GQ71RbxjAAAYwgAEMYAADGMAABjCAgfwwkCoE9JcTChIK5ixY++q7HXLDTYNFRxkedec9oevd8uU26dzlTNOisEWLlln3E6jB4OYtW0X7LTz88MPNNKxVIjei/LgRcR44DxjAAAYwgAEMYAADGMAABjCAgao14A//Un0mFCQUDA3vynPB6oAis+c9ZwK/Xn0uSLnecRMnm3nq1Kkjp5x6WtbBoO6b7WvwpJNPkbXr30+5rfIcB8tU7c2K+qa+MYABDGAAAxjAAAYwgAEMYAADuTOQKgT0lxMKEgrmNFB77a110qxZc/OIr/YxGHZRf7V9p4wYeacbDI4eOz50vrBlvWXaavDjz78RfSzZW8773N1IqEvqEgMYwAAGMIABDGAAAxjAAAYwUFgG/OFfqs+EgoSCOQ3UPvtqu5zZ9SypW7duaL+C9kaydsMmd9CR9iecmNN9sNtgWlg3Lc4X5wsDGMAABjCAAQxgAAMYwAAGMFBxA6lCQH85oSChYE4DOX2EeOB1g0wrwPvHjEu5bm3dd9c995v5Dj3sMLll6DD5/OvvU87PTaHiNwXqkDrEAAYwgAEMYAADGMAABjCAAQzUfAP+8C/VZ0JBQsGcB3ETJk81Yd/Vg25Iu+4PP/vSjFasIxE3aNhQlr68Ku383Lhq/o2Lc8w5xgAGMIABDGAAAxjAAAYwgAEMVMxAqhDQX04oSCiY8yBuweIXTSjYtt3xadetrQqXrHhFjq5fX3TQkV69Uw9Owg2hYjcE6o/6wwAGMIABDGAAAxjAAAYwgAEMFIcBf/iX6jOhIKFg2uCuPDeMd9//0ISCDRo0lDkLFqVdvw4WMnjIsIznL8/+sExx3PQ4z5xnDGAAAxjAAAYwgAEMYAADGMBAqggwWE4oSCiYNrQrz8X02dffyYV9L5ZDDz1URt15T5nrf/Wtd5IGHUk1anF59oVl+EHAAAYwgAEMYAADGMAABjCAAQxgoJgMBOO/8BJCQULBMkO7bC+cH0p+lolTppnWf506dylzABH/Y8S9+1yY833K9hiYnx8MDGAAAxjAAAYwgAEMYAADGMAABgrRQHgEGCwlFCQUrJQAbu5zi00o2LpNW3lr/ftlbkMfIx4zboL7GPG6jZvLXKYQL0z2mR8UDGAAAxjAAAYwgAEMYAADGMAABirTQDD+Cy8hFCQUrJTw7bW31kmzZs3NACIznpmX0TY2fvSp+xjxHaPuzGiZyryIWDc3aQxgAAMYwAAGMIABDGAAAxjAAAYKzUB4BBgsJRQkFKyU8E0HGzm+fXvT8u/Gm2/JaBs7nF/k6WfmmmUaN2lS5iAlhXZRsr/8kGAAAxjAAAYwgAEMYAADGMAABjBQ2QaC8V94CaEgoWBGgV22YLf9EJHLB1wl9es3kO49ema8jS1fbpNL+19ugsGuZ3Ursz/CbPeL+bn5YgADGMAABjCAAQxgAAMYwAAGMFCTDYRHgMFSQkFCwYwDu2wvmG9+iMgTM2ZL6zZtstrGmnc3mlCwbt26MmvOgqyWzXYfmZ8fAgxgAAMYwAAGMIABDGAAAxjAAAZqkoFg/BdeQihIKFipoZu2/Js87XH59KtvM97Oth9LpHOXM00w2O2cc4VBR7g516SbM8eCZwxgAAMYwAAGMIABDGAAAxioTAPhEWCwlFCQUDDjsK4ywfrXPW7iZBMK1qlTR/pd0j8v99G/z3zmpo4BDGAAAxjAAAYwgAEMYAADGMBAdRsIxn/hJYSChIJ5Gbh9tX2njBh5pwkGGzZqJMtXvpqX+1ndFzrb58cGAxjAAAYwgAEMYAADGMAABjCAAa+B8AgwWEooSCiYt2Hb2g2bpHWbtiYYzHQEY+9FwHtuihjAAAYwgAEMYAADGMAABjCAAQwUm4Fg/BdeQihIKJi3oeAO5xcZ//Aj0qZtWzmtw+ny6BNP5+2+FtsNhuPlRxUDGMAABjCAAQxgAAMYwAAGMJCfBsIjwGApoSChYF4Hbd+X/CxffrfDvL79MZrX+8rNMD9vhpwXzgsGMIABDGAAAxjAAAYwgAEMFJOBYPwXXkIoSCiY/0FbXKSkJC4l0f9mt6/R/0rkp0j2y6Uysf0nKYn8nN0+pFqXlm/fISU7Y7lbX5ptRX6MmO3tjP2vSrZXTDdbjpX/ucAABjCAAQxgAAMYwAAGMICBfDIQHgEGSwkF0wQp+XRCi3lf4g+Mk5JfHSzO5VdnFWg5Pfsmlps23SwXicQl+tFnWa3D1nt0+08SqdvQrC9+1/3lWoddl506V12f2L+JU3KyPrvesGnsnF6Jbc1ZmPW2Ij+UiDN7vsTO7mmmYeunjB9ADGAAAxjAAAYwgAEMYAADGMBAfhgIxn/hJYSChIJZh0RVfZHHh96eCLSyDQU7n5sI8aY8JrF1G8376FEtsm7tF/1im0SP72CWj+xfX6IffFLhOot8/rVEDj7GrDP29DOJVoPacnD7DrGt+WKvvy3OM/Mze736Vtp9ckPBGXOC8+10xBzje5vFWb1GnOeWiPP4DHGGDJdYl/OkZP+jzX5qMGuOf8uXwXVwHVEnGMAABjCAAQxgAAMYwAAGMICBvDAQHgEGSwkFawDY6NZtbpBU1YGdd3u6H5FKeDy1vKFg7MzuJsyKPzxNSuIi0dYnm8/Ocy9kdZHG+g1wQzFdpzP1ibJfr7yWdhuxvpe769SwzfvSMFDr1bnu5qRy7zz+96ZVZBrLaUPBfQ/PaDvRTueYwLBkp5P22LwmeJ8ffyXiPHAeMIABDGAAAxjAAAYwgAEMFI+BYPwXXkIomCZIKYQLxrk/8WhttMFx4lw+UOKPPC7RTR/LTueXKg1uop98IZHDm5tHbKPvbc5q27qvpqXaxg+l5PsdgWXDQkFn0VJx5i1K+4o0aWvCLufKQYn5ho0yn7XVn7Og7GAw+vHn4vTql1Fg5g/pzD6nsBVb8667zugJHUVfkSNb7Corrb/4E7Mkfs1N5hUtbfWojzDbMp3GTjvTLOf0uSRQb16/mYSC2nIx2uokiXXsJhpaOsPuEGfSVIm9+JJEt35jglXvOnlfPD8onGvONQYwgAEMYAADGMAABjCAgcIxEB4BBksJBVMEN1WCvcSRkgqGd864h90wyRtMxU7qJLG3N6QNinJ5jM49D7r74Uyfmdl2nV/E0cCp/enusnoMju9R2LBQsCTD1m3eOkl6r8unOfexTR9LtFErd79ip59lgjINy1K9om1Oced37h2dcv3OBf3NfLHz+rjzxO9+IFHWsZtb5t2/+IMPJb7XFoae/dbgUI/LtDz0lHvn0feZhIKxD7Ykrdu/Dj4Xzg8A54pzhQEMYAADGMAABjCAAQxgoHgNBOO/8BJCwTRBSq4vIGf+YjNYRqRxW/GGWtpyLX7riHINgmEGgRg+SrSlYFLoVfpIqvYJp4/PRj77ulIDH8fziK2zYHHqbZXExVm20rRC01ZpYfvs3Dc2afmwUNC54FLRR2bTvSL1mpr1R/7xz+B8l1yZtA1zruMisc1bxG5P90370NPHhfXx47QedFldpwZ0p3SRsEdsta/A+N2e8HTZy4l1bt8h0fotzbLOjGeD23F+SfTt96uDJT7lsaTvnYmPJJbTQUs8lnU+Z+D17sv0pWj2rbNb5syam1imNGAlFCzjHHvq11vXvKfeMIABDGAAAxjAAAYwgAEMYCCfDIRHgMFSQsEq+Ie+9rOnj7CGBWDeskiz4yUS/U9SuJMpqsh3P4mGaRpieddp35tg7MWXyrfub7abMNN56ZWUy0dbtHe3G/1ka+h8zsw57jx2v+w0ekwb8+iqfrZ96tljtyFd1qMP9x9othcfdW/o/tj1m2lcTFBp90en+vhx9ItvJbLthzKXj4+8xz22VKFobMlL7jy6/vjg28zLDOZRGuI6N92aKPe0trTHb+pmc3Jrvvio+xLHqIOxeCw7l16VtC3vcdn3Zr26DKFgUt1565H3/LBjAAMYwAAGMIABDGAAAxjAQKEZCMZ/4SWEgp4gpbJOsjM80ZedDWOix7QW58prxRl8m9i+4ux3sa7nV+iR4qg+MmxbCZ5/QdLIsVqufeTFVr6W1Ta0bzldNlKrQXhrxpK4u81oixPddWtfgbH1m8R5eJrpp87ul51Gjmwuzg1DJPbKG4mWeJGfpWRHzAQ0upw+Xqsv+xiv9lnolmn/g/rodapXXEzfe+aYPYFZVJfT7fjOu/cxbD0/+jhvbMVq0RaJGpo5l14ppm59y2kLQuf+sYnj36eeOPeNCV2/bk9b4mnwa48/3VRDPdMK9LaR7rq19Z/p53DClMTowBOmuOvTvv+8xxR7fpk4Op++SvudNHXRf6BbHnt5dWIZQsGkuvPWI+/58ccABjCAAQxgAAMYwAAGMICBQjMQHgEGSwkF/SFPJXw2jwt7RpiNfP1dUgjhPDg+KSjS4Ke84GLPL3XXpS3uIp9/Lc7Nw9wyG0Q5jz6V8TZMCz3bkm3C5MBy0fc/ctcf//f97vfxMRPccrtdM933cDGt90IGFbHH7ax6M3xZG3jOfz7t99GPt7qPAZtRfEvPqz6qrftgwkHPuTatATU07T9QIt/+mDiG6H/F21eihoPxOc+5x6fholP6yLCu04SnnnXaY/FOdd06WIiZf+YccZa+LNG2p4jTu595b8NJDQW9LQRtq77o2l2DlJi6LK2P6Ief7tov3z7YfgfNNqc9GZyvNBTUx6Tji14s8+WsfiO4Dt82vcfMe35AMYABDGAAAxjAAAYwgAEMYAADVWcgGP+FlxAKVkGYYVr/2TBr3cZAoBL5MeI+wqnBjbaSK+/FEluy3A3LnOd2jbCrIwI7198ikVqljxfvd4RoC8bId6UBWJp6iF18ubvO2GVXBfYtNneR+70OHGL3PXZub7fcHFfHbuLMnmceybXzpJqax6FnzRNn1jx3kAztq08/m5cORqJ1+ttDEqMe68jHhzd3t2dCwdL+++wgHNEvvzXz63L6WLB/25FPvwqU6Twarpp1lJ5D07rxheVuK89InQbi3DtGzHlMU492e3Zglchnie3Fzuwu+tiwfm/DUPP4786Y6adQW1qW7Ey0oNSWlPExE8W5Z7QJVjXIs+ux60+a7nTEG0pHGrcJPJ5tHx829Vl6jOne6/4mbSODY2b+qrv5U9fUNQYwgAEMYAADGMAABjCAgeI2EB4BBksJBasg0DBBmQZRnc4JD1N2Om6YpWFMbP0H4fNlsK/O0hXuuvTxV/+NIPbmOvd73ZYORuGfx/85duIZ7jLa95//e9M6UMOkfQ8X7T/Rfh/re5m7nDkuXY8+apzBcXjnsS3mvH0KmkExtK5O7py0Pjt4iQkFJ08z27chlqOt5HQZfUQ7y33Q+b2P4ep67EsHkMlmfRmHgqX7GB87yTzyG92+w7T8tNvNZORqM5KzZ1/tsknBc2lLQe13UvuGtC/9bOe3ZTp1Bg3O6nizqRvmLe4fLs4/5x8DGMAABjCAAQxgAAMYwEDFDQTjv/ASQsFyhEPlAaphmY4+G7Zs7M3kR0LTtvwqY3+9LQVjK18N3V7k828SAWVpWKT956XaN9OSsDQ0sgFR5Kdo0nptS0J/2KbbtyMAu8vqaL43Dk20iAvp2y+sfsobCjrPzDehlunHT0cHPqmT+extQRm2vUCZjpi86k3T/6E9Dp3q4DE6WnFg/jLOkQ0FY9fdLM5tIyXa4FiJtj/NvI9dmhjB2LQU/FkSjzJr/WuLyG++T7QKtCGf9qdYxrb03Hr32T4+HTvtzMQIyZ5AOrrly6T1Oc8uMMvGTj8rqbysbfJ9xW/g1CF1iAEMYAADGMAABjCAAQxgAAPlNRAeAQZLCQXLCFXKewKyWc7b51+sY7fEoBvl3C/vo7zmfar1fL9TnB4XuoFRfPT40OAndvUN7jw2XIpu+tidVwfD0AFITEh272i33D1+7Zdv+iyJndPbfXTXXU+jVhK/dYSY1oup9vNncfvWy7aloLdVZOyV18w+Rpq0K7t+Iz9LbMMH4kx93PQZGDm0cVId6OAj2ndjbM27aV9u34S+Y7OhYKTliRJtc4qU7HeERA4+xryP1GuWqEsdPVhbJ854NrFtHcRk0GDT56GtP+0r0ZRpeUjrvdjbG0Qfbdbt2QFtnKeecQdGcYYMN8dp11eyIznsJRTkB8i9jn2GKccGBjCAAQxgAAMYwAAGMICB/DUQjP/CSwgFq/kfu9qC0NsXXtgjv9lcaM7MOW6AFX98RjCk8x6v84tEW59s5jf9znm/01Zq2t+gbZXmmZrRgkvnjT81251HR7xNt6+x19aKefzYsy67fh14xPvosXc96VoKauClA7e4r+aJ0X318eHo51+7+6atE3Vb3mDRuw19H/3oM4mPnuCOdmz3rbxTE6r56tRsp/3pZl9si9CUfQpqf4bn9HKPocz98GxL+zfUQNAc86rX3fU4M+aYc6SjOMcfGCfOkpd2rd+zvO4noWD+3uD9dvnMucIABjCAAQxgAAMYwAAGMIABayA8AgyWEgr6ghBbgVUy1dFr+w90QxnTmiteMcRJoeADD6UN6fQYvf3kmcdtPfXhLFi8a99KR+01IdO4h816tZVgtP6xu+bRgTw8y4e+d36R2MrXzEi9tv8/G3Y5/a9KPNLqW0e6UNAu659qKGj63Nunntk/G7ya+vGvf8pjpjWdfx32c+TIFhI9oWPGL7tcRULB2CVXivPAuETd7nu4OJMfFR1F2Bk/2a3v+PSZpkzLTTjrOS4djET3w/S5qI9Ol4aLNhSMaivCb390R1c2jxN7ljc2eHy4bM++Ogs1zzzUIwYwgAEMYAADGMAABjCAAQxUoYFg/BdeQihYVSclLuKsfsM8DupMekTiYyaI97FhDXBShUjZBA3OnIVuaOSckWJgE88xm5aJpS33/I+gmhFxdYCUo1pIdPtPu9Z7QX9zMZu++eyy192c/QUe/a/EByY/nqwjIvuP1x8Kxt55T6LvvGdGBNZRgcNe0S+/M+uJHtPa3W+tY39/iLotb4tCnSd+y3DR0ZrtiMMmYPPUmX///J9NEJfmfNp+/dK2FLygv0SPaGH23Vm83K0Ts4xtaZmqT8GSuNuXoxlcxdPi0IaCdp9tS1En5NFvWgpWLKC3dcyUesQABjCAAQxgAAMYwAAGMICBqjQQHgEGSwkFswh7ynsC45MfdUMaDZ1SvZwL+osza55Efoq4IVC224y98U7S+qNbvki5Ln3ELZRHmgAAIABJREFU1Ol5sTu/BpXu9uIi0RYnJkKpK6425Wb0ZA3W6h4jsQ8+kVi3noll96kn0Q8/3bWs1ulOR7Qlobu+NPXsTHzE3QcdwbhkZyxpORsK6qPCsfMvMPNG165PmidpOzrCcekgJtEu57nrduY8l3IZZ94iMev0DH5SaaFgaevK6JndRR/j1WOONmpl3kf/lRjpWQcaiXz+tcQfTO7rMZNQ0Dw6fGhTMeHj9h3mmP0tBbW+It9sd+smtm5joG4IBfnRSrqu0lzDzIcVDGAAAxjAAAYwgAEMYAAD+WMgGP+FlxAKVvI/dL2t6VKFgf5yDb5S9a9X1kUW/eJbN+jR9ToLlwTCHl2HM3ue2+eczhf5xz8lEom780a+87QM1EdWdZk77k5at93vWLce7nI6ny5r+7OLj51Y5sAeke93Jq03su0Hd30aNpoWj74wVVsL+usiun2H+ziss2hpYp8vv9qsO3biGYH5/cv7P1dWKGjrLd1UQ8HYub1FR3ROeulIwKV1oX0Rer8z/SaWenYGXCPRT7a6xxwWCsZeftWsK1K3oTuftw4IBfPnhu49L7znvGAAAxjAAAYwgAEMYAADGMBAOgPhEWCwlFCwMkNB5xcxA3iUhjjacsuZ/7w4V13vBjsm4NnviOTPGtI1bivOspfdsGZn7H+iAaNz3U2Jx1u3fOl+lwRBH1MuHVRD163Bjg6goYODxJ9+xozkG2mWGIzDhktmvidnJ60v9vrb7j7po7q6DRsieZfT9yb489SjaXHnCfGcXheLM32mmIFGNn4o0Y0fioZ6sRWrxJk0NTEysQ26tO+7nY44S1+WaNtT3H3Q7WgfhM59YyS2eYtoa7jYu++bcNO54x7RVnfe/YoteUmcl1ZJ5NCmptz7aLT2z6fbLSmj/8bKCAWjW7eZ/YnsX9/sf2z9Jomd3EmcS68UfW8e99XzpqMPe+owk/emJWfpeTCtAD3nJCwUdIbfabZhWl965rWeCAX5kbEWmGIBAxjAAAYwgAEMYAADGMBA4RgIxn/hJYSCIWFILqFHW7RPG+6YFnU7HfP4rfZllxT+6GOl2pefttJ77Omk7+L/vi8pxNNBI7RVXfSjzyX25joJC/6S1m2DyvanJ7Uos8du+p6zoVTpI6gaosVO6ZK0H7pODfnscjqNbPs+ME/Ytv1lGoTaFpLeAFL71jMBla77h53i9O5nHrn1L6+fnX5XJPoDXP9B0j5oqzu7j/achD0ya+fRaWWEgs6rb5n9il2U6JfRbOfM7mL6b9TzvOpN872Ggs7qNeKsej35NW+Re1zOy68mfRf5NEVQnKJPQdu3oVM6cIz32PU9oWDh3PD9547PnDsMYAADGMAABjCAAQxgAAPFayA8AgyWEgpWciioI/pG/tHYDXK8QZa27NJ+49wLVUM3bf12waXu/PHJ08z3tl89u7wz4DpTbh4D3r++O7/9Pt3UtEK8cpA48xdLyQ87d23fUxfO9bfsWqf20Vf6XeTTr3YFjvvUS7QSDGlxF1v/gegIutoiLt2+mO/2qSc68rCOiOtu59sfzKPAGnB6W/Rpi0ntf88st+/hoo/Qat1oPUe/2Gbm1ZaEsQ5dzTy2pWakVgOJfPO9aTWpy0aPaZMYndhzzHbbdmpDQd03XX+mr2j9lmbbNsi069OpMzDRStSZ+rh7rHoMYaGgdzn7PpM+Be283qm/paAJRG0w/P5H7r54lyEULN4fEK8D3uMAAxjAAAYwgAEMYAADGMBAYRkIxn/hJYSCaUKhXKGPrXlXTJ92tuWdtmjr2Ve0dV/oNvTxWR05WOebPd/M429FGB91b6L87gcSAZln3SYw8312ul8k2iIsmiIA8u+Hedz2Vwcn9ttXRxq66SPKGpL5lwt8dn6R+LMLxLn8aomdfpYJ4zSQ09Z6sS7dJf7v+yW66eOy1+PZB60TZ8Fit1Whd5vO8leS6kMfm3b6DzRl2jrPmTA5Ua9XDipzmzYUDKvPTMr8oaDpK9EGce9tdrfvDQXtaNDm8WHPMdtjzFUoGL/6xkQ9dL/I3Q+7DTslFCysm749b0w5bxjAAAYwgAEMYAADGMAABorbQHgEGCwlFAwJXirr4tFHX00wtCN5dN3Q7e10TB9ztpWc9sGnrfdM/3zDR5nBPHQ5HV3YBHQDrjF9DWrwp2FObOVrJgCMfPtDUku70G2F1EH8iVkSbXOyxJ9fljI0ynRdVTWf8+hTZmRkDew0eIy9sMwcuw64ES0d8deGebEMjsuGgvooduyc3hm/IrUSrSP9oaD2J2n2rf3pSedEQ8HoCR3FGXGXxM5OjOjs7QPRW3+5CAUjX38nJX89UiKN20jk6+0pzy+hYHH/iHjd8R4LGMAABjCAAQxgAAMYwAAGCsdAMP4LLyEUDAnEgF440L3nKqatIHWQljoNJPbBJ0lhl20hqN9rq0UbtnqX97+3oWB8zMSkdfnn83+Ondw50Qrv2QVJyzkTpiTKR9yVVG5CwaNamO9saKmDwvjXq59zEQrqepzLB0p89ITQbdjtEgoW5nVgzx9Tzh8GMIABDGAAAxjAAAYwgIHiNBAeAQZLCQUJBdMGQ4V2A9HHhyPfJQZn8e679kUYe3uDOC+ukJLofzM65tiS5RKf8mhSX4fedaZ6r6NEm+V8wWRJSVyc8ZPFjuZsl9fHp83Iwzq69KKlJtDc6fwSvo/bd4hz+78lPuq+jIJNuw13n0ofH9fRiVM+vl56TcQ2fyoaZGq/lXY9TIvzB4XzznnHAAYwgAEMYAADGMAABjBQOAaC8V94CaEgoSCBDwYwgAEMYAADGMAABjCAAQxgAAMYwEANMRAeAQZLCQVryAknsS+cxJ5zxbnCAAYwgAEMYAADGMAABjCAAQxgoLIMBOO/8BJCQUJB/hKAAQxgAAMYwAAGMIABDGAAAxjAAAYwUEMMhEeAwVJCwRpywisrXWa9/OUCAxjAAAYwgAEMYAADGMAABjCAAQwUjoFg/BdeQihIKMhfAjCAAQxgAAMYwAAGMIABDGAAAxjAAAZqiIHwCDBYSihYQ044iX1mif1Psf/Jx59/I+s3fSJff1/CDQ//GMAABjCAAQxgAAMYwAAGMIABDNQoA8H4L7yEUBD4NQp+WeHozrjIvEUvyJFHHiWXXXFlUR17WXXD95kFy9QT9YQBDGAAAxjAAAYwgAEMYAAD+WwgPAIMlhIKEgoWXTC25ctt0qNnb2nYqJHMX/RC0R1/Pt+42Dd+WDGAAQxgAAMYwAAGMIABDGAAAxUzEIz/wksIBQkFizIUmzB5qtSuXVsG3XBTUR4/N9iK3WCpP+oPAxjAAAYwgAEMYAADGMAABvLVQHgEGCwlFCQULMpQ7KvtO2XEyDvl8MOPkLvvvb8o6yBfb17sFz+sGMAABjCAAQxgAAMYwAAGMICB8hsIxn/hJYSChIJFG4it3bBJWrdpK+2Oby/rNm4u2nrgRlv+Gy11R91hAAMYwAAGMIABDGAAAxjAQL4ZCI8Ag6WEgoSCRRuG7XB+kceenCl16tSR0WPHF2095NvNi/3hBxUDGMAABjCAAQxgAAMYwAAGMFB+A8H4L7yEUJBQsKjDsE+2bpPefS6Uxk2a0FqQa6GorwV+cMv/g0vdUXcYwAAGMIABDGAAAxjAQD4ZCI8Ag6WEggQhRR2E7IyLLFnxitSv34DWglwLRX0t5NMPGPvC/1BhAAMYwAAGMIABDGAAAxgov4Fg/BdeQihIEFL0QchPsf/JmHETpP0JJxZ9XXDTLf9Nl7qj7jCAAQxgAAMYwAAGMIABDGAgHwyER4DBUkJBQkGCsJ9FNn70qTRr3lxuGTpMPv/6e+qE6wIDGMAABjCAAQxgAAMYwAAGMICBgjQQjP/CSwgFAV6QwHOdvOugIxf27ScNGjaUpS+vok64LjCAAQxgAAMYwAAGMIABDGAAAxgoSAPhEWCwlFAQ4AUJPNehoK5v8dIV0qZtO+nV+wLqhOsCAxjAAAYwgAEMYAADGMAABjCAgYI0EIz/wksIBQFekMArIxTU1oJPPzNXGjRoKHMWLKJeuDYwgAEMYAADGMAABjCAAQxgAAMYKDgD4RFgsJRQENwFh7syAkG7zi1fbpOevfpIhw6nyweffE7dcH1gAAMYwAAGMIABDGAAAxjAAAYwUFAGgvFfeAmhILALCrYN7ypzOmHyVKlbt64ZdKQyt8O6GZUKAxjAAAYwgAEMYAADGMAABjCAgVwbCI8Ag6WEgoSChII+A19t3ykjRt4pLVq0lHUbN1M/vvrJ9c2K9fEDiAEMYAADGMAABjCAAQxgAAMYyJ2BYPwXXkIoSOBB6BViYO2GTdK2bTvpd0l/6iekfrhZ5+5mTV1SlxjAAAYwgAEMYAADGMAABjCQSwPhEWCwlFCQwIPQK8SADjry2JMzpWGjRvLEjNnUUUgd5fKGxbr4AcQABjCAAQxgAAMYwAAGMIABDOTGQDD+Cy8hFCTsIPBKYeCTrdukd58Lpf0JJ1JHKeqIG3ZubtjUI/WIAQxgAAMYwAAGMIABDGAAA7kyEB4BBksJBQk7CLxSGNgZF1my4hVp1ry53H3v/dRTinrK1U2L9fADiAEMYAADGMAABjCAAQxgAAMYqLiBYPwXXkIoSNBB2JXGwE+x/8mYcROk3fHtGXQkTT1x0674TZs6pA4xgAEMYAADGMAABjCAAQxgIBcGwiPAYCmhIEEHoWAZBjZ+9KkZdEQfJc7Fxck6uMljAAMYwAAGMIABDGAAAxjAAAYwUFkGgvFfeAmhYBmBUGWdINZbOBe/Djry9DNzpUGDhjJnwSKCQa4ZDGAAAxjAAAYwgAEMYAADGMAABvLWQHgEGCwlFARx3iLOp+B0y5fbpP9lV0jXs7rJ519/T51x3WAAAxjAAAYwgAEMYAADGMAABjCQlwaC8V94CaEggPMScD4FgnZf1ry7UerWrSu3DB1GnXHdYAADGMAABjCAAQxgAAMYwAAGMJCXBsIjwGApoSCA8xKwDeLyabrtxxIZMfJOadGiJYOOcN1w3WAAAxjAAAYwgAEMYAADGMAABvLSQDD+Cy8hFARwXgLOpzDQuy9rN2wyg470u6Q/9ca1gwEMYAADGMAABjCAAQxgAAMYwEDeGQiPAIOlhILgzTu83hAu397roCOPPTlTGjZqJE/MmE3dcf1gAAMYwAAGMIABDGAAAxjAAAYwkFcGgvFfeAmhIHDzCm6+hYBh+/PJ1m3Su8+F0v6EE6k7rh8MYAADGMAABjCAAQxgAAMYwAAG8spAeAQYLCUUBG5ewQ0L4fKtbGdcZMmKV6RZ8+Zy+x2j5NufYtQh1xEGMIABDGAAAxjAAAYwgAEMYAADeWEgGP+FlxAKAjYvwOZb8FfW/uhjxHfdc780bNhQpj/NY8Rl1RffC9cZ91oMYAADGMAABjCAAQxgAAMYqBID4RFgsJRQEJBVArImhkIffvYljxFz/XD9YAADGMAABjCAAQxgAAMYwAAG8spAMP4LLyEUBG5ewS2k8ND7GPEtQ4fJ519/T11yPWEAAxjAAAYwgAEMYAADGMAABjBQrQbCI8BgKaEgUKsVaiGFgGH7+lPsf3Jh337SoGFDWfryKuqS6wkDGMAABjCAAQxgAAMYwAAGMICBajUQjP/CSwgFgVqtUMOCtkIrW7x0hbRp20569b6AuuR6wgAGMIABDGAAAxjAAAYwgAEMYKBaDYRHgMFSQkGgVivUQgsAw/ZXBx15+pm50qBBQ5mzYBH1yTWFAQxgAAMYwAAGMIABDGAAAxjAQLUZCMZ/4SWEgiCtNqRhAVuhlm35cpt0PrOrNG7SRJavfJU65brCAAYwgAEMYAADGMAABjCAAQxgoFoMhEeAwVJCQYBWC9BCDf/S7fe4iZOldu3acuPNt1CnXFcYwAAGMIABDGAAAxjAAAYwgAEMVIuBYPwXXkIoCNBqAZouXCvU7z7/5ge5dtAN0qJFS1m3cTP1yrWFAQxgAAMYwAAGMIABDGAAAxjAQJUbCI8Ag6WEguCscpyFGvqVtd874yJvvrNB2rZtJ6ecehrBINcW1xYGMIABDGAAAxjAAAYwgAEMYKDKDQTjv/ASQkFwVjnOssK1Qv5eBx0ZfOttUqdOHRk9djx1y/WFAQxgAAMYwAAGMIABDGAAAxjAQJUaCI8Ag6WEgsCsUpiFHPhluu8bPtgibdq2k/YnnEjdcn1hAAMYwAAGMIABDGAAAxjAAAYwUKUGgvFfeAmhIDCrFGamwVohz7ftx6iMGT9JmjVvLrcMHSaff/09dcx1hgEMYAADGMAABjCAAQxgAAMYwECVGAiPAIOlhIKArBKQhRzylWfff4r9Ty7s20/q1q0rs+YsoI65zjCAAQxgAAMYwAAGMIABDGAAAxioEgPB+C+8hFAQkFUCsjzBWqEvs+njrdK5S1fp2asPdcx1hgEMYAADGMAABjCAAQxgAAMYwECVGAiPAIOlhIKArBKQhR7wlWf/dTTirdt+lNVvrqWOuc4wgAEMYAADGMAABjCAAQxgAAMYqBIDwfgvvIRQEJBVArI8oRrLCOeG6xMDGMAABjCAAQxgAAMYwAAGMICBrAyER4DBUkJBYGUFi6COoA4DGMAABjCAAQxgAAMYwAAGMIABDOSvgWD8F15CKEgoSCiIAQxgAAMYwAAGMIABDGAAAxjAAAYwUEMMhEeAwVJCwRpywkno8zeh59xwbjCAAQxgAAMYwAAGMIABDGAAAxioKgPB+C+8hFCQUJC/BGAAAxjAAAYwgAEMYAADGMAABjCAAQzUEAPhEWCwlFCwhpzwqkqb2Q5/2cAABjCAAQxgAAMYwAAGMIABDGAAA/lrIBj/hZcQChIK8pcADGAAAxjAAAYwgAEMYAADGMAABjCAgRpiIDwCDJYSCtaQE05Cn78JPeeGc4MBDGAAAxjAAAYwgAEMYAADGMBAVRkIxn/hJYSChIL8JQADGMAABjCAAQxgAAMYwAAGMIABDGCghhgIjwCDpYSCNeSEV1XazHb4ywYGMIABDGAAAxjAAAYwgAEMYAADGMhfA8H4L7yEUJBQkL8EYAADGMAABjCAAQxgAAMYwAAGMIABDNQQA+ERYLCUULCGnHAS+vxN6Dk3nBsMYAADGMAABjCAAQxgAAMYwAAGqspAMP4LLyEUJBTkLwEYwAAGMIABDGAAAxjAAAYwgAEMYAADNcRAeAQYLCUUrCEnvKrSZrbDXzYwgAEMYAADGMAABjCAAQxgAAMYwED+GgjGf+ElhIKEgvwlAAMYwAAGMIABDGAAAxjAAAYwgAEMYKCGGAiPAIOlhII15IST0OdvQs+54dxgAAMYwAAGMIABDGAAAxjAAAYwUFUGgvFfeAmhIKEgfwnAAAYwgAEMYAADGMAABjCAAQxgAAMYqCEGwiPAYCmhYA054ZWZNi9cskwq8rpp8FCp7Ff3Hr3k2NZtiv6l9VDZdZ1u/RVxUtaylWmcdfMXOwxgAAMYwAAGMIABDGAAAxioKQaC8V94CaGgLxTcsPkTCXstfGGZpHo9NGmKhL1G3nWv3DB4SMpX/8sHSPcePVO+Tj29o7Q6rk2Zr9p1DpRMX7vttptk+8p03anmy+QYKjqP1lW6uiyW7zI1U9H6TrV8KgO5KM/Wbbr5c7E/R9dvUOa1maqetLwiJvXeke7eku67sHtVJmWp7n/pysPupWWV1ZQfYY6D/6HEAAYwgAEMYAADGMAABqrLQHgEGCwtiFBQ//GsrZNsZeo/Kv2tivQftWEtmFK1HksXGFTVdxpMpNo/Lc+01Ze/LtJ9tnXonaabP5PvUtV92PkoT1m6Oqrq76rKRk3eTlnuq+KcpqrfbLatx5FqPWWVV2TZstZdjN9nc97svPo74r0P8p7/YcMABjCAAQxgAAMYwAAGaoqBYPwXXpLXoeCqN9aW+x/d9h/G+o9v+7JlOrVlmU69LX78y3i/8763rde8ZZm81xZI/m2k+rzXXnvntI5SbSddeUVbTJVVJxVpUZXrZdO1wOK71K1ivXVTVgvZXJ+zbNZXlsVcfZ/NNZ7u2gv7znuf433qltF6f64pP/gcB//zigEMYAADGMAABjCAAQx4DYRHgMHSvA4F7QHpP8Tz6R+3tqVJptNsW8dpy7tMWujpPLR24cK31wlTLFSGgUzvRWXNl+19MGz+TO+56eazvyUaFldGfbFOrkMMYAADGMAABjCAAQxgoLoNBOO/8JKCCQW1RYy2Ngrr+ypdn1be78rqy4qAjQu3ui9c3X70463iDB8lzsw5mYUWO2ISHz1e4v++T2Kbt2S2jK8vTd1u5NsfxRn3sMRWvlbudeRD/VX1PjhPzhTngv4SXbu+zHpzZs8X59IrxZn2pJTEM7zedsTEGTJcnAlTpGT7jjK3UZHjj374qTi3jRTnjnsy3z+PpcjX34mzbKU4zy6o1P2syDEmWo72kq3bfszbfazI8bFshteVxy11Rp1hAAMYwAAGMIABDNQ0A+ERYLC0YEJBbfmhLQZr2onieLj5+A0406ZLya8OlujxHcr2HvlZYqefZebXZWJnl7/1k9OrX2I9+x4usbc3lL1t/lFt6ijS7HhTb87A68uss1i3nmbeSJO2Zc5rXcQfGOee38iPkYyXs8tnM3Veec3dVonzS2bbcn6R2Jp3xRl0865l1eK6jZktX8WONBTU1oK0FOTem821wbx4wQAGMIABDGAAAxgoJAPB+C+8pGBCQf1HHKEgF2EhXYTl3dfY+ReZcMW5f1z6UMX5RZwbhph5I4c3l0i9ponl+lwikW++T79sSBATe+MdiR57ohvsOMtfyXod5T3mQl7OeezpRJ399UiJvflOyjpzlq906zZ+94Mp5/PWReTTL6Vk38PNcnqOTSs+bclX+op+/LlZjzP4Nom2+ldGr3TnNV0oGH3/I3HuuFuc62+RWL8rJNathwmuI4c2do9Lg2kTaHc5T0y9hDjzHl91vLfdUfB7wu9Jdfhjm7jDAAYwgAEMYAADGKgKA+ERYLC0oEJBWnZw8VTFxVOt24j87AYsaVtaxUWcm4e58zoLFkt0yxcS2b++KYtffWNGoZP/WCORuETbn54IdtqcIhm3Fqvk8CcS+5/ER0+QaP1jxZk1t1zH5j/WnH12fpFo65NNnUXqNJCSHbHg/pXExXxnQ7MPPw3OE1KH8bGT3HNsAzfvNPbaWrOe2MVXpJ3Pu0x87sKU204XCjrPvZB2G9G2pyaCwLDjDzm2nNV/lusmFOR3pLrssV3sYQADGMAABjCAAQxUlYFg/BdeQiiY5T8oq+oEsp38uVk4L62S+F0PSGz9ppRhSkXPlz4yrI+WRjuf6wYvsTO7mzIt15fT6+LE9qP/FWfEXWa+SN2GEn96thvemcCsNHhybhwqkW3lazFoQyTt/64k+t9KO+5M681Z+rJbL7pv0UatRIMw03JtwhSJvblONDjMdH06n2n59viMnJzX6MYPJVKrgdnH2IsvBfYj6bxMfSLwfdh+R7/8zrT80+PVFqEayjkLXpDYSZ0S515bh379nVlX5OvtJhTWYDg+8AbzfXzMRLdMy2OndDHlJtxLcd/LJBSMHtPG9Imo4aK2OjTHXsmPNYfVT3nLCAXz595a3nPIcpxDDGAAAxjAAAYwgAEMpDcQHgEGSwkFU/zjGGDpgRVL/XjDKDM4RCV50cc/bRCXaqotzbRPOW8fgs74yYGASQezsOuIndu7XANGxJ+a7a5DQ9HqPt/xRx5398cem3+q9WP6Y8ywLzz7qLSGp9kcnzNpqgllNZj1vvTxbaf7RUll9nvbklD32ZYlTV9ckbwPkZ/d1oe6jA4Co/sYe/d9tx50QA//fkd+irjfRz/6LOn7WMdu5jvzGLN1XBIX56VXdr3GPewu7yx72S2Pfv61CSV1X0xwbZcvwCmhIPd2/3XDZ0xgAAMYwAAGMIABDNQ0A8H4L7yEULAA/1Fb07Dm6/F4A0ET5uiIsZXkJbbhA4m9sDzRGlCDo0uuNJ+1zL7iTz2T1JJQ9yk+9PbQkCnSuK0b7kRP6Cj2MdOM9z8uEjv/ArOOWN/LK3TcsX4DEmHUjLJHU9aRl/URYW0B6dw/1g00vaGgfh87qbN5zDlSK/G4tNaFfZlw7sahEl37bsr9jn6y1Z3fmTgl5Xxh9WVb3Nnt5WLqDBqctA+OZ3AR57Z/i/PiS+YV09aiGszpo7q2bMMH7rI6erT5vsWJbt3ZY4i0PMF8p31H2rLo1m/cekh3HBoS28eHa0IoqKPZH12/gVsPtj6Y8j+DGMAABjCAAQxgAAMYwEBNMBAeAQZLCQUrKeSpCYiK+hjiIlHtU88TNlVmS0Fb17Gu55ttOvMXm0eCI9H/mOAi+uFnyfty28ikz9791PexE88wj8XaPgZNS7UsrTt9LnW3Eflme7kClOh3P7rryGh0Xh2ow1Pn0S++FW84G+hPUM/Te5vFHTnZs6yuR/tatHXrnUa2/eBuR1vKeb8r673zwEOirQuTXv129ennXHV98nc6b+mAMLpP0SNaBL+fmRyYOv0HuvvnrY+w93FtZfqzmJDQfh8fdW/SMTkrd40qHPn0K/c7rV/dH/uyy+vUluk0/syCGhUK6mj2GgyWda75nv8hxAAGMIABDGAAAxjAAAYK0UAw/gsvKahQ8IbBQ/hHXJbBTiHirfZ93hETp88lgVCm0kPB7TukZP+jzXZNCFg66mxUyyM/i3P51RJp0k6c+c9LyQ87xZk1L+VLWxdqPWoLQR04xHl4WlbXjj6mHDn4n24dxC66zO23MJvz40yf6a7DmZBBi7ydjjvargZTsc1bxPEGbldcHX4cGg5u+VJ0YI7o8R3cbUbqHiOO9uEXT/4hc+4dvWsebS1XwetKW3raQC1lP46lgaV5NLuM7emowtG2iVBa+xB0rhwksbN7mm3ETjsz8VkfDdfWooNvE2f0BHf7sYv6S8n2HeJcTCCsAAAgAElEQVTcdKsZkTp6VItd33XrKTtT9b24I2paadrjUHPeenFbCp7cSWKbPs7oVbL9p6R1eNdXXe/18WFCweTrobrOBdvlPGAAAxjAAAYwgAEMYKByDIRHgMFSQsEy/nEO0MoBms/16sx5zg1RIv/YFYxVaiioowlfOchs1/Rxp+FYaYhkQkF1qsHX+x+J8+pbgVf07Q2B8EX7n4vfMlzM8WTpPH7rCLN9DaD0UV7dFxs0ZnruIt/9tCvg2/dwiXyTwaAnntGXdZt6XKbeS+sidl6fwHGG7Y+jLe88rQajb7/nLqd1aL8zfTlmWTdh24u98567zlyEgroN57GnzTrNI8GeloAm5NTPryRa/2koqCNVm/B3zq6RhWNr3hXnvrESv+t+0RBUHzcO23db5jy7y70539felBQE21DQ1l0mU+fxGWm3abddlVNCweK7p1elL7aFLwxgAAMYwAAGMICBfDAQjP/CSwgFcxAI5MMJZx9ye+PRxyojn37pBi8agFRmKKjbsiGLjjpbEhYK/iyiI8ra+ZKm2qpQWwau2yjxOc9JdOs2cZ5bkgiVbh6WVTDjHazCWb1G7KOsmTz+63WY9NjvsDsy24fvdyQdnz4arK3S7LGaVnAaiD37nGhfe3qevNu077WFoV1Gpxqk2u+8rRdNvefgHmAeQS4NISM/lLjbsts009LvM2kpqPNnEwra7ZhBUB59SjSQ1UBQj137nbTfp5uafg09Qaqpt+tvcVtZekPBaIv24n3pIC86v4bo3nJnqW8AlRzUdbpjyOQ7GwrutttuGdVLJutkntzef6lP6hMDGMAABjCAAQxgAAMVMxAeAQZLCyoUHHlXcj9ZIBF5YuYz8tCkKe5r67bEKKW5rJuFLywz69f6121t2PxJ0fxj2pn3vBsuVWYoGH/62USoUqeBxP99nzh33L1ru8NHmbL408+4oWD0X2dI/JqbzEvDmJLSUNC5/S6znI4wW95QMD53kVlHtP1pJhAyjyvbwOeLbRmfe32U1+ybtvjb+GFGy5kRcz3BVPTLb02fgXY9+gi1BpUlvz0ksY/HtBbnjntMYKuDkTj3jxOn/1USOfiYXdvudI54gzobfmkd5uo60XNj9zHl47nlDAVjHbqKc9tIifW9LHHMnc4xn3UwGt2m7VOwpCQukUObJub56DM3FPQPYhJ6zJGfxTs4ja5XBzPRqX303JmRMBo7p3eg3uKTpib2RUeJzoPgL90+aCh40+ChQihYsf/JSFfHfEfdYgADGMAABjCAAQxgoHoNBOO/8JKCCgU1kAJWApbWhf6j1v/SzvP1H7y5qCcNA/3rt5+1T67KCgd1vZW17mzrxXn0KRN2mPDliVk5qdewfTADYnjCMN2e/+X07OuGgs49D7r7Ylpp5TAUjPW4KBEG3f7vxDY0MCptCeZcca273bDj8JY5w0cljqF037zfpXrvPDM/+bij/xVvf30ahDqzffOE1JWtu9g5vZIegdXtRpodb7aRaQu6VPvqLY8/8JBZp6mnVKFYOUNBeyyppjYUdBa+6NadaeGpIxrrY9/n9DJ9S2r/kqaPSR20xrePZmASDQC1VWnpfjqLl7vvzWAu2iekzqOjSfuXJxQM1Im/jvhcvf9TRP1T/xjAAAYwgAEMYAADxWQgPAIMlhIK+v5xm+9INnywRbSly0H/729k5IH/kDeObirfN23jvrRMg7tze/Ss0D9SV72x1ozO2faI3eSVW3eTL8fuJtGpiemDvXcTLdcAUoPDXNSZrqf7+T3Nvv/q97uLvnT9rY5rnbNtlGc/vQM4OM8uyMmxhu1H9IttpmWXPvJp+oG7+wE3kNHAxpTPf35XKDjsDtFl9GVaCeYoFHQWvei2woutetM93tjzS9398fbPF3YstsyOuBtpeaK7HvtdqqkzeLi7nVjPvmY57RvPDaquu1kiX38nkeYnuGX2O+80dkoXcaY+LjpgindbzrKX3eXMMWVx/et2dcCVsFe0xYm71ptiHrt/ZmTokHm0NWDSvto+BbV15JyFbuvR2NU3ms+230cTCm7/yfQpaLeRbqoDkCRtRx+t1paBrU6S2Mur3eMoif5XHA2GNQgc/7DE70qYDGt5SEtB/gfLa4r3eMAABjCAAQxgAAMYwED1GgjGf+ElhIJZhAL5gLp7j0RwpmGgHHdyypeGhhVpMaiB3GP9dxOZmfqlwaAGkBVt1ee2emz4B9ntgcay28v/SrweaCz/z19+a7ZRXa1EnRGJx3FNMKKBWVV5KWefghV5fNgMDFLaSiza+uRACzsN2kw9XJlZa0Ft1afzx07unHG96aOyuoy+4nMTg2Y4y1buKtN1at+J63eN9mvn11Z62negPwh0z5nzi0SPaeOuK+V8Kc5x9JOt7rJ2m7mcmvr1bDubPgXNYCRab/seLs4Z55hX9JjWZn8j9Zq6Zea7cZOSzod9LFlbdtrBS8xxOb+Y+eIjE902mEFZNCC0LUg9+0ooWL0/+K5xzzmhjHOCAQxgAAMYwAAGMICB4jUQHgEGSwkFC+gfURq+1f3jn0zrwHSBoH739KFHmzCtPC35bhg8RBoemGgZmC4U/GJsIhTsf3nwccJMbz4a9u29/59ktxuP3BUG2lBQpwvbme90nvIcS6b7kWo+2/+chiTaT1+q+XJeHhYKxncNNBJpeYLo48T6MgFODloKOg+OT4RIRzaX6MdbA8ca18enS4On2JLlge/9dWBbCkaPzaylYOz1t91WipHDm4n2kafr9I4G7Vx1vbvd6JYvTKs9s0+lQaJz/S1iBkoJua5jK3a1gtN+G/37W+bnkriYfh2fmCVaF/bl3DM6US9q5I673XL7vZ3a/dRjsGXeqbNoadI+2UfXMxl9OHpSJ7MPOtCIPQ470EhYyz53Hh1xuLR/Rh2tOiwUtPOakZ/1GCc+4m7DfleIoaBp6bwkNy2dbT0wLd7/6eLcc+4xgAEMYAADGMAABvLJQDD+Cy8pqFCwOkKhfDqp2o9f378ekLJ1oD8o1FZ8GvBlcwwaPOpyZbUStGHh8LN2M48zZ7MNO6/d1m4n/y08EPz/2PsOaKmKbO3+fW/e7zhvRkecp+gEw4hgVpISBEyICkgwoAhiQAQRUAQEMWDEAVFQQFBQFEUxjKJgAkUUE2YUVEBBQIkSbvc57e9z/+ur0/vc6tN1Qvftvt19775rnVXnVNWu2lW1T+jvfrW3Dg6iThGihdp9rnIBH2vRe1nNJY8zp1QDBRH11b76OgJ7j6MP59unIHzGuaCVgQmmxgCm3Unt3Xp+kX95vMxaRLuJLdsD5y6+dafrtxD1k4OHu/UZHEO+hfXQAT8FlE5xdVJ9NWytthin1UPk5ptvd+vFtyfS29HbzPKcA7Gg73j8F/92mQH55LP+dbS+k/c541K+JCc+SHb3lK/Hi/sSgrjYA4eq8WD7MABdxe5M/Oq2HQUU5PVMAhAGAPvO++4cVaSYgjyPiSOaqTLrrcVuH1wmoKB8ALEtSCq2IDYgNiA2IDYgNiA2IDYgNiA2UHwbMEOAmbkCCmo/wkvdcAGKDf3bAZFBQfgXhP/BbMYFX4Lo56Uh/tuGGRDkNFewDtGMIRubfUI4KIg6sZiKfpzNeKpaVwWqSIE5uo+9qrbrlU8sX0VgioGFpbZxpiLLAmjiI9Hs5EpQ8NbRFN+wVR1V9SloffgZxQ84RvUTP/R4iq/50ddmUJY4+gQHHLp2hIpO7B0LX9vPveTqbp3bkyp2WOZ2d9pk9x3k1sV4ERDDbWfua26ZdXYPN5/LkYJNiG2y7lyd0pGsJZ+l1bU6nKPKlT/CPN739o2OH0Sr47lp/en6qfMsQUF70HXueHhcplSBgs/OIfuBaQ6TEVGqn3rOjVaMLdmK4ZjKV5GSU+ChvXAxWWAZ8rUPKJj4epWrS3zNTxnjFFCw+C/9DHvLo41L27K+YgNiA2IDYgNiA2IDYgNiA2ID5WUDmfCfOUdAwTL54cSsOmwL9jIC/a5zAQXBxgT4huAiDPqFpag/L4dteMo/4jF1wgFBZgzGYgSZ6nwYsR89gDHwV6f3Hbf+VzGrrC++TsvX60Q9t3v1cUEXE/BjD7+J7I++cEHBjDq5bh9OEiHwBbenIv2G3BOKpZgCuEz+5XjMibUb3HbRfnJsZcRkt87KNZQ4zGGgsQ7sS5Dr6NGHVeRgH/3gI5CZb9yW9UEluMhRh1VQEA8LjvvKNoUNMIMOW4cD5bMEBdn2VKAZgH6paM5gCNq4HnK9ml+AgonWp6fNNY/fL9X9KSaWrXD19mMKqqjTYHxirQzzL6BgeX0gmNZQ8mQNxQbEBsQGxAbEBsQGxAbEBsQGao4NmCHAzFwBBQ0/cEv1RgD4BqDPDwT05l++9350RoeOxh/xfmPMFhREVGLo5ddeUD50i7R1mEHBY+pUOyioIuemwBxryeeV49yynaweznZOAC/Kr1wVbAlBHADs2Bf1Ifv6USraMAM68U0/u/3y9uH4cSeS1a2XOlS9HEDBxIrVZJ3fywWT7Jmz3X6C1q0CY7+8clu1/dAMX7kktsqm5g8p/NIlx44n+95JZPXu7zIUuY7uE491UFt9U22Aycj5pjS+ej0pv4Op+thSG9/ozJ/aXsvtNGmjQDUAbsmJUxXYmrzrXkredJvaqq0iDJ/Xk+x+V/v7kvx5J9kXX+GOD4xLk05uXqpvNSdhtpIkiu93lGo7vmmbateev1Bd24884VynWH2KKYhxDB6RdigGIIC8Fm3T8u3rbqAKn23OJlAw8f16d4xJnwjc5QQKsi/BI486utqZx64thK2/lAffSzI/NWp+4ms3kPrHlycCe1XvF/zzAyxyuFew57xSo+asqnOTJo/3zdqNkeYHuwXsvgMJ70tf9n/I/QnmOb6Z7BmzQvtMrN2oglvZVw8jFewrpO20cfnUtRcvUf+ktEfcTPBNHEWmXOrY02ZQcsy9ZH30RZXHZT/7orNO73xQ5bYKNn87bbK+XkXW/IWUWPVD6erpY4sFmxfpT2xBbEBsIGUDmfCfOaesQEGw5WrzAxTRhE/eY8/IoCDAumyZdcxIhK/AMIYgyhffHCP8yM5lXbJmClY3KAjgJAXkKEDr0y/dcaotmFqZqpcKjJHLXGTIaD4FE1t2VPZ7/1QHGLq7knWHqLtqC/EvRPANmJw5m+KrfyR77utO3etHufLcD4A2Zs5BdwXqZPkC0bdW27P/ndEH92X3S98arM+pe46ouQvf8W0jfnAjNZbEUS1863B/SAE4ctv2gkVKJpIe3jVNXduvL8zoNy0y9fCbMsp1fdR5qq0ooGD8B4dlqSIIp9YlCBTM6Atbqu+Z6Kz/0JHhunEfhu3DCoQEuIhoxj42Uo6gIFwrVCVCu99cSH7N+e+qrGUOa5n4leI/VxgPr59Snl/2aaue8z7PGK6bTQpftfweUO/JPDHEs9Gh5Ovav5EK0HVwI7K+Cf/G5m8fxZDPca2sVxaodQli/rvzZv9G/P6P/I/LEL3UP3j53a59S7l9hsgXq15i+UrfdzDrlGjj7BpAEDPOyzW1L+6r1ik5flJlW/ZvlBwznvDPyGwPv39GZqXfDksBnnCXogLt4R/iqbWEix3s3siqvRJdaxlDDu8eWUuxfbEBow2YIcDMXAEFy8iAmMX34ZFNQ4HByf88VDH45r6WfXTN7j0uogP+JxwURPRh1Ms2mAm/7CAH4DKST0FEIQZTcsw4o8Fzm3lNAQrqHxzaB5mXARdv3MaXfZWTTlFBwSQ5OqaYgnpf7NMPzEM931r6NSU6dXM/pNR//HO4D/CBqrbi8sf1sBuoYmslgOn2uWU7Idqvzrrkjzj44QO4Zn2+LE1HVzall3X2hc7HKYKFRNAV7DYFAu5Wj6wPP1Uy2CYLZl/8b0e7Y2c9wlIwG7nf+A8/kYroy1F7L7sy2odoFqCg/cwLSkfrvMrt8hmgIEBUALojb3F1Yx2R5gMUBHicaHOG6gesCr19/VxAQfmA1e1BzmuvPeiBl7zPVQ5oBFY1mF/ucYkDPqC+m6eVJx+e6fvsCbO15A2Oz1e0jXdfWP3aVp74bh0lWrZ13on451yKie7OA4BU7bD7X+O8DwYNTcvX66SdG97XfqBgYv1m9c9B/INQP6wuFzh99uydls91Ep99lfW6Wr2vVG3GG7cm3Z2GO26D3n5lACvxHZOvw3r3o7TxwIWKWqP9jqTk9Mdopx/wBd/AqW9W+70laW346R6UbwQF4Rs69S2Tder1K534VX2nwCUNvkPhggVuUtSOjaEjnZ0aF/Uhq2t3SpzSkeKHHufbN8phm7DnoDFJWe19N2Htn31hLp108snUr/9VNH7iA8r11er1m2nzDrtk7WbjtgR9/f16+jn+/3LSceN2i5Z+u5rQTi72v2rtJvr86+9o885kTvLoE32v22T4fRjxObtmw88564/+V67dRN//uIW2+z07I+qRy/yVgkwm/GfOKQtQEEw0AEK1nSkIw1LsuliMwoDBA3f9PSFaca7GCBZNWATiNoc5W4dzXRcGOWPjG4f7FRx+eFFsAL7bsI0Tvur0/0Bimyp/fOG/2AlD8IVc517JRQAF49vjZIG9iA80BgUrkmo7DCID89ZgFXU39cBTPvb4gw4/AF7NHjTWxxWPJ0kF2Ei1CTYGPuz1OnyOD1lr2QqyPvhU/ac3noj+gsPcx3/aHBjYhPtJS03sTQQ2ee9jsl98lezHniJ7xuMEEM56/U2lmwIPP15KSWw7G3c/2Tfd5vaLLTmKrchzCAZdxG1X/AEdhSnI/gJtbTsdg4LJ8ZMpAWDyqmvV2idH3mqc73yAgmCQsN5WwA8vAQVr94d22j1Xwz+uZKzBth4ECuJ5ivlTfmO1Zyg/Y/xSBU7kaFcIyMXt2o8/bXxWluuaqm2wL8yjCnwv5Dg/kMO72DqzqztPDMLiPcNzl0uqgnsZ9PIDBfFOzqUfu9cVWY/fXvyB2xeYb1WZPw5ilovuJhmvGxV8/+h+p+3HzSxAtb06dV/hG7AqY4JsGCiI3SjYiRF4vPiKO8+m7eYA/ExzEJZnnduDlL/l+W8p+63qWEU++LleU+Zn5ZqfFDB48SWXUfMWLemwww6nM85sT0OvG0HLVq6u8j1TqHkCKPfR0m9zBsa+Wrk2Z3mAkctWpeS3+wSMNDzn9bkAIAf9ker5Uc+/XbNBya/bnBuwCDn0j3ai9lmT6pkhwMxcAQVDDLnUjOLLb75XEYUB+sG/IMDBrU1bqwPnQ/dzANR+/QdUyfARhXj33fegS1o7QUfgOxAHApAALAQgqHxz5cBE1OcU4ON/7LMrBQKD4xurOrkyEvX+cjr38b+GHxv2ux9RPj6+MvSKAApyIAp8PCkAENtmF72X8YHF22fRB/wT4gMWW3+st9+vko2wzvGftpBiY9Q9XG1DqjABcWV2n/HYvGnyznHu/IItGBSp2SvLH7lRQEFeWwvbeVNzx6AgBzbh9qyPlrp1uC7SfICCary71VM+ICvASvVZRwEF/efGb84kX+YsFxtQ/1yBD6233nX85T35rPpRriKEVxEcykWfDBnP9mH1j41dDqJ4kxMpvnm7eoaof1otek+9r/DOsmc94zxX9z7MzVP5+KcI2IPYxmh49ljvfEj2nJdDj/ghjd12ItX/KbcfLiYdc87D89bLrNLmgNnkmJ/ESWeQPX4yWYuX5PbPM3wbwB/vJf0q329TH3a+bbIAb/mdxGm2oCAYpOwrGaAP/OK61ykfyrhOHNVc6ZnofL4qT46+x2gfFT9XUAXcrxgOfAspMBHj2+tQUgG3DPVc2Z3+P4btqQ8T/vmar0N/77v2A1ZdiqUZP6QpKWBVswfUs+HzN7Ve9p13qx0a2KURdARtyQ4DBZW/Z48Orr6pfN0ntMme8Y9Wpd/YCc4/Ye+ZSPaEyZSc/ijZeLbh/r5vijOu3eoRdmrU5G9M7/zJddW+E37cvIPGjhtP4ybcT7P/PYfeePtd+m7tRlqxeh19u3odLVi0mG4YdSv1uvhSOuXUttT17HNo+qOP09vvLykqexC/9fGbl4/Bw4ZT7779qe9Vg9w8LouSDhs+Usn3uXJATvLoA7LQAW1F6dNbB7pDHmPxloVdo89+AwYpHQYPG5G1PNofcM2QnPvX9avWHYshz9eoz4dM+M+cI6BgniY86sLkqx4MVG29xfZbz5EvP1kuk8/TPvrLVx+YDwCDagwXH5TJGGy3rypDnXzNXVm0o4GC+oeU+g+yCmwyQfkMhO88gD8A5jAupPZZ3dSB/8BmbAWCvcMny9er8j6f1tfh/ojKYu5DngkIluKNRB1lXLwu9sdmEE9vA87xVaRfzQcWHKLDX6QCAwYOpeTV15H1fvo2o7Q2cvApCF9L8MuDg/1/2S8vCLWV5HMvKX2Vv6mQ+dN1LMY5BxrBMyWfz7FijEX6rNoPhnKcP3vYje4PfwYA9NQ6uwfZ+IeP9uwo1jgVuzu1nTGJH/Y+zwY/n4IKsAgCBU/rFDgX+rxkc64CLvno6jeGfOTbbyyi5ONPKyalfdtdlGh5mstS97av3Eb4AHb4pxL8/OayLZYDqCHKPfrEN4UK9rF4iTvX8OeGvLAjvqESXMW7Bd8j6kDbKTBOXSPgiGaviU+WqvcJ6+AdO7PLkjff4WtTkEmc3MHVOZv1N9XFtlavHtV9rdx5tGrnjimh+bmGLghYZ9I9KM9q1zltXIr9l1qnRMPWqj347uO1U9tzU3aXvH+Km8/lGemUaZU6BYDcQXMJe1Bj4B0xRbg3g/STstJ9D/+4ZSfdePMtdPgRR9CBBx5IxxxzrGIGdrugO4269XZ66JHHFEMQ4OGi95bQpAcepCOPOooaN25SVPYg7wr0/r6X60zMoxhzUm6/HcwQYGZuWYGCtenBiy25Yce819+g0WPHuYj55AenE4C8MLlsy9GujpLrfeC8qscTTz+ngEEwE/9jn91ol4P/SLFj9lTnuNnx453HVtW+dHm0WVMPfb3kvPK/bfmYi+HDr0+7H/LRpreN4dffQCOuuLJK/YwYOpyGX30tjRgyrErteHXL9Vq/13DPF+t5zqAgop/Df2qx9JB+S/eHRKmuDQd5CPqRz2UARBSD14fpXugxAhBif6TwuasAQgAXt9yp/KPBR5p7pMAH6O7mtWxLzPDjfDCydL3hZsHqemH+jwBXCWBMK3Bm1Q8Ev232QzMcH2i33Enw3ws2l93zckp07U5W+7MJoIt16lmUOK2T2gLqjVKvtoZOfZiUX2IDyKfYXwYQxHr/EzcAB6+5N40f1IjsS/oqP3TM0tTnz3SOLagAwDjqPdcB80ytw0ntqQJs0I1bKXn/VMXo4jpBqQpWYRgf6xzf+LO7tmA8Ij9+QMOM6MDqH2Hsz/etd10ZU995BQVvHxPYl6n/QuTFN28j6/TOan5gXy7wa/+m3NxU7FYvEmMx0fYs1YaXhasHkOO10VO4f9GvszoXULAkbKgQdlmqbe5MEm3YWkHLV62hT5YupxdfeZ1uG/0vGjxkGPXsdTG179BRMQSR9ujZSwGIt94+mvpeeRVdetnlLntw0tRptPSb/JMp/OaN3aYVA/CSPsOBx6q4Z/Nb80LmZ8J/5hwBBQ0fW4VcGL1tgHNy84XffDJHMkdiAzXLBorJ/GVQEP+JLbcXu/7+kPPaByqCRcY/wu3O56sf/wDZlPuIFCOPyzm1vv2+KD9Ek2PudXVVTMDUt1Zy8HA3n3WMmoI9Vyy7t75dTcmJD1Li5DNz1h/jtAdeWzmGxK+u71+/OVBRk322hdsvZeeDzw9gDJ3TnbYLQAIIRH213RbAXYOmleMJ+J5WDPful5Hd/TKyTnEAKWzbxTUOFSlak2efyChz9QPwlQKQ4ec5yKUFZJjlGMZo9CtXvgZTQKbyx6zp5+pUhDwAwrAXMEkT2PIMsD3lu8/u0btyvgJ0c7cGe/wpYucJrwnbJOac81SwHmYKTnyQkgDFIxxgroatl9+cClOw9r3r/GwhX/k77N9o3aaf6fNl3yqGILYMg1HYus2JdEj9+oopeGb7DtSpcxcFDLZq3YZOPPEkurT35fTSq/Mj3WNV0ZVBQXynmtox+ciD3z/4HjTV9+Yh8Ad87MHXIGQg660TdI3gJZDHkW0AE+6T+w/qh8vg11Cvz/pHGa/fvEAWbfoFcPHOi47ZlNtvBzMEmJkroGDAS5ONMd8pWDJg23S/sKcCBcGQwwNAP2Bw5XCAaZPLAeptsQ+duVRu57AhMEX9jmzZoFI/nJnLc5Tv50FtaY/nD+najduy+gDJ5xwJKCg/MPJpT9XaFvyKLVhkDG6U+OY7Z/vgnxu4oBWCZCmfaNX8nQPAiCOFIpJo2hzFf6H4zxVpB7OP4gc1TMu3pz2qxmL17K3yA32J2b8R/LUmB4+gREg0e9YHQIV93Y1kz38rXUeAXt+tIwTcsPoMoHiTNu6cMlDilyLwGOqDIah83nW5QEVPRQRdXNvj7nP7UltSNfacYho+P8+Jbq/nz5ztyrDuSO033nb1gq9Z+AWEzzUVRAtgMYI4eMBiDiKitxN0DsYgBxNLNDvVZXxmCwrqffgFGoFfTPiYw2G/9Jo7NoCZKo99TwJcfewpty7K9EBwel+5nisXIak1sEePyxnQyrX/QLkkkb3gLYr/4DjNxxqxr2EbW7FT9zu2wSsbvLy/m6fKKpIuC1fZkM/zwQUOx0+qlAfbLzUvUXwKsi5+Kdyp2FcMDDx09mJYXe+War9+JV++A3QbADAERuGKNetp4eIP6IGHHlZswvO7X0gtT2hFB/3zn/T3v/+d9t9/f2rYsBFd1rsPPfPCS7Ruk+MnV28rH+dhoCD6ADD22fLvFLD37ZqfFMCVTYRgyH/y1Up1+AFjprEggi+APfQN4Gzpt2siAYOQQ6APyKE/Xf+w/hF9GX3p9XDOACPaMumKyMkA/kzzgjwehy7P7WJcen/47cIEFT3iZ68AACAASURBVAEFMwFFlWNahHzn8c2R73aL1R5YMmxYktYsBpSsp6yn2IC/DRTrmav3K6Cg/BjQ7aHcz+GHjllV/GOdU0RWr+7xxbfHSbHbUsCBteQztQUUPlETW5wfUKijrpH3/bp0cCuVp/JTAQa8WxyNY7J/IwWC7nIQJSc8EGnc9tXDFMABH3neNrHll+fRlMYPOMbZrpkap4pKn0WQLS/Lz9KBTIA+YMjxHPYxB46zn3vRrcORnb3jgK8+BGzgtpAmp81wxwsmKZhn3oO3GyfHTnBlky/PJ2v5SnUkX1mg8gGCcp6eqki4PmCTHyhYlSi+1jfRGDIZ8+On4/m91PiwRTeqTLHq2ZrfPt6mD13U/Q9GIdiV2jj1IDW8zno5n4eBggrEvn0M2REP65tM1rL96puufek2muu5imCtjZXHIqm897O1AbAJV/+4iT745AsVsfjCHhcpYBDgIA5ELu54VieaMCna+yab/hn38GMKclsAswB64QB7j/OjpBwRmBlxOgAWJM+RgBlIA7Cm+vcB5rgtZjfqEYTRJ2ShA9fzpn5MP66HctP4eXxh8+LV33vN/Qgo6AME6tk8WYVMcXPgKGQfxWwbrBmdRVMbznXffnKevV9GMAXLjd1YU/TN1aeeyN1YVIYgP+MFFJQfB2wL5ZwqdhS2bqaAIz2NH3o82Y8+WZRvJvYHp+vD54rN9AtR8oV5Rr25njeNBAr+QsRBMqzL+kUae+KUjgQfbAlENPUACQrk47nFNtd+gwjBUqy33yfl/y4Vjd06s6sai33R5RlteNvkawCeABV5nGC9cRmnCiRkUBB9ePTDtX3vRLcNxdwz1GE59Gl17ObWx3ZelCWvMW/ndsvBkuN5yCJVLEUffXxBwcuvIrARczpW/WCcIx5/5LTCVj4VecyIfhtZ1me8hZRPrFhNiaNPUGtk97s6TdfkHWNVfloU6K07iW07g8Xr0T8MFOQ5ipqyTenzkVi1VvmlRLRhv4MjmCt/iQH1II/50NuXc3nf58MGABCu+XGL8ks4ccqD1LtPX8UgBDjYoEEDOunkk2nkzbfkLWpxVFBwzYafFSDGrD0G6sLGzAAdgDNmzEVh/EEO7EK9H2bWQQc9X9cB+QD+dECQyyHPTEBvOQN73nyW5ZTrIUUezwtSruOXon8AnRgXMxlN4wgCBaEfxuDXR7Hzddwu6Lxstg+XG1Wz2AYg/cuLUGxAbEBsINMGBBTMnBOxk/KbE/uZOb5gjfIvVqQAI/a7H/nqlUDkVIBZi5eQ1bt/5XHeRa5MWn6qjonJZ7LZ5F33qHbAXjOV63kqQANYVIhQ6wFDcJ284VbVlnVuD7Ut11QHeby1EaChXx1vvj3pIXe8YFt5y/mag48AJOM8PcVWaQAyiYatjOWqLpiC731MCMqigzc2/FNinPCTeFJ79+Dtxgzg2PNeV5GAE4c1S0uZlan695ShbhCQ6wUFFfBmCkKRJBUsJ/nEM8Yt8/pc5OscEXV5npQ9GWzD1NdO638z2JZe9mXYdWLdJv919NFD34Lu9R+qQMJdDiIdJLfnVm7LZuauaTzISwMFd1gERqJiFqbAYbgysBd/oLYy85zZw25w8pD/0qsEQNJa9K7KQ5AUv76C8sWnYPm9n4LWsyaUbUv8Sp9++XUagxBbi/MVtTgKKMh+/QCEAdjyY8yZ5hsAHerrZX4MOa4D4AuMPD+AjhmE3nIAbJBDObdlSr36e4E+k4yex/W5HQYI9TpB56y/n55+oGDYvAT1WV1lQUCgXiagoM+LtroWSvqRl53YgNiA2ED12QCDgmBuYqu3zH31zb3Mdf7m2vpiuQte8A9yPQV7yL5tDMXXbiy6jastffADN2iYURcViARBKyKAeUE2BJCC58DkJ1CXTU5/TNW1rh1h1KmiwiYFsti/mctT347w2YY+7auvC6yn9211c7amYo28ATb0evYdd6st0YhorOfzuXX2hc546x5Odv+rFfBn33IXWddcR+gj0eJUdz54XpCCURnfZGZQKIYf6oRF9l22QrUdNdAI64yUQcGKPzcgZlom1mSyNVWkYQBQdQ9XPh71NvJ9DlAP/vjifzvKWc+hI7PyI6jWMQsmpb4efJ686XbjOpvGii34iAKN4B32088rAM5bzzqtkxoLInqzP074Hk3e9wD5bjfXfhMxKGi1P5fiTU502sI2bR5nii1rT5mu8uBHk/uBLtYFF6v8nAPc8D32yVKnT/jH1PST8/y9T2Quc5tLnUE4YdIU6tDxLDr88MMVi/D6G26if7/0sgpoku38hoGCYPcBaIPPPL1t9qHnx5ADeAhAED4IdTmcM2MOjD8TsId8AGbwDeiVxTXyIee079RDm5AD4Ognp7fFwB5YdxhftsAeyy/9dnWaP0C9D9M5Mxkhz+OE7npdEygIOa4fZXx6e9V5rgN/QecCCsoLJs3oq9NIpa/cXkIybzJvYgO520AQKLh6/WZ6fPazVT5m/3sOffzFsqIcny9fIc/0WvJet5Z8TslrRqT58HN/sKd+uIMJh8Ae1fnMAECC7c3cZ/KOu9WP+uTUh5UuACTSjuE3uz/60/K1eibQiNvnVDGRUuNWfhb97CBJbhRbbDlk+VxSxTQEKAgmnl9/nnzeOqx8GnrKoraBehxcwrvmQddqy3FAn4UGBa1lK8i67EpnvVNrBdZhYv3mND+TyqfksBtUPQCvuA48qgh+J596ztUp0exkyjqIhhaAI2j+g8rCtvO6tgH7bdWO4PfSz5eiAg0ZvIN9Ll4S2T7RD+qD8enVN7FspcpTTFFEeP55p+vL0+vPL8mBggCCB9hcWJkwBXP/3gmbWynP39wCIFz1w4/08vyFKpLx4UccQfXq1aOuZ59D902eklVQkjBQ0MT047VkYMwEqDEb0At4sSxSZswxMMhMP8jq9fzOuT50BLAXVY7bY/29TEYuD0p5XrjvoHFyO6wvMwT52qu3FxT0q8ftllIaBATqZQIKVuFFVUoLLrrk78EucylzKTZQc20gCBT89Ktv6PzuPajL2edU6ejcpSud1u70ohyntj2NWrRsWW0HfOmc2+38ajsuv6IfDRw8pODHtUOvo7HjxlfLMW7C/aFA9LNz5tKGn+O+H+UAVRDFFxF1AS6orboMuhzcyAnmUQ3fOwp8ANNMC9CQ6HSuAhLshYtJbZHUwAov6OB3rYOMQc9n+5K+LpDhF0QBUW65HwCrQe2FlSkWFoJ3YCtvlPndWRm9NQygC2ov/tMWdww8Fk6xHdi+qI+KYpwcM15F6rUXvkNxAzvE24cOCiKSMcAy02FPmOz0X/dwYznLVGzdSfFtFWQPv4kSbc5I0xmsvOT9Uym+5kdSoG8OdsFjTvObF2UduM6W7WTfMdZlCGL8ymckl5dgqlicmCswKFeafSlyRG+eH7UdPmQsuDftAYOd7ejaWiRan05qu/kOy/HZB1bv4ccTQHhsr0cfAKjte+5Xc2kPv5HsvgMVaMn9q8A6Wv/2vPlk331ftCMFDsOnYFSZxIo10e5HTSfvvSDXNfc7sJBruzNJKpLxwsXv0w2jbqULuveg4447njp17kKTpk6jpd+sCrVNBgW7XXBhWl2AXACrvJFxveNhn3rMJASLDXJgtYUBZcz4Yx976AuyYXK6DgDMIA9QEOd6WdA5+gCgh/6QgtEYpV/U0eclqp9EyJmYjNCZx422oLMOCjZt1twtj6Jf0Jiro0wH/oLOBRSUF0Lkm7U6DFf6kJew2IDYQCFtIAgUhJ+Yb1evo6++/a5Kx9KvV9K7Sz4tyvHOBx/Ty6+/WW3Hsy/MpXvvn1Rtx7Drb6B+/QcU/IAj8VNObVstR+s2J6ZFNeTohnraqFFjWrYiM3qn770S/4WSE6e6IEyi5WmESLS+9fP0LRTftK2yzzU/pfkgU4Bg/JdKn2PwO7b4A0qmouOCfaR8lKXy9fOgbbb6mPRopgoYMYxLZ4VV7LSrNCdqXrMBBbEGKcDFvmdizn1z9F8FyLRsq4A567OvKO6ztUufo6BzHRTEdlrWNdcUEWeVThrIxG3FjzvJHX9VQUG7Z2+3raDxecuUXEo3MO/AfPPWKbVr+O3DHFq9r/TVNfnwzLS1SxzbMvT+j8eTaTK8Tsnxk9x+FIgOELDFqRTfsNVYn+W8qe5T0Mb2bINN5Csv/sI8+nzZt6H/bOGdAY88/iSNuvV2Ocp8DkbeeDOd3/3Ckjrad+hIDQ49VL3jDzzwQDrxxJPS9Lvp1tvc+4ufNQwKtu/YKW0LLYAvAG1RgCj4HGTmHMtlA9ChLvpCG6xX1JT9+mUrz3ry+NB3lPF65VhPzjeNG32gbdTh+nrK5dABc6mDgsc2buorp7dRKudBQKBeVjagYPceFxkXrVQmXPQQIENsQGxAbKD0bSAIFOT1W7dpO425Z3zB2WjVwXgreB9XD6a+V15Vbcdll19BF1/aO+9Hz14XpzE7257WjlqfeGK1HK3atKHjmzULPM5s34G++d788cp2a0rBHOQf2goAqYYAJPZ1N6o+7YuvIOuFl9V5/LgTfX205cunIMavtk3ufZjTv08EZuXbEKAKWE4G0DCbvESb052+fPz+mdribb92rz459w92m7uub7ydczte/dJAwQVvkdXnKvNxvuMvDjr41ulzFSV+cJzL21OnK1YggEvFGgPbTAMFAVhjmzuOJNtMg6YE35mczylYaOg3efPtbpnyr5fFWtpzX09nst1yJ1VUw73hne9srwGsIbo4xg9fgn7yViqqtN3rCoJPQFUf8xYyxuToe1Tk8sTKNemBRlJzy2tnnddT9W3fO4nsaY8qUNp+5AnXJiFfsWWHuucTnbopnRFohfVFoCQE2YlyWFcMcNuNUh91tn34KU2dPoOOOOLISMfhhx9BB9erl9NRv379wGd32LM9l3L8wwrvhOo+wHbDu7JUj16XXFrwfxjm8k9J6NWqdZuMf/5hi/Fto//l3hd8fzAo2LnrOQq4AmMO21vBajMBXCznTdn3IMAv03Zib339GixDAGLMpGOgTq9jOuftv9h+DBmAbmjnx63+bkz8mIws7zduyAXNC+S5nLdDs86sV9C4HPmf1BosXvK58kMOX+RgCjKDkNsr5VQH/oLOywYUHDHypoybppQXQHQrfXBA1kjWSGyg9tlAFFDwu3Ub1LaPXD7+RKbwLL5CzPHAqwdXG9sxF2YlfuCuzzF6JwAZgAI49B/mhXr+YSuz218q2IE94mYHRLjuRrW1Gdub+eAou5DhPFMaTwFMYXpbp3dR/fv5aGNQLoktsFkASaa6iVM6qr4AvpjKTXkMmmK8KoiIKfJuiF46wy2BoB8h9aOW66BgkIzqE8Beg6ZZ982BRtJAQU1/N0DFraMz2wZ4eMAxzpwveCuzXGvHpD9ANQXGaiw1xRwNkTO1VYw8ZdMp3QGSmnRQUYURlAPA6cMzKbF2gzpX9obowxHHyoFGdKYgBxWxBw7NaCfNNYDWh9rKWwWWci4+BbfsTNLEyVMzQBidfZ2vc0SdPeLII6v1aNL0OGrR8oRqP1q3aUNnnNm+aMdZnTrTNdcO9T0GDxlWNLbn5AenG5mpDz7yGHXpejYdd3yzDHts2fIEmvnUMxn+BhkU7N6jp2KpMWPOC2yF3cuoD0CQj6iAIgN7YMgBGIM8dAjrT5fT6zJzEO3p+XwO4A59+Onnx/jj8fnJcfusF1LkQZ8o49Hl57zyhgsKtmjV2jgOrl9qaRAQqJcJKKi9uEptEUWf2gdYyJrLmosNFNYGGBTEBxz+44ctAd45h8PoH7fspHUbt8lRS+Zg/abttHmHXbLHlp0WwVeR11YjXQN0+nMDB0iZ9UxaGwAWwOrJOrBCyLeTisarAS92CozwAjIAKqIe1tKv03T3Gzv3bXXL3GFiv/iK25+K4BwyDr8+OJ8BSKtL90i6QQ5bMBnYwtgTXbpT4pMvnGiyEfVJHN3CHYdiWkaUY7390mKDgvYcbX3O7ErJaTMosSrlN2/rTpe9ljiqhbM1PWTcmJvkmHsVqxD+FRUQCZv7cwOy+w1Sa+E3F6WWz0CsAvcee8pob/CjCWaesqtjW1J841ZVj4FoFe0ZDL6QeUO5ERQceYtqG0zVxJYdZN8+pvK4fpRrk2n5t49xXARE6NOkVy6gIN7hYFa/9uaigh/zXn+DHn7siWo94IcWDLPqPuAjrxD/lIvaZt9+/UuWpXhetwuUL+rmLVqmsVMPO+xwZ+vwQQfRyaecmnbA9/RFvS6hlWvWp92TOigI4AsAFoAx+LkLA8D4HkI9MOwAuLGPPVyHAYsMoOkRjAEMIiIw9PCTZ4COgTfWg1Nu11uOa/gfDBqXw9jboOpx/0iD9OF+OUV99MORjbkdLg9L5y96V0BBHUE0nYdNYj7KcXMIUzDHHwM5voTzsW7ShqyZ2IDYQKnZAIBA6BQECpaazqKP3EdsA2D6gS0UFSCrSJKK9MvAm86KwlZbZroFRuvN4Tsi8emXLkCAvl1fbdi+CD9+2sE/+hVQpuXrddR5RLZR8r4pqu/4wY3SfmjttP7XjdQM/3E8p1VJVUAV71bYCPOlosam2Fy8NtDJXvQeVexIEKL02s/PJXvcfZQcP5kQKMT1CQlwWANT88X+hE85dzv0/GAWHgNU+WYKwv8ggkno48M5ArmoCM+pcVsIFhMyzwrwPiIzgi7aU2zFEPmw9qu7HNuloTv8+fn1rRi5qTmCT06up7P4wMKtiMBONYGCVpcLlA7YupyNH0jVVo7zzc+HCtwvObYhcjXjHQqwd92mn0vy+GzZtzRk2HBq0MDxH8hM1EPq11dA6rQZM42+qr/+LjNYEIOClduHHTcMfow5r30DYAPzDoCgXsaMPD9ADEw+yHmBO26DGX+mcgB0pnyWRYpynREIPXDtp48uq8vzPHjH563vveb+wvT0ymFedKYgfAp665TytQm/M+UJU1BeMGVl2KV804luNeOjQ9axZq+jgII1e31r+v2r/+hHkAtEdbVnziZr8QcEoCS++keyvv2e7Pc+JvvFV8m+pF8awJJYtlK988EMBNtKB19U4IA8fRPZYDJpwFVy4oMOEGhoP58+BbH+1jsfEkBOBaJoPtTsNxa5OqFOPmxFMa8wzt3q+Y7Prx/73Y/I7nm5q5M+X6bzxHJn7RSgo82t7eM70a9fU7712pvOVuBUu4g4G8SkLBQoyLohArD92GyCX0pmufKcqLwIAHEyxWrDdnEVnTg1NsWa27I9L+vP+hY6xdZ515fgpIeMuiv/nbBDbEtHMBLPvQZ7ix/c2Ckfcr2vj0+W84KC8W1xqtjvSCWPexbXySeecQ/dTYGej3MVldyjD/cTlgooKO/sMBspVjnANwRbg+/mDh3PUoDggSlG4CWX9Vbs0UXvLVE7TrZW/JJxT/rpzaAgAo0AAIPvPNRlxlwQ4w91OHIuzvU+vJGFuV3UYSCRIxbrcvo5A3sMrIGFCEAQfg/1en7nAObA2EPKTEa/uqZ89AMgEUc2fv30eYFs2Di5b56XN9750GUKcqAR7/yyTKmlJgDQlFc2oCDo2aU2yaKPvKjEBsQGxAbKywYEFCyv9ZL7K329dJ9iDJJETZPPveR+R6lIoBqwhDYSy8PZV1HWw8SCYx0VWFiRdPVAewAxUe5l9vn2Bfajvm0x4jmz+tBXmHx8dfp2Lj9dEp3PV7qr+Yv4o8jblv36QpfByPPkTRXAmfjVmbckpdUHo9DbZjbX8EGn5h5rcOjxlGh2sjsme8EiY9vwGwlmY6LrhcbyoP7tlxc4660HGjEBRjttSk57lBRDzGurzU6moG3TAMUxh2AyKrAbUa8RoTjVjtWtF0WNaO03FqwbgmsU6nBBYNwjZ1/o6p4B3icpLdK4dd5FvlvRk9Mfc9uxLutHFZ57UR+rFxRk0C/+j6MrWavauulsRL2dqp6rrfVYN2EKZn2vVXXuRT79/avPx6sL3lK+ApkZ6GUE/hQQWENvx3TOoOC53S4wrjkz/hiY09sAmw9Aop7nPWegS68HYA+y3rqmawYGuS+AbNkAZCyv92/qx5uHPtAXdEWajTzrijaZERllvDwvevRh+BRkHTCXXj1L7doEAJryBBTUXmiltoiij//DWOZG5kZsQGwgFxsQUFDsJhe7KRUZMP3soSMJoEaiYSv3Bz6DHRnpbvUIbDYvmwwsn3iTNq58ou1ZvkBCNmO3H3/aBXEANIGRh+28asuiBuxYp3Ui+5K+ZA8bSfatoyl5172UHDue4Pctedc9lBw9juC3TJXdfDuB9aWim+KbDSwxra1CnFuvRPtHtH3nOKWLivZale9J+zeyvvxGRZRN3j+VVBTYB6aRBcDQEGDFnjdf+cez+18dybee3xom1m0kME4xhwj4ohiAO23i6LVg6Vkdz1WMVKyN/cA0Sk5/1AHCZsxSdgXbsmfMUkEt7IdmEIJR2BMmq63Pahs5okJvi5P11mKy31vith1v0TbtxxR0wZZXe8o0sq+6huKHO1F2WTdsKwZTVm1ZxvrvdyTZA4aQ9da7ae3Ef9pCiWNbqjEpEIzXJfEr2Sn2INsM7FBtTYZ9jbpD2Zt9211k3zaGVDpqtNquj35x34H1xnOpwLcC2qE924kubGMrd6ofFU2cxwOgc8FbaWCn8qepsWNZVzeFzL0TXfYlGLWJFavdMSW++Y6sDz5Rc8p+L8HyjW/62fWDaU96SMmAoZx2PPBQpZ7eMlwDDGbd/VLcB+98qJiF1gefKl+b9k23OfYJMNJPTvJlbgpsAwCk3vvoM3pi9rN0ae8+1LhJE+UfsCqMQD97ZlAQgUb86jDjDgAhA3Jg0QGsisKgA5gFph4YcwDXwC7068uUz8AewDm/ACImObATmcmI/tE362+qr+ehLsaH+tCf2wkbr2leII+20Iapf+Tp8+IFBbkcY9B1LMVzEwBoyhNQsMAPkVI0DtFJfhSLDYgN1FYbEFBQbL8m2T4AEAWkPPeSA9jcfDvZfa5SAEfyyWcp8V3Af/7xA/yFlyn5+NNVZk3xnFq9+zs/4Pc7ihRjkL+x4r9Q8oV5CmBigCPb1L7qWufjG0zBgUMLeliffRX5Q18xznINAsPzU6QUjEm1Dnsd6viIS+kB335JgEdVBL3sea+reYSPRG9b1rk93DlWjECfvux7J6VtdU2s3egGweA2kw8+4rbFEXLj+x1FFQaAzProizRAnNuIkgKoZluHDYJVWaiDwU4bY4MfxA7nuH1DBwRQ0XVW90dEO7Tvd/xusrxi+SG4yHU3prWJcnv+QlKBggAcI/Kz/RvZ/34pox635ZeqIDYhdh5P/D/fdpX/0xB5XhtJ5T2fLxsAePTQI4/RZZf3URGEEWkagVHYR2BVGIF+OkYBBSEL3ZgxxyBdNgAdgC3I4zABY376IZ/ZigDWspGHngDbvPoH9YUysPrQl16P9Ue+37jD5gW6QH/Mpd425/O8eEFBrgtwls9LNTUBgKY8AQXlBVPyxlyqN5noJR8dYgPlZwMCCpbfmsl9Vj5rBiYjfvz7+uzD1lcwuT77SrHg7FnPEEAPsOPseyYGHwuCg1+InWRvJ9bny9Q2YMV4NHwPA1QGsAeGoGJu3nQb2dePcnxZDrvBYc8NHqHYdmDceQ/4uFTrYv9GiS4XKNYqwC34BWTQC+UAVtXW5WNbKsBPMUVfXkAIhuO3rvabbyu2qdWuk2Iicr3EVyvI7jtQ6ct5GWlFkgD82nNedhiOYDbC/sbdpwKdJMdOcJirYK9qByJHZ7RlmLd818F2dm9wITD8EHQE0avhE7KCt5dH0AdBd+xn51CizRlkPz/PBV0RiAjMYhyIYgy2JEBArIN99wRSrL1fiMAABYCY1THpwUhzZ13eXwVAAgiojnadye7RWz0v8j2v0l72z4yaPmcKaPr8K+UrEOAfIgYjgnDLE1rR0BEjKRcfgdnOWVRQEO0CzIKPPgBbAMCy6Yv9+gFUAwjGAFhYG+iHIwZDBrJgzHmBNW876A996cw+yICt583XZRnY+9FnSzb7GdQjJkOe5bz5ette/cFkBODpHY8fKKi3VarnJgDQlCegYISXZ6kusuglLzOxAbEBsYHsbIBBwXmvvaGcBiOVOcxuDmW+ZL7EBmqQDdi/EUCiYq9pzj7+IgQdKfbYCtW/YtbV4vEXal6l3Rr0fMvid/6yFd/TNdcOpRYtT3CjCMNX4Mibb6GPv1hWbc/IrEDBVMRggIIA1rKxXZ0hB1lchwGDAPZQz8uQY2adHzCIfMgBcPPqiD6ZCehl/DGw5833tsH1kKIM9dEfX3vre6+9zEfvOAQUNMGInjzvpBbievfd9yAJNFI7H9CFsCdpU2xJbKD22oCAgrV37eW+l7UXGxAbEBsQGxAbEBuADYAVtmL1OpcV2LrNiXTQQf+kv//979SseQuXGViILcJBNhgVFGSg7d6JU9zIuPjGlSP6HABjanlCa2ULDIwi1SMzY60EFPQAgKbLIKPOVxmMW0BBeYDny56kHbElsYHaawMCCtbetZf7XtZebEBsQGxAbEBsQGxg9frNNGX6DDqtXTuXFQgwsBjMQK89RgUFAV6BYXfdyBsFCKwiGPrhZ18qZiEDg15Gox8oyMCsl1noXdNiXpvwO1NeWWwfFlBQHt7FvJlqet/rN2/LoHLX9DHL+GrvM0VAwdq79nLfy9qLDYgNiA2IDYgN1E4bwDbVjz7/iiZMmkK9Lr5U+QoEEMhgICIJw2dgdTMDvfbIoGC3Cy40/j5jP3jYsgvZtRu30eQHpytwEADh4GHDqXff/tT3qkFuXlA+yvRj8LAR1OfKAdRvwCAaNnwk4RrtDbhmSFo9XcZ7jr4hgwPteMuDrq8eMkzJQYeget4yHnf/QYNVn+gbunvrea+feWGu8iGI+QRDEACfNzKyCRTEOnAEZC+z0Lumxbw2AYCmvLIBBYs5mdJ37Xx51NR1n//W6OQ92wAAIABJREFUYmrUuAkhxRj185o6ZhmX3MNsAwIKii2wLUgqtiA2IDYgNiA2IDZQO2xg7qsL0vwFAgysX78+9e7Tl954+72ig4FshwwKtu/YyegTj/33AZRiGW/KPvbAJOQy9psXhdXGvgNZhgFIbissZQYdmHdhdb3lPD74BNT199bzXrMczwtfB40XddGPd3ysP+ebQEGTnFenUrg2AYCmPAEFs3BAWgoLKzrUjhdXIdd5+ao1dN2IG6hu3X3VAVAQeYXsU9oWuy0VGxBQUGyxVGxR9BBbFBsQGxAbEBsQGyisDSjg5/OvaNStdyhW4IEHHUQdOp5F/xo3np6bM4/Wbvi5pH4DMSjYoVPXtGAZYKMBpPNGxvWzH472+/X36xW4GFWO24M8Rzb2i/zLdb0pg5LMuNMjDnvr8jXWCSAcZHAOYA6gIth4uOZ63tRvXvT2/IBB9Ic+TO2zPMqxvRi/H3C0aNWaEPEY+VHG5dW3uq9NAKApT0BBAQV9b7LqNlrpr7AvRZ5fMATP6tTFBQUBDuKayyWtnnWQeS7OPAsoWJx5F3uXeRcbEBsQGxAbEBsQG6guGwCo8/b7S9yIwg0bNqJ+/QfQtBkzaeUPP5bs7x4GBbv36OlG0QVjjll7fgCX37wCvAKrzRsx2K8+5zOwly0jjuUQARhrAN2hQ1gEYb/xAbiDDn7j9pPjcbC8d/ysF9fzS1FvzitvuKDgsY2bOvpst0rWhvSxmABAU17Jg4JM19QHJ+fyQhEbyM0G8DJkhqA3vWP0mLJ4uMna57b2Mm/OvDEouPjDT9QL/omnnxO7l3+OiQ2IDYgNiA2IDYgNiA3UIBv4YcMW6tO3H13R70p6+LEnlL/AdRu30daKX0p6nXVQEN/uYOkBFMMBwC2b73kAaWDeAZTLhinIwB6ANLQBtl4UZhzqm/QEsw75a3xYmejPTz9m7JnK0R/08gJ++hwxkxD1mPHI4/MDGnV5nL/9wcdpoGBQf17ZYl+bAEBTXsmDgog6zD/iij2p0r+AEeVsAwD9dCAQ7ED2L7jXXnvRn/70J7rp1jtcFqH4GhR7L2d799Od3yf8Dyc4Z/arK/lyD4gNiA2IDYgNiA2IDYgNlJ8N7LB/o9U/bioZX4FRbcgLCgK4YlAQaVQgi+XApEPfzJgLkwejzwvsMeNP9e/DkDPJ6WP2A+IYSAwD2pgRyPW849P7Mp1zP64ePuMwyfJvBvyGwPZhU51SzTMBgKY8AQVr0H9EStUYRa/CvUgROXj+wnfokZlP0i13jqGb7hhLvfoNpJ59B1KPvgOpwwUX0wlndKL2nbvS73f7A+3233+i3/9pT/qvPfemY1udQv/9l7q0W529Kfa3+vR/9tibfvd/d6W9995HfA3Kc6GsXnjZPGMEFCzc8yibdZC6sg5iA2IDYgNiA2IDYgNiA+k2oIOCAL7AkAMgBv91APZMjDnvHALE48i4OEc5M+bgJxAAGa69cgy0ATjzluF61dpNRsYfdAMTD4xAkxznoV3orwN7uPbrj+WQQl/Uc/pxfCtiXkzj0OX0c/hXBLCJedTzw84//eqbNKZg2DjD2qvOchMAaMoTUFB+/Gd1U1SnEUtf6S8Jng+w+wAAnn5WFwXqAdjbpU5ditXZN/PYY2+K7fIflccf98ys07wLxca+Q7Fhsyi22+4U+69d6Xd71VVtow8wDDlSMesgqXltZF5Kf14EFCz9NZL7SNZIbEBsQGxAbEBsQGygNtoAg4LndrvACGAx44+BNe8cAQQMAr6YMccMQl0egBt86Ol53nMAc14mIevEAKRXRr9mxh9vKTbpodf3nrP+0NVbFnTN84LxefUPkkPZywvedkFBMAXRN9qIMt6wtgtdbgIATXkCCgoomNUNVWjDlfb9PwAAzp3Uvks6qHdIU4pdOoZiHQc4Ka51cHDXPyiQT4F9F91OsZeoEgAEGKjXhSxAwf/8HcV2/4tbBsARwOMxjZoIOCjPi7J/Xggo6P+MkeevzI3YgNiA2IDYgNiA2IDYQPFsgEHB9h07KeDJu92XwS0/UIxBMz/QEGvLwJjeNrPwoqw9g4CQZ5AwLJAItwv9uX8Aa7oOXCcoZVAxW2AP88Fzxm0EzRHrAF31QCMABXmOswU0uc3qTE0AoClPQEH5kV/2P/Kr88aq7r4eemwWHd9rIP3t6CYOSMfg3/kjHSCweWcn/2/1KYZz5AMkBOsP15z/yBoHEAQo6D0mfeHUhyy3B2Dw0OaVYCPaQ9/1m9BeB9ZXW5THT5pCy1etEfuRZ0hZ2YCAgsX70K3u56f0J2stNiA2IDYgNiA2IDZQTjbAoGCHTl19ATMAa2DaAeTSgS0AbLw9OGzMAPN4KzIDe3pbQfL6VuRswTmvrF/wEVP/0A9j1sFIbGk21dXzeF6wzRn53q3IfluQeV4WL/k8jSmINtAmtiPr/ZTiuQkANOUJKCg/6EvemEvxBiukTnPfXEznXzHQAfsA0gHku2pKignYOD1/1DyKeQE/AHiHNKYYmH8A/LwgYNg12sO24z/uUdkXGIWsC9rXQMLW7bvQ1MeeonWbtostyfOk5G1AQEH5cVDI57e0LfYlNiA2IDYgNiA2IDaQqw0wKNi9R8/Qb2oAUwD2wNxjf39RgT3ox6BXLow9BhUB0sF/YdSttAxmAqDT9Q+T5/FBhucWMhg7A4Wcr6c8RtO8+PlpBEiIdhk0lUAjJhjRk6dPeiHOJfqwPFQLYVel2mYL3h4MAA7gHXz96Vt8AcYFgXoo5/qQDaobVAYgUm8Hbel5KMM12kjlg804783F7oO6VOdY9KrdzxQBBWv3+sv9L+svNiA2IDYgNiA2IDZQqjaQDSiIMQAkA6iXLWMPsryNFqAatsmGAXM8ZwDY0B8Dbfp2Yq5jSllXvQx9oi3ooOfr5wzs+W1R5u3I3vKwiMjch1d/nhcGIAUU9ACApkuezEKlI0bepOiahWpf2pWXQrFtYPnKH6hX34H0OwQLwRZdDvoBYBCMP+SBERgE4qEMgCC2CwOwg0xY/bDyY042twX90D70Q1/MIExdA9ic/OiTwhwU1qDvy72Y95yAgvLML6b9Sd9if2IDYgNiA2IDYgNiA342kC0o+OPWCgWqgdUGYI23yPq1z/moh/oA9pgxB8YfA2Fcz5uiHFuUAdRxGTP2mFnH+XoKOZQzkKiXQR5bcVkfvQzbi6MAngwcsl48L3ytt+k9R/8AAnlcXj0EFDShgJ4876Tm+1pAQXlo5tumSqk9BA/Zc++6DrAGkA6AGzP0mIkXBt6hnBmCHGjEu6U4ShveOrou3jK+Rh1vwJKU/vuc3IVe3Cj2W0r2JrqQ+08mfsFPfnC6+1Ej8yP3q9iA2IDYgNiA2IDYgNiA2ECxbCBbUBAAFrP8/BhzprGAHecFzLyMOa8cgD0AdH4BNphh5wX+mA2I9r1t6tde/aMy/bgNHRjkeeGyKCnr7x0f/2YAsQCBRqK0VSp1PNCd72XJ+xQUUFAeyqVyU+VTj/kL36HLrxzgsAMR4AO+/5gZiDRsmzCDckgBAIIhCBCRU70813O0ywAldApqB3Xh9xAMQmYrQvaQpnTunVNp6Q6x43zaj7SVmz3BHQU+tjB/azduUwDhnWPGldXLXdY+t7WXeZN5ExsQGxAbEBsQGxAbKHUbYFCw2wUXBn6fAmgD8OUF2tj3nl8AD8hBBqxAb4ANZsyZGH0oQz5kcW6aR7QHQBB6AVjj9tFXkJzeFgN77HsQqV4eds7y0MFPT1MbzGSE3hgnUpYXUNAXS6wsME1qPvMEFJSHdz7tqRTaAiBYt+6+FGth8BsI5l0Q+GYqA/gGMA6yYAqa6uSal/IXqMDBqLoBIPSyB5t3oUFvS6TiUrC/2qyDDgpiHvAfv+tG3pjVx0Ztnj8Zu7yPxQbEBsQGxAbEBsQGxAYKZwMMCrbv2Im8PvL0eQfIBtYegCvgJfox8Joh1Ltvf0Kq5+M8qIzrXnnVICU/ZNgIVx7t4eA6QSnkUBftcH9B9b1lLBO1P11elw2T591CmEPMJeYUc8yMSL72AwVZzsu41Nep2OeVqF3wmTAFxe+X/CCuJhuA78B+/QdSnQPqU+yyMQ47EIxA+A0EWzAX4A7sPICC8DkIQDCbLcdR+4N+DDxGlUG92dscxmPK1yDGec6Ep2jpyh/E5qrJ5or9Iiq1/gUULNxHbKmttegjay02IDYgNiA2IDYgNlBuNsCgYIdOXY2+9LyRcc/o0FH9kxv/6JYj+zkAoGhiMgIY5PyPly5351bfPsxsxqh+HIthi8FQYGWpgILy41wAmmqygbM6dXEYgnen2IAMllUlKAgDgexTMCqbLxtwj/UM20Ic1KbGONylTl16deE7YnfVZHfFeAGVap8CCsqPg1K1TdFLbFNsQGxAbEBsQGxAbIBBwe49eiqff94gG9jWijyAVrCXlie0dgErAQWzBwWnTH9UbXc23XvMBHx5wdvuHDMoCHYgtiib5EoprxL2Cz4reVAQEw8DL6XJFV3kgZ2NDXzwyZcEQPAPhzVxtviC1QeADQy8qoB4ANoYqAOwmO+twwzyMRsRbMGq6AvZFMD4n3Xq0plndSFspc5mLqWu3HtVsQEBBcV+qmI/Iiv2IzYgNiA2IDYgNiA2UEgb0EFB9MPRd8FKY399eiAP+Mie99obvseLr8ynB6Y/qo5ZzzzvW8/UxqOznlZyDz4yk6Y9+iS9MPfVSPIzZz+n5J55Ya6qz+089dxLgfLoA4euC/SHPHTg9vRynGNcKDfpB3kuf+7Fl9PaRrs6wGpaVwCDb737URooyH4L9XUwyZZCXjAUWFkqoKCwdQSUKaANzH9rsWIH/q51FycgCDPm4HOPQbdcU31LLwDBqgB2QTqgXfSFIx96AxjcbXd1IPIy5qgUHpqiQ83/yBNQsOavsdzHssZiA2IDYgNiA2IDYgPlagNeUBDjgG9BsNIAYGULRLF/PMiGAWD6nOmRf5kxF4UZp8vp7XFkYbSl5/M5xhU0PvahyAxJluPxhc0LM/vYTyMDe3zN7ZlS3afgsY2bKj0hb6pbanmVsF/wmYCCBQSESs0oRJ/qe0EikEj3HhcpQLBJ3xscAJABQaRBIFyUMgbqkOJAxN8ocrnUgW9ABgWRIpBILu2wDNqDvrv+gXapsy/9zz770nNz5pXFg1Xuoeq7hwox1wIKlvf6FcImpE2xCbEBsQGxAbEBsQGxgVKxASMouC2hIuIClIOfOy8w5qc7ADiOGAwZAGumyMJeeQbodOALbX39/XoFTvoBcPCtBx0RAdnbJq7RHvr36o/rT75aqcpNcshD/9g6jXrcP+Q4UjBHOvaTRz7YlgAeMQ6k+viC5LygIAcgCZIplbJgKLCyVEBBAQWNN22pGHK56gFQ8E9/+pPaNhxbQE4AEABq+QAEAa5huzDawznYe1XxS8hgXVDKgCb6BAgZVDdKGZiNTdu7YCO2EpfrWove5fMhKaBg+ayV3FeyVmIDYgNiA2IDYgNiA7XNBrygIMAwAFgMRPkx5rzz5JXjcvZJyMAa5+spgD0w+/Q8PmfGnwlQg25+cizv1R/AHsYHvbhOUIp+eT44DarvLWP5MD11OR0UhGs79JuNvN5WdZ9Xwn7BZwIKCigY6QasbgMu5/7gQ/CQQ+rTwQ2bUeypNSn/gU2dCMFRALModY452QEYwdoDUAe/f1Hkcq3DbET0lWukZO6bmYK4Rlt19qXf/6Wu2KE8iwpuAwIKyo+Lcn63iO5iv2IDYgNiA2IDYgM12wZ0UBDAHkfAxTnWHikAtDDGH0fGZTm2GzDqAAgC+PMCg6iLfAYgWcabMrDGwCDkIANdvf15ZdG/zvjDOCAbhenHbXH/AOe8rEOuY0qZybj029UK2PNjNHplv1i+Is2n4I9bKyLNk7edYlwHQ4GVpQIKyg/xgv8QL8YNUMw+GzVuQnvttRf9rk5dB7ArRAAQZgly1OGqbullwC4oxTjASuTgJkF1g8qgs85sTLEQr/33u2KL8jwqqA0IKFizP6SL+dyXvsW2xAbEBsQGxAbEBsQGqmoDOigINhpAOlObzPhjYE6vgzw/Oa7HDD1dnll8YcAe2mBgDjqyLtkAdAAkAeqF6cn66in6hCyOMABTl0NdZvix70O+1ut5z+cvejcNFOTyKLJct1hpJewXfCagoPwINz5oimW45dzv8pU/EADB7n0GUmzODxT7v7tR7KCjKTbpi/yy+ACqMdAIph2fBwFx+SgDGAgwryr+C8E49EZdZmCzzr409bEnxR7lmVQwGxBQUD7Wy/kdI7qL/YoNiA2IDYgNiA3UbBtgULB9x04K9AK7zW/NAazBxx5AOWbaMVjnZQGa2uC6YMwBMANrLwogyG1xZGSAc1H6YzmkzGRkpmDUfqEr+gMAiYOZlEHzhP4wVi+TEfLMjDT1jznFvLz02ltGUFAfT6meB0OBlaUCCsoPcN8HTakad6nqdVanLiqwSIfXf3AYdX/cw2EK5sMHnw7q6T4EAQjmy0+h3ofpHIAg+kafuYwJMmA4mpiGqTKwK0t1fUWv8v8IE1Cw/NdQ7kNZQ7EBsQGxAbEBsQGxgZpqAzooGCUyLoAtZswxyIc06vwwY46BtqhyqMdsP8jiMAFrpvbAsGOGoK6/qa6ex+PT5wV9om+0p+cb5bYljPMC4M80fmZAfvjZlwIKVuKH5jN9wgtxHovFaPfd9zAuYCH6kzblJZOLDdwxeoxiCZ43azHFugx0gLNR81L+BBtTDGw4E9CWbR5HAoYPQWwZBmuvOrYOQ0/0CVCP/RlG1R06A7gEQxDAop++AAYPaUyHHduUwLrMZR1ERu7fIBsQUFDsI8g+pEzsQ2xAbEBsQGxAbEBsoJg2wKBg9x49I/8WArAGxh2Arah+8niMAPYAqAUx5riunqJPjgQMYI6ZhsjX63nPGdjTmYWQCWP8MSsRqbdNXHNkYb1d5DNwGQSUmvTneYFu3kAjpv5LNc+M4GXmljxTEKAgbo5SnWjRS14cj8x8UjEEL7rvyUomnQ6YAQgDmJYPRh+z7QAyKhCtaX7ARl1fv3PuG0w/9mnoV1fP5/pRgNFUH+06dpZ7XljMebcBLyiICGLZfHTJ816e92IDYgNiA2IDYgNiA2IDYgOFsoFcQEHoAlCPGXNRdWPAjIE0biOM8QegDH2BSaf35ce44zosZwLo0CczCL2MP2YzmuS4baQMOOr1MKaovv+YGYj6GB/Pi4CCmSBiRo6+EIU4F1BQHrqFsKt8tbl81RrFEDzjsoEU6+lE0o2BIaiDYjgHIAZwjLf7+rHlvHLea7QDQA7y+jZib71CXMM3Ivo+pZeThvlKBLMQ4/X6EAzTrXln2nWvuoTt2Os3b0t72eRr3aSd2vlcEVCwdq673O+y7mIDYgNiA2IDYgNiA+VgA9mCggDTAHx9/f36VGTin9Q1A1p+Y4Yc2IW6P0LkhTH+WA712I8h94FrtMcMQs5HCjmwAXXATi/nc/YZyIxAjhgclQHJwCDq87xw22Ep9GdgFKAgdIaMgIIZEGBmRtjkVrVcQEF5gFfVhgopD+Dq6HZdHNZeFDZgKtJuzsxBlgcoGKW/MAAu23L0ycw/sPpM8sworIp+zTsr9iVYmIVcP2m7dj1fBBSsXest97est9iA2IDYgNiA2IDYQDnZAIOCnbueE+k3ELPzGMDCWJnpFgTAQQ6HaW64TTD79HL0AbDMT47rMjCnMwmZBch1glKWR5oN04/bZGahDuxxWVDKTEYGBll/AQUzMcCMnKCJzUeZgILyIM+HHRWijQmTpijg6sCRUx1GHCIBm0Aybx4APYB7zByEnB/A5pXlYB8MvDEr8dmNFJuxkGJTn6bY/ZMpNm2uc/18RTSdvP34XYP5x6AgmIBcD/qAxdisA8X2/wfFjjiEYg8tqyznelHTYbMIQUcQzXn+wnfSXkiFWEtps3Y8ZwQUrB3rLPezrLPYgNiA2IDYgNiA2EA52gCDgh06dU3bwuodC0fG9YsYrANruiyz+fzkUJfrABwD4xDXyAcbEXk6AKm3rZ9DjpmI7O8vLEKwLs+MQbAOo/THsvq8QFcAmFHkUYf9GuIcACH0h/ynX30jgUYyUEBPBi9AoVIBBeWBXijbqmq7AKx+17pLJUgWFfDS6wFMA9AGVl0UZh0AOQCK+jbiWV9RbNwoit18nnPcM7Ty/M7+FEO53mdVzhnMhK4AKPXr3f9IsbZHU+zSkyv7r2Jfe+5dVwGvVV0rkZfnCGxAQEGxA3kWiA2IDYgNiA2IDYgNiA2Uqg0wKAif137AHnQHiw1MOC+bTx8Xy+s+9QDWQS5sezHa4broKxumH+vAzDul53YrK5IHsxUhq+vPbful3nlh1l/QPKEt0/hY/5cXvO0LCmKOmVHop1Mx8z3Qne+lBBoRZ/5Z3aDFNOpS6hvRhusc0YRi/VNRdXP1EcigGcBBxQJMBfFAhF9cg40HABD++9AHog2jLtiFABPBDAQYOKUzxV44k2KL2jrHG6dR7LV2FJuWAgpRj/vyS9E+DvSFPvhA/wD/0OfBDR3wcrfdKfZfu1LsyAYUa3Y4xc5pRrEx7Sj2VAeKzT2dYq9cSLH7L3TASr/+wvIfWUO7NGiiQEHMdymtv+hSnh+TAgqW57rJ/SbrJjYgNiA2IDYgNiA2UBtsQAcFMV4G9pDy+AHWgUEXBnShPuoCGAPLD/VN/v64XVPKfQGcYz9/pnqmPI4YzIy7KExBZilCBvrigP5g8YUx/lhXfV4gA4AR7fnJMyvRpB9k5i963wgK8tr8uLXCXRvTPBQzzxcF9BSUNCi4duM2tQC4OYo5mdK3vIR0G+Btw7ELAgKLhAFeYeUA5ADGAYgDOAiQEIDcf/ynA8oBkPv9rhT7ax2KHbUfxVrt7X802Z9i/9yHYgcdSrF6jVLBPzR2IrMUVVCQpk5fYCTywYxABih334tiQ2ZS7MB6DiA5o1MlGMmgJNJpnSkGpmLYWIPKh80iZgvKNmK5D/X7MJdzAQXFhnKxG5ERuxEbEBsQGxAbEBsQG6gOG/CCgugTwBRAMYBjvBWXga9+/Qe4gBV2WMoRfQ52330PenTW06GAo+5TsGmz5gTwkIFGXofqsI1c+vBgf76XJQ0K8gIIKCgP4VxugkLJYNtw7PKUT0BEAA4CtfJZBqAQwB3aPOgIZ6vu3cdT7Mr64ceNJzrbevt1r2QA5qobdLjxQYr98fcU8wMEAQqCvYhtzbn2w3J19lVswbp195V/DgizuUo2IKCgvEsK9V6QdsW2xAbEBsQGxAbEBsQGqmoDJlCQ2wRbD4fOGmx5QmsBAqsAhvbu2z+UccmYFADXYxs3VWuAdSh1QBB2E/VPQEH5kV2lH9n8kKotKbax7nlgfWc77SGNne22DF4VOgVzEIzBh7+n2F92d7bq6sy8sHNs6R3bwwHqEJgkV32bnUWxtg0p9vc9KXbzkWaWIHQZ3d0JdpJrPyw39h3a/X8c34ISjVg+tqryrBFQUOynKvYjsmI/YgNiA2IDYgNiA2IDhbQBP1CQt+Kyrz0GBue+9gZdN/JG32PANUMIwNfgYcNVnWHDR6rrPlcO8JVBe/0GDCK/OshHm2jL23dlfyMyylAXekC271WD0spx7dem3oeu/+BhI6j/oMFKjsen1/U7575uHT0mErBnAgXB2jRtNy6kbeTStoCCAvYJ2FcAGwBbLVa/ibOFFyAdA1fVkYKViK28gwZQrN4e/mBcEDj4Qjdny29VGHzHneawFJvu6zAUTf3NOdPpJ1/z0qKzYgue1amL2HUB7DqXl0w5yggoKB/y5Wi3orPYrdiA2IDYgNiA2EDtsAETKLhxu5XGEGRfdgwMBtkGwCtvoA5ve155MODAhIOPPm8ZrrkcAKVezvlhgTdYf9YrTB+9Dz7HuEzMSS4PSjEuyHr195PxgoKsP3TwkymVfAEF5YdzyRtpqdwsUfUAS+2//1LXYethC+3sbdUPCp54KsUO/SvF2v41N1AQAB6AQbD4ps3NXv9ZX1LspMYUq787xU7fj2Jn72/WY8a5FLs7D1uHGVQU34JyP+fhmS6gYO34oI76TJd6Yg9iA2IDYgNiA2IDYgOlZANeUBBsNIBPCIah68nMQW8+14EfQsj5AV9oF0FHAOAhuAfLAdhDUA5vPpdzyvXQPvrCwQFFcM71/FIAc6wfALooAKfeFgN7UQOusCz05nHDTyP0D2P86aAgfApivjDGHzb8rFJuuxRTAQXz8AOyFBdWdCrei6vPlQMpBrYeAEH492PAqrpSBARpd7zjy69vfTMYZ2LtmfKYMZit7oh03O5o2qXOrhTrV99Jve0j6jHqRYl4nE3/4lsw9AUrz4fg54OAgsHzI/Yj8yM2IDYgNiA2IDYgNiA2UDwb8IKCAK2YUeddFzDsAKyh3AvEQQ5gmzdfb4OZfaiLfNTNhkHH9aFDNnK6DpAL01Ovz+c8LzxOjIXL/FIeLzMZdf0xl35yOijYolVr33p+8sXMF1BQQMGyMthi3ixR+l6+ag3tc2QTZ/suovJmA2blo+4ja5wty22Optjuv6fYkMOqBgoCyHvofCc6cFT/gmAWAuzrfZQDBp69v5O+fFK6Li+ktg6DVZiPsXMbl45xfQtKJOLifaxEuV9KtY6AgmI3pWqbolfNtM34tjgllq2g+Matmd9kyQKMGW0GtJtYn840EbsrwBoE/f5I/EoVW3ZQRfyXTHsIkotQFt9WQfHVP1JFRTLvbYudVLOdRFhvWZOqr8mDDz9KbU9rRxOnPETfrSudZyODgud2u0Cx2MBmCwL2wHIDMIZ6AL3AYsM1WHtBcmxDkGGGHzPnosixPOqCeQdgLxu2H+QAJnKf0CEKsAc5Hi/OcQDkgw5+252hK+aFx6kzI1HGEZ3BvuRxcYr2X31zsRvMRUBBH5iRJ6wQKaOyuDkK0b60WfUHam0lJmWNAAAgAElEQVSZQ/iyi7Xo7ABzl47JL9jFoFdQyqBg22Nplz13DQ7w4WXuBV0D5IvqX/DO/hQbfzbFJjdJBwWfaZUOCiIiMdoNGk+OZb+r4wQcQcCX2mJ7Ms78PacEFMzfXIpdylyKDYTbgPXam1Sxy0EUP+CYtHdW8vGnyeozIC0vaD7j1v+S9dlXgfUTy1aSdXoXSj71b2O9xNoNSherd3+Kb95mrBOkg5Rlrrf97odkL3wn8lwmX5in1sDu2TuyTNR5T958u7O+Sz5XbSub6X0lJdZuzHtfUXWSepk2I3NSOnOyebtFj82aTY0aNaIjjzySHnz4sZK4VxgUbN+xkwLaogBlsCtmzDFrL6ocZAF8MWMvWxsFEMhsRbQRxLjT22Z90beuf5jeAABVPx5mIPv58wMmIYc+dR30cz95sDDnvPKGgII+WKCbrU9mvs8FFCydB2e+17ac2lu/eRsdcHRTiv2tvgMKFmPr8KQvKLbnPhQ7/hAHkJvRPB2ICwL+gsqw1feuc8IjEmMrMOqhLQYFr0xtH57cJF0XAIf53jrMIOIpvWjPveuSBByRZ0MuzxABBcVucrEbkRG7CbMBe8TNlDiqBdn3Tkz7wWFPesgBajqc4+Zbny9TeQALrbMvJGvp126ZqZ/EyjWUaHMGVex3JNm3j6H45u3G+vawkardRMu2VLE10zl8cvpjqfLTqGKnbWzD1L/kme3f+vRLih9+vJrT5NjxtDPlkwup9c6HxsMedoOzBq3aGcshl1i/Oae1Sd5wq2rb+ugLxRa1r7pWXcf3O4rsmbNzalPW3rz2Mi81Z152Jone++gz6nXJpXT4EUfQxZdcRrOfm0OfL1tZtHuGQcHOXc+JxJxjewS4xoAgmG+cHyWFX0IAbV9/v161EcS409tjII3r87UfMAdZPyYj8nXGn5fNx+VBjELogXK0w2Aj+kQ+5kbP08fB5179eV4+/OxLAQVd9M/nhCexEKmAgjXnoVsI+6iuNqfPfNIBA+HTDz4FGaCqzhRA5J7/Q7Hj6zmgoJedFwT8hZXxdt/7J5vHhu3FYP6BAYi2nmmVzhT0goIFYgmqeb90jAr2gijQ1bX+0k/NeQ4JKFhz1lLuS1nLUrIB68yuCoCxH5iW9m4CWAjwzx44ND1/wSKVj7LEsS0pgS2lflsGd1gKPERd1VavPsa6iR8cJqBfHatbL0d+/kKjvG//fnrV9nz7N7LO6+muo9W1uwJb49vjbh6vWTap/fy8nNYnDRTE2kC/cyv1s2c8nlO7YhfyrK0NNrDT/o3WbtxGp7Y9jf7xj3/QIYccQgMGXVOUbcUMCnbv0TOrexbAF4A9BgYZqAtbPwbCmOHH10HAHtr0q+eXz3r4Mf24nOVRj/OQ8vjCxgWmIeaBWYFR5bgvzAPkwRBEimvGpGKxGMn2YQEF0wyTDUfSmv+yHH77GAcUBFMQ23irEwzkvkbNo9juf6RYwwMcQC4M6Mu2HMAgmIAmhh/yAPS92s4BBV8+ydHhogOd9OYjK5mCAA7/NaxwcwTGZJ196X/2qUuyhbjm33v5fr4KKCg2k2+bkvbEphSz688NFBBkvf9J2reidX4KiBt3f1o+7MZ65Q2KN2iq5BINW5GV2vZpsilsBU3eda8LNlkXXEqJ79dntGkvXqIYhQChkhq4ZC1dThV/bkCJ0zopsMjUR23Is196jbB92r5+lNqODSCgKuOOb9iq2qrY61C1Nnb/qxUwCDA4OXhExpHofL6qh3U3lSMvyA6CdM0ABX8hxTq0BzqMQQUWz5hVpfEG9S9l8iysCTaweYdNTz37PJ1+xpkKHGzStCkNGTaCHp45q9oAQgYFwRQMA8B4zgGE6Qw5yHGEXS/jjmWQcgRjry89BuaQ6vX5nIG2oHKAk2As6uw8jqQctkUY7evjQf0wn4GsG1LU130VAmAMmgddFucMXEIH6C+goA8QqGd7JzGf1/Nec/Zv4+bIZ7vSlry4srGBP5w3wAEFixFghEHBYbOcqMNH/JVirfauBOGyBf+C6j/VIcUIXJgO6rEvQU02LfpwPy0SMrYO+zEOeSxVTevsq7YQC1tQ7uNs7mPUFVBQbCZbm5H65Wcz8JeXvG8KWR98Wi3fjvbU6S5Y592WCxagAmM0gE63Kfh7U/4GwRg8uUOovvbsf7t92T0uNda3h1yv6livveGWW9i+DKAQW4jzwPCzvvkuL+3kQ5ds2mBQDnOBA9fJp56jRBWDDCQnTK5cl7mv+c5N8slnVT37rG6+dbIZj17XBApyuX3VNU6/89/Ke7/ch6Tl96yUNfNfsx3W/9LylT8o5uDf//53BRBWl99BHRQEU80PeOP1AwCmM+PC8rkcYFdQ+wwMmiIfA/Az5XPbnDJrkYFBXGcDdEI/bsPLHOQ+/FIGLtGGXx1TPjMFMX72eyjbh3X0z+fcNJn5yhNQ0P9hla85lnaC5/jKr6nSl+D5I9PBsqqCW9nID33CAQXr7U2xs/cvDCgI0A/A4OiLHWCPoxLfejHF5pyZ1uf/abA7xS76p8MUZFDwjdMcUBFRirMZW7Z1Ow6gXfdyAo588MmXWT3oxd6D7b2mz4+AgrV7/Wu6fdf48SWJ7DfeJnvAELL7DfL1i2dfMdABfBq2Kvz7IfErxY87yQFcrh+V1l9i3UaVD/BJ+RH0AeOsVxYQmGb2k8+lyfutJ/sptB95QtWPb92p5BVbDYy13eo5/eKcjxQIpspSeQBOvX3Ef9pC9uNPU+KTpRllXDc58hZnflu1o/imzEiNXI9TsPHiG39WUXfjG7ZQYsVq1b719vtkz19IGL/98gKy575O9rsfRY+eu8NS/hXhYzG+5keyvvyG7Pc+JvvNt1Wbql0wAxe9R/GfK9R4rHN7uGvCwKBKd6unQFkAqvbs5ynx/Trf8fO40tKKJAEYtHpeTvHtCSVr3zGWrAsuTjsSbU53+/eWWRdeQta336f1i6jV8eNPoXiTNqEHsxUTRzTLrHtQQ9VvvHFlO/kCiNPmwcfGpY68e8vVBgBmffjpUrr+hpvo2IYNFThYr1495Xvw+ZdeoQ0/x9Pu2XyMk0FBbB8GsMWMPwbW9D6Qx4w4UzkAQ7DdAG55y8Hig888vT3vOfoHKAdfg5DHwdfeuqZrjozMOkDXbBh7OrCHsZj6MOVBT54XjiyMtkx19TxmMvK8oB3M3UuvvSU+BX2wQDdbn8h8nwsoKC+RfNtUtu3F4MsPvgRxgK2XLYCVr/qX3OWAgkf+lWJXasw8jb2n/P3l45p9DI6+nGIPPk0xMAWxfVhvG2xFgJOcogxBS5TvQQ/TMF9zwO1cOoY4CvH8LKL+Zbv2Ur/mPX8EFKx5ayr3ae1ZU4BGOpAThw89AwgRP94B6RRIYig3yeSapxhz7Ouv+2UEwIwPFWE2VZa8+jo3n8t907HjjePSdUxoTuQVKMigXxZpcvykjH6wfRVznGjVLqNM9Y8AJlofXhDL1bEiSYmvviX72TlkdTw3TUaXN52rKLqGdUMADwRdsV96lexRd1D84EaR27X6XKXGY896JrIMAEK/oC7uOA16chm2eJvGF5Rnv/N+2rzHf9qcdRtB7etlyQkPpPXFektae56pstbR1xoBSdZt3EZDhg0nMAdx7L///nRI/fp59z2og4JYIz8mIMrA1gNIF7SWALaYccf1oshxXaTM1mPmHNrUy8POWT4KMMdtsd7ok/Vlv4dcxy/l+lzOrMcwYBF6QpblOJ2/6F0BBV30z+eEJ6sQqYCC0R9WhZj/2t7mnI1EsUtT/gQBChbLnyDAsEvucEDB+ntTTPfhpwN1+TwHwAf/gNgOPLGLcw4mIPcBYBKAoA4KMpg468to4CnqzfzA8WM4+RGHnQj/hcxQZBDQlNbZl7B9eMKkTKZDbbdbGb//c1NAQf+5EbuRuSllG7BffZMSRzRXAEn8kMbKH59JXxVsI8WUs8AYDABt8lGmb+fVAZeqnCvmYTZ6J4mwZdp7KP+CAPD+3CCjDHUrdloZ88NAltrSbNBBbbPVQEHFZNu8XTE4k/c9QIh4mzilo+oz1zlQW5132mQtXkL2lOlkXTuCrPZnU0Xdw3MGyGAzar3BNh1+k9sOwM/knXeT1WcAgWHn1Tlx9Alk3zqa4DswW3tJrN+kGIdgHfJhT3pQ9WGd1snN4zKk3u3n6NP6Yjkh0nHYYfe7WrUNm/St+9EXbhm2rmc7Jqkv74nabgPbUszBMXffS2e270j169fPu+9BLyiIOdcZf2CzIY8j4/J10NoAYOPIwkgBEmYD0KEPyGQrp0cMxvZfsB6j6IuxsL4MQDLjz+v/0Dtuv3kBMAjGogkYRB8AH8Eu5P70dr9YvsIFBZs2a+6yHTE+yEFXvX4pnftAeBnZsYycLDMKOWgBBeXlU0j7CmtbbR1GtOFiRh1mQOzi2xxQ8IA9KeaN9stAXXWmuYKCs75y2IdgFOoHgpzc24tio7s7+Txuv/SQpioKcb/+hf/RF2YnUl4+zykBBctnreS+krViG0gsW5EG1tgPPuL78a22xKZAK/uZOb71uO2qpvY7H5B9y12Zx0V9XJ3t/tdklptkOG/85LzobX3widJBBTMxAHymsQMAU8AYthgbZOKr17vjiv/jaMIWWS+QFnadOLYVwaeeffUwsm+7S4FyydHjVGrfPoasy67Muk30CZ+M9sV9yQZb8467nXbvvNs5nzjVHQ9Yhqyj7Qm8ga3GWC/eisv1EJyE5wNbwROHNcs4ktNmqDpqW/QjTxC2d2cciBy9y0Gk5s5UjrxnzXYbGKH6FyL2KZh8fq6rK+vMKcbhDYbDZZLKM1dsIDsb2GH/Rm+//xG1Pa2dyx5E5OKq+h40gYJYG4BVzPhzmW/bM/+5E7SODOyZ2HBBchx4gxl/JmDNJM/bfxmAjKq3l+nHbbM8Us7TUy73YxTyOFgflmUGpN+49EAjxzZuqgKRQJbb85Pj9ouZRoX2BBQ0fPQUc+Gk7+weyIWcr9j8bZVbh8EY9AOoqiO/FEHBRnWcrcxgCzIgCWYhog+D8Td9TiULcNyoym3IqDOtM8XALJx7eqUs2sA1wEIwCIPmtXln5VfwrE5djC+FQtqFtF0692i2azH5wel05FFHuzbTolVrgs+WbNuR+uVrA7J25bd29iV9K0GcUaOposI237M7rEq2116Hktp6WaRvPOWvDUDVUc0J216rYnfJ+6eSPXRkxhHftC2wXRVoBDq0aBtYT9fNvuNuZ659QMHEspXuWiSaneqeM3iGNNHiVAJrzb57AtkPzaDESe1VvfjBjakC248D1sR6+z1zm0e1UGAhwEO0mRxTGYkZIGBFMrpdg6XH+iY++8qoT3xbnKzXFxIHaEF9bAeHb0Qbbks0tiSf28NuUG0h8jDn5ZImWp+erlP8FxV5GuxNNe4dZhCAQUHUS3yX7hMRPhXB4mR9El+vSu8jYE2C1kvKotudzFXNnCtsK0bE4n+/+DJdfkVfatW6jQIIAQ7m6nvQDxSEDTGjDeAeAKls7IoBOgbA/IA1b5uQA8MPwBcz/zgScJB/QNQHiOgF4JjJ58f4Y2DPK8d6cTn7/eN8v0jKXI4U+kIeemH+MJ9I/RiELKuDgmAKso9EnheuV4qpgILygsvqQVGKRlxsnWJPrakEBYMAquooa38FxQ79K8VKhSk4uQmpYCPMGGRQEOmUzpksQGxFBgio1/M7j+KXMLWtu1HjJmLn8qyLbAMjRt5ELU9o7db3Xhf7mSP918wfDbKuua+rvfgDF8iwe/R2713TnCLIBIMetifoh6l+IfPsS/opXeyB1wbqHEUHq2t3d1w8PqQIrgF56/2PCOww78HbZOF7z1vG116/jGDuqbYPOMaot/XRF64u9kWXu+eQAQMvYYhKrJh3CLZy6lnGNvU5wLZXfYxg/pmCniBgCdcDaKq3EXgOQE0H9OK/BMqq+dHqI1IxthLbCxa5h2IRYvwpUNBa8rli+4Hxl8sBtmLaGBK/kp1iGEJ3sCDTylPfAAwKoo5aR+3bwL69ktFpT5lmlDe1KXm5P7tk7mrf3AEg3LTdosdmzVZBSXL1PRgECnJkXDDpAAwysIedMGHHtEefpEdnPavqIZ0y/VF65oW5gXIoN9Wb9czzKh+pqd8X5r2qyh+d9bSx3K9/7o/1NLWNPG8977WfHOez/nNeeSPSlmgdFAShQAdYS/1eF1BQexmW+mKJfqX34li6gyg2ap4DCv6tfjBrrVpAwcsVKLhLnV2jAWt+gFu+8oNAQe5D90HIeWFp1AjGKVBw7332lY9bedZFtgEvCOi9lmdx6T2LZU1q95owuKaAjsefDrzXwUxTgA8iya5YHVi3kHYFwArbQ6GL2tKKbbIRjgofBpg1fyFhmysfvLXVBQV7XJYOdGkglpqPgGvvVmwwEpXebc4wzp+Nramp9qy33iWATcon34efGetjnq1rrnPa7NTNt467HkkibAFHsBFEEfZlAMIfYkoP7xZgty3Du1Hfig7GYPzb7wlRosEARJmKbj1zNtl33k1230GK6cn9ILUXLs4YA7Y8q7IUKMj9w0eg9c6H0Y8ln2e0zW2BbeoyEHerp1iYFYlf0+orUDI1J4mjWjjj2vSz40Pxzw0cHW8bkybD7Utau5+zsv75XX+AgytWr6Op02fQwGuudQFCsAebNG1KQ4aNoIdnzqLv1pkj//qBguzXjxlyzJhr1PR4199dLBaT8yznYNpjs4x+BPX7QgcFmSkIhiF8CZp8EOqyxT6vUaCgzuwo9sRK//l9cJbqfCp/gog2DH+ChzQVUNAA5imA0sQUNNSNxBCEXNQIxilQcM+969L8tzI/0kvVrkSv4j4/vCCg91rWp7jrI/Mv8++1AevsC13wJ77fUU4028+XKbZWYv1mspZ+TTZAs6nTKX7o8U5dbB3eniga+MEgkQ4mRTlXUYQNQJZ3TlQQEI0pqAA0+OjzHNxnomHKh5+nHPWTL8xLmycbwVnA6ut2UVo+62DffZ87xxX2b8Y6XJdTgGtOm70i1We5oDSxdoOjB4C62c9Hbtd6ZYErx/MTNYWNmXTi9WamINfRmXtR+sjYNuy1Bfs3Sl49zNXf1kByFQUbW74BRCNyNNawa/c0hiH0i1dxKzuPTVJ5VosNRLMBU9RiMAiDfA/6gYKmyLhgDh7buIkAgVkCgTp4CiYk5jbIpnVQED4FsQU7qH4plQko6H2ZynXZGG8p3Eixd7XIw807lwAo2Idif61Du/z9D6XBFFzUlhQoePORzjbiqgCBuuyz7Z2tx7O/C57zFGC754H16ZGZT4pty/Mtkg14QUDvdSk8e0SHaB/aMk+1Y56SD890QZAowArXgf+3nRFBq3zaUuKr9KAoFbvVoyR84D3xTMZhz5xNADqhc7xxG6oI2crKenpBQc7XU7XllqMwv76QlP/BCH73Ep3PV/rYCJSiv1d22spHo3V+Lwdwgl8+vTzgnLe+Wt3yBwoCDHbX+unooKD9wDRXjuWN6Z8bUKJlW7J6XKaCqVjYxu4zxjBQMNH2LEoOHuF78DbsUFAQ/du/kd3XAW7jx51IYAti2zzbBMaCQCcJMD2ZIbrXoWQ/av5O2pb4ld5d8inNfPLpnI+Jk6fSXXffUyuOO/41lgZdPbhWHhf1uoTOPvc8OXKZg3POo65nn0vtO5xF9es3cIOSMDjYsFEjNa/nnn8Bjb33PvKCguxH0C8y7vJVa+nW0WPpxlvvpAmTpxL8Z+O4f8pDKg9lnOeXuvKTpqg2Rt1xF42++95QOW7v9n+NU31BLkp/LId0wqQpStarv17HdM5y6Bu6Qv7uCRNDdcYcoS5kENSW5xfAoF/AEB0UBFOw1NmB+vtKQEGfl7c+SXJeO35U5LLOaaBgxwHBAFV1bB/u0M+JPlx/99ICBXkbsQ7sVeUcvgfhUzBsTlOg4B8Oa0J3jJbtMLnYeG2U8YKA3uvaOCc1ecw/ba2gN99+r2yOVxYsLPsf1lf2H0DndTs/L0fvy69QW7DsQZXsKBfoYMAjIEVwheq27+TNlZFtWVcAlKZtsMp3XEp/+PiLqisDQLx9OENup02Jhq1dUMj6zPHTp4KfhHwbq0jFYJsd0UyxzOLHneRuhebxINWj8Wb07+nDuvASpYsf+zBM3lQOv32sTzZMweRNt7lyLI803qSNs2X52TlkLV+pwDZTv6a8MFAwOXZ84NqqaMCYc2+AEc88ct/Y6ozt6ckJk6kCa90iPeCL8mkIEDBlW2qufNra8HOcrr/hJsVaAnMpl4P9ptWG9J///Cd1OfucWnlcc+1Q9b2Nb245qj4HN99ye1rUYr5/DjvscNpnn30U848D4XFgkDAgCqAW/AxyPWxvxbUf0MXPFKSog7royy/yr17fe44+Ia/6yzIiMo+P9Y+iL/pnOe94/QKUQIb1hKx3DOyn0RS5WAcF4VPQK1vK1zUCFHzi6efUTSHbhwW8q+6bTYFSAAOxffj8keEgVRiIVdXyDv0dUPDgPfIPCr7ajmJPdXAChCAyMA4EC0GEYOQjQAi29XrAPg40olJPmbdu2vXLJ1HsmVaZx+QmFBvcmmJXX02xse+YD/h5BCDY7XqK/XEP2nWf/emKvv3L6uFc3bYs/VU+P70goPcaczV+4uSi/Sf8lFPbUvMWLUr2OO7442n//fcvmwOR/5o1b142R8sTTqAuXc8p6+OSy3pT/wGD8nJcN+IGWrX2JxW9N/Hpl5S83/E1h+2y+mHfeKsLgCgg5M8NyB49rtrfC/GftlDiiOZKl+T/Z++946Sqsr3vGuc6r9c78zqj3nHQCToKImYQUIGBGQQjEhpEJYlKEgGzGDCPioIiBhRz1lFxFBUTAhLMY8CAoiioSJbQVeeUz31mPfe3T63T++zeJ1VXd1d3rz/O56Qd1t5n1emqb//2Wpf8nRyEtmi2jzp37380aM8Wl5wBJ6t7yHCbJkNxHBTkZCGIPYi4fAoeARBBtXjvg1ZAmd2UJXdIMHEIQyXbXiUxCQFN5t8clSAGILH/4OAcJKxvtodz918f+8/cfXxG4nadYV4CGCw1d59+jpCFF5DNBm1t/dquxUFB58g+Kq4f5sy6FbJrJ4WCsCH3/VqlCMwe0tXzt3MuIobnSAajnufIceoeQK/7xjvWOdrs/pu+Xb2ePvtyRdHbD+u3ENoJ21b8sJ6WfLW8XraPv1hGs19fWOJtkQpbg9A1SbaX58xXiSeQfKKuNyiprpt0Y8m2iZNvpLjt6usm0Rlnnl1n26jRY6jvcf1rfetd0bfk3yUOObRDNeUgw8E//OEP1Kt3RaLMuPxeAvAC7EJmXADBtJlxUR91APaiwBr3p+85viFi7KF+WGZhvQ4yAbO96Fu3PwoMcgZkM2MwXwdcxPhxrveHY/SH++jLvIdzHgcncOEyC97+l79EW6BgCGbkyaqNPaSiWPMtULDqR21tzLO0WX1+A1AQ8euK3cLglu16FDgEoPz19pSpDSgICAh13o1XUOauJ70Nx9eOocyph1Vt53ahzK3tKYM4gqe3pK12+yVlOuxEW/3yF961zjtRRtsAC7HEOPG2/TYe+Nz+t1VZnwFlbdt2O1Jmq5/TVv+xNXX569+sL3bx6+p+3dTnxISA5jnm550PPq63/4I/8sQMemXugrLd5i16m7DcrCFt+FLYkLawH9YN6TpiKJVqS/TOMjLKItZgono1gFLV2nf/TXr8Q+eTL5QNevIHd8Zznl1bHAIIZNhmxvWr1rZhZygUxNLSqyb67foZaBGL7tob/OtK5WckqXA+/NS/z3ZF7VVSF8OuMLvdoaNU206PfiV7Lmp+WWUJ0JnQFueoCs8WqBcT1okrFwcFo+ZRv5cKCn63mljViSQ2sJFjGKoM0YWxOT37q/HmWncim3IWSsFLLruC/vznP9fatttuu1F9buXwj6xiFJilqMOAqS73f+ncpc6UlCcMGFhn39cm3zi11r6bLV3+PS356lvqfvgRgaXFfzusm6e825guRi7AV03AXpRizvY+ZJDGCjs+N8GaWTdMycjXw8AkZ/4NA4d8H+3ofeI6gKB+zXZs2o9zZCnmOIQCBQUKxjqRzbHkWsMEEwoKIpYggBSUaYByOE+7IUlJ0s0Gv/jaNv+lIFjmP36uwCCAW9img7moY6Xww3Lk3+9AmV3/RBlkWeb+eL/97yjz699SZrvtKbPdryjzq//ywN1229DPfr4VbbXt1pT5j6188KfblDlohwAkzBy1C2X67UqZk/5MmdEtqm/9O1DmzLF2hSBD1GmLKXP/CspMmk+ZX+9ErQ48iJo1kwzE8p5J9p4xIaB+DnD0xdff0ufLvqPPl62oxw39p98+Xfo1vTb/jVrf5ix4g0q9PT1zVtHxrGoSCytt3YYQO+uiCZeWdbyrNHGpThk2gr74ZmXsd6/c19/5QEst1S0R7EnzXlVKwAKkcq+f4ivPsMTXPfm0KvuuvdFbestlkTHZAHRx/dqgYG7JMnJHn1XVz7jzqPLHLYG5cx97iio5C+3osyi7Mevfz67bpJYMM6RSy4dHn0XuzXeQ+9zL5L75Lrl33F3VPmLzJZxnZ/jpql6u0xGJ68S17SxdXmXL1GmJ28217qzquaPPTFwnzpYAFMwTOa/OVW37kO7ci8h558PQzX3oH978JFw+rGJR7nagN44xZ1F27Y/B/t5b7I8N/WabH6TKYom0814ww/GGyp/ohZdfI6i7amubduc9dP8jj9fbhlVnr85dUG/bnPlvFK3CrImCE3XjVJwN6Z9NYbaW6h9Qdd3O+i159X0NAqievXqrFRg6vN1ll12ool9/Wrpilf95jnsX4T5AGRR0rIgDCLMp5sy2oOzTFX7IcKyfm+X5nAGcCQAZrHGmZC7Pe9wPUzLCXgZ4puIP4wPYw31uy7bX5wGqQD6Pq8dt8bg+XrpczYMoBUNAoH6ZJ6829qIUTPZDtzbmvoa9fHYAACAASURBVKm3qaAgYB7g2An/u1QVUIqXrgISYhs7PaggxDJjwEPeug2tDhFNQMjwjffmfYaQu+5DmV9ASfdLyhzcgjKH/9kDbIBso1tW3y7fjzL6hqW52Ca1Dl4fcjBlThnujYfHFaWKxNiOHUuZHqMos/2OlNnl17TVjttU2aIpBasByYN2CAeZu2/vwUkASJ4L257np3kbyvzH1vSL/28b2nrrX9CgIaULYN7Ufb8xj1+HgBinfn7XfQ+WfGlIXS5dbchLT0u55LRUS1dt7Uy49Ipa++Fcqh/k9f0DPO7H/zMvvJT4x/m8hW/R2gSxiZyPv1DQA0DLPe/i0B8K2eU/qGXHznkXkYvkFAkSbyR5H7ozX6TKnfb2IM0Fl1r7z9/3kG8jgzf3n89by0b1mQXo22U/1Vbu6+9VfXfs2X7biC/nPjUztF3nlbl+UgrAIuedD/yySkHIsPLpgqpRA3+5T5f6/bgPPObXi7IX9zgxBuaoVNlvc/ihzLZOuDKZLXjeheQr7smjktXRxh82Th8Knj+B3KuuV88H2a8ZCiJ5S/66KaGbe8b53vOMgYJYCp7r1tMft0rCo9nH/elKQdiMrNac7EUtKUcW4uU/lGz8YfMi1+U3nPhAlQ98s3IdIW7wlKm3qhA17Q8+hJBgRAeBf/3b3+iCiybQ73//e6VK69P3OAWkkoJBE+yt25JXAA0JSgDFbM8DAA7gzVyKi7IM0gAYbcttGdyFtc3LgQHxfthQFeOXgSPss9nE13AffbNtDBqTgj30j7HxkugkS5q5b8wL+ua6i979SJSCOgC0HfPk1cZeoGDVy6Q25lfaDJ9fHwpuu52KXRcJqhheAVh1qKjaANBMwMaKN95HLRnW76Ed9IM+7r3Mi/uXJo5fWFksHb719uJiJrbvTplWvy9N9uGJJ3vLlvUx24553s57mDLb/TftdUAb2nHHHWnJshWRf1jE18N9vSnNjQ4BMW79HP8lxpeAhryF/Se9IVyv6//SF9tfU/q8NJSx6ploVYINDZToY+DMugyTlMIwpKxeL+oYmV+5Peyz31ZXdQCEuaO8jLF6WYApxH6Lal+/l/ssmNlYwShAtxtuUTaoeHkJQGfum+8VGESyiuzq9X7/Tvde/ljcWa/619mG3LqN/n1kU+brcXsfCiKu4BfxS7fi2sN9HQo6w05PZItaPlsAiblDuyeqk8QWhoL8bJFRGvPKkI6vx+1Dlw9vcSkP8FmwHfEQHfiC4bvcnwkFUQ5jz3U+0m8DxyojtdGG2aacy3cn8YGa+cB7iz8jJGnBEnosZdchIJaI4/zU4SNUFnB8/8R3Ez37MJbkAqpBtWcDc/x8UA5lTMUe7gNu4Z4N3rEiLgy0oU/UhQ3cF/Zx9fSy+nJk2KBsSfAPP26D7Q8bH5ez7Xle0tbVx4c5leXDNgpoXLM9gFJdEyhYsxdRqZ5DU2xHZR8GgAOIO+V6TynIS1exfBXbExuLg2k22BV3TYeCLy6mzHXHeQlAwmBf0usqscjk4sZxaC/K/P6/KdNyJ8oga3BEUpJAohHdNtSZOJAyt05LZwPg4A47E7IPIxBvU/RRGXP696MOATF/5rnMafo5lTmTOatvH1CqpwIwgRIKGVltNgHWMFjB3p23yFrOVtd2Lff+YlJwCZlj23Qm54NPqtrLE+W+WkHujbf6sd/QZ673CaSy8Gr2quQTb75LlZXhqgmAPAWNAB6xHBTj3LYFuVdcQ7nPvyb3uZeostI+bpvtalnpt8F4S7pdNrBU6f67avkxlhInBEqBZc0W2Ji0Hb1c9vu1/rNUcfMS2JLdWOkrBXP7d0xsv96v7dgdU7VsG4ll3Nfmq7YZ0mH8UGiGbfnb7lJjsUFB+FTusGO9seJ5jz5LJUex2cH9WZ8dwODGLLkXX+HPGz4PKvNxgrmz9SfX5N0vPlDdBxYvWUYzZ71C4y+8mI486mg/ozfDQMBBxF0cNmIUTb3tDnr/4yUqSQ9gIM+nDgVxjRVzYYo/VgSGLdVlxR4Udzr8w3Uo4fRrbIO+RzkkEAEYRFlWEJpLe/U65jGr/NBfGsUe2mEFJMBenK16v/q8oF7SvjE+c15EKWgAQNupPvmlPhYoWPWCKPXcSnvRc3v65+Qt/QUUxLLaOGhX2/d1KIi+bhrqgTgdsBVzDJiHpCLF2M8xF/dt7iUqQbISfVPAsZ9nJ/rBNvMYytw/iDLTzq0qW0z/eCZ4Np0rBArKF3r/i1Tce82EgOZ5XH25H/3elPmR+akvH8j/42kFytxZs8PfBwBpDOMA6BCLsMj3p5mYw08iAhXb+k3ES0L1/tw77/WWz+aJ3Bde9WO9cRmot9yX55CCb5pdUHlB1cflkGQDS3kZcqpMujfe6l3LhoNF21izuaoMjM7yH5SaTCUl0frX67GaME2iEWSKhu2IhYhltXp7NTnm8SvQFWKv2b5KdgIgfNYFJbGjmnrzrvv8dhnS5SdP9a+Z9uDcmf+mmh8bFIQvKQAMm6ffG9mOe9qZqh3n3WDcQLNPldhGgewuJX0eZj9yLn8PmpIPAASGKQIBBFu1aqWSorzx7gdqRQpWcITNjwkFuRwr5kzFH2Ad1HhcLmwPiKeDNbSHa2Hlzeus+EMbqGvejzpnxSHqmvZH1cM9Hh+DxaQ2cz1uH/2if5ua0ixj9vHJ0q/95cOt27ZPNXZuu772Nn5nu5axXUxzrTYHKFBQ/qDUpn9FtV12UBDxC3n5MADelLGlgYJQ6l0/vmZQEHAQNs1YQ5kH5nnbnU96y5KxNBnQjzdkNMbx1MmUQZnHPimu7wIU3OcIgYJRfiz3gu9QEwKa5zJfwfmS+ZD5aFA+oCktbHYjDh5iq7ljzia17DchSLK2VUgOgQywSPywxfm/6keCiwQfGnjM7nMIIQOx89Fn1X5EQOHoTrmVckf0DtTJdTw8UF5BJUC1vdqT89Z7fjtQOnI2Xb1PxByEmjC718EEYIikIdjU+Z5tvZiCO+3rgaiOh/vtqXHGzeH4S1Q9d9pdwXoRcwn4mp90k6+gs81nMdfcF14hzE2abNPO4iXkPvIkZVdvSGx/lG3ZdRvVc8Ezw5LrLdoP/UgouMUl96LL1RJjzkStnqVlHpEgxpn/RrUYmGjfHTmO4HPOiLEElSL8ILdybezYoBDMrinNHETNj9yTvyGN1QdYEXja6WOrKQL32GMPOvqYHgoSPvrEDHr9jbdV0hcOWxI3J2FQEGANsIoVfzgHnIOCEMdx7WJ5MivmUA/t4FpcPb6PPlAHYC1MlchlzT0rDaH6YxVeXN/oD2APdbk92A8bMA9hY8b1sHlhsGizn8eHuqZtJhREGe4f+7Sgk8dTF/ukXE+goOUPcF08IOmjvP9QPrdGUwpCpVeMkq6UdVgZhyXN90zzVHbFKANtdaDuK8ZWVgoyFCymjWLrCBT0/0DKuyT5u8SEgOa5zGXyuZS5krlqyj4AxRvUe+7zLwfexToURKw5ZPWNnScoBxe+RbmuPRTUyR7cNVAnf81kdT1/3ZTAdW7Xeek1leGYlXMBQKgBStt195TR1ja5bXPvvP2BZwuUmfL9Wc2BO28hYXm3OR+RUBCK0n0PVXPJzyV/2d+rtWG2qZ87g04J1Ec7zomSdE2fIzmWv1Ol9oGwGIEAgUOGnkxPPvMcbcz9j4JK+pLgNHaEQUFuA0AMYA7ArBjlHdcH2OI2k+yhFESfDNaSqBPRLtfjPgD2YDfs4Gu2PexDOYZvXIYVf2H2c70wUMdxBnX70Qf6CmtTh4IdO3cJzL05PrazXPYCBeXLSuQHrVwctZztwNJUpc6rTyj4xNeemm7EWZTZ7leU+dW2XpKRGT0oNE6fDfxFXbsBS3znpQeD9QkFC8upt+5SQaPHjBNfl/ddIh8wIaB5Xs7vI7FNftyID5SXDyillaGsy334Kbl33kecGTjVM6vMk7vobXLnLAi+zyrzhEyzue/WBK+b733Ykv2JoF6Deg7lkfgEikQVkxBxCY0trVoMSjjErCvlMuBUc2SOuYzP3dmvkzvlNnIWvGl9bu5rr6tM0e7Tz5E7dyFVbnas5cLmB2pXZJr2t+deouyaH1O1Eda2XC+vd408j7p7HlCIffH1t/TWvz5S2YJvvvV2ghqwT99+1LZdO2revAVV9D1OxQScNOVmeuaFl3wlIJYEFwsC9WccBwVhIwNB7E1oprdlHrNSkBV3UUtp9bpmxmDUR9/IjBzVPwNElNfb4/4B4cz6GB+uQxFo3uM2APygkEQ5xA7EddQDaES9MCCo14f9rLJkJWNYfyYURDn0DZCIjW3g9stpL1CwjL8olJOjiC3hf2g69qgHKIgluHdh6W1BDcgx+k49jDK/3oZ+tv02pYOBDAoR+6+YuH4MBZFluVjFX7H1ClDw/9+nHc1+vWbB4uUzEP4ZaGxzY0JA87yxjVfG03R8W561PGvxAfEB8QHxAfGBdD6wakMl3fPgw3TdDVNo+IhR9Oc//9nPFKxnC0ZMwKm33U5Ll3+vEoNExQSs6TOIg4IAagBRAHJR6jbTDq7HgA5gC/V1xZxZB+cM9qCwM+8znLTBNK4XBh7DFH+sZIwDe2w/bIBt5vhMW23nDPbQhu0+XzOhIK7z+GzzwvXKYS9QUKBgpHOXg5OWuw09BpzsKQVrG3o9/LYXYw9gDhAQkO62Ci9mIGf0vbk9bbXDNmrLPNW5tGDwkZ5evwCSaSBdfUJBPJMOFbT9n1vSkmUrxNflfZfIB0wIaJ6X+ztJ7Ev3ZV/mS+ZLfEB8QHxAfEB8QHzA5gOP/OMpatGiBXXs9Bel/qvo249at25DSAyC5cB9KvrRBRdNoFfnLqCvVqxSKsBSKAFttujXoqAgQBkAFoM9nEMZB7hlA3PcLpcDcIOijq//sKFStRdWnzP/hmUMRp+oa6rzGNCFAUHuH3ZBrYcxQW2Heog5iOtcJm7PcFSfl7g6fJ8VkKb9fJ/3JhSMmxeuVw57gYLyIznxh6kcHLYcbbjw6skeFKytmHlIssFKwCmnRycOub1dFRS8vV1poeCzx3h2pE36UZ9QELEVJy+k3/5uZ/Fzedcl9gETAprn5fgeEpvkx4z4gPiA+ID4gPiA+ID4QGl9AGo/xP/7fu2PdMbZ5xKUgc2bN1exAZEluFTLgdM+tzAoCFDmKQSDsfh0xZytL64HeGe7j2sAamhbB4scey8O7KE+2kZ9hnloL06ByLagT5RFfWwMPPl+3J7Hh7pJbOX2WOmHPasTw/rWoSCyD6fti/usj71AQfmhHPrBrw+HbIh93nDrnbUHBaHKQyZeqAKfOSEe8j3Vufag4JwjPCh4zwvFKQVPnJCuXho1YljZP7SkzPjH6MCD2omfy7susQ+YENA8b4jvKbG5tD8SZD5lPsUHxAfEB8QHxAeajg9s2JKnJ55+lq78+7X0/sdL6g0Gss/ZoCDAGSsCdaUf18F9KOZMtRyuc+w9HHN5c497uuIPqj2AL1uWXrMuzjmeH1R+sAG22MqFXSsW7MFunhdW/SUBg6aSEfajnmd7UE0Jm00omHRewsZbl9cFCsoP5VQfxrp0zobS1/0PP+5BQajSwuBUsdexVHh6n3gYyHH/5h9eBQVPb1m9HtR+D/T22px5TPX7WjvWBCWomzauICsF6zoRy+SFlMEzOXUSHdOrQvxc3nWJfcCEgOZ5Q3k3iZ1N58eKPGt51uID4gPiA+ID4gO17wN1sTQ4yXM0oSDAFwBdlNKP29XVb7iWNjMuK/7QX1KlH/eNPaAa6kJ5p1+POmYgiL5N+6Pq2eaF1Y1xtsNOWxmGhab9OhRE9uEou8rtnkBB+aHcoBy23D5AsGf2vIW0zY7NPDBYLPyz1eNlw0kUghrM82MKmlAQQPC64zyod0MhLiHiBGp1Y4/RBpSLNnvDrjEUHDs9Xb2w9pJeV/EE+1CmZTsaPeYM8XN51yX2ARMCmufl+B4Sm2r/h4DMscyx+ID4gPiA+ID4gPhAOfgAQ8ETBgxS32/jMuOaNjNY+3jpcgXp0mTGZYUgwB7asakSzf5wjnKsNARYg3oPYA3gzlaer+G+qWTkeH1xaryweQFkBPSDPWb/OPfUgOFKRtRn9SHXX7zkS8pkMmoTKBiCGfmh1sb+9rvuVZPf6S8Ni8jWxlxIm3X/hwoJLJo129mDglCnJYVWceUemOct133lyFTgzgoF0QbiEt56e5V9yF6Ma2kVgwCLqBtnP99nKDj+seR1uG5N9h0qKNOhD229YzOCmlM+G3X/2Wioc25CQPO8oY5L7JbPgPiA+ID4gPiA+ID4gPhAw/cBhoI9evZWqjtArLTPFSq4YtR+rBRksGgq5sLsQDn0B6CGMrr6L6wOrsNO9GmWiVP8oV7cvPBY2Cb0wdcY9pn98rlp/+z5bwgUDGGB/mWevNrYCxRs+C+22vCLumzzoLbt6Gc77KyWqiaGZXHA6/b7PWiXRsmHsv129bIP99u1CiYiSzEUfmbmYPQByPdyCvCIttIsIcYSXsxNXULB+1d4fXYbSr/+bTOl5qxLf5C+GvY7yYSA5rk834b9fOX5yfMTHxAfEB8QHxAfEB9oyD5gQkEo4tKMh5V2rKTDPg6CcUxAKOQYorHiDyAtqj4Aoi1jMNphFaBNrQglIMCe7R7Gi/q4jzb0/hlYwr6oeUEd2M5jwrzgWG8rSX3YMPOlOQIFffoXchA1mTW9J1BQXuo19aGa1r9m4iTaeodmlIE6LQ72Jb0PVd9NQ6vAXlI4eHpLDwp23smrCyUgFIG2fgEJcS9N3ELEFUQdEzDa2sc1hoKlVFGG9cXXASABInuOox12kszDNfXvplbfhIDmeVObDxmv/I0VHxAfEB8QHxAfEB8QHygfH9ChIAMwW/w72zNjhR3q8X1ALaj4omAYx9JjIMh1cY66gGt8Td9zvTBAhz5Z1QfbuC6PS7/G98w9q/tgS5p63A7X15WMfC9uz+MTKBgCAvXLcZNZk/sCBcvnBVWT59iQ62IJsR9X8ImNdgDHwCrpHlAQWYeTwkAud/l+VclGkDEYSkAoAsP6RexClEG8QG4jav/CUR4UxPLmsDb16wwFpy1OVl6vW+wxMh2j39aH0egx4/w/Lg3Zx8T2unvPmRDQPJdnUXfPQuZa5lp8QHxAfEB8QHxAfEB8IOgDDAU5puAPGyqVYg5wKwrsMcAzY/GhDuqyYs6cb9QDOAwDe7gPtR7K6Ko+XEebWDocF3sQ2YgB5aDWY7CHY9MW2znbDzUi2tCBp628eQ3zh3rYcGzeDzvX52XB2/8SpaAOAG3HYRNZiusCBYMviVLMqbSRfk679qgobVzBOwsx/6IAne3e7e2qoGBSVR+WA0P9Z2vPdg1lYV8SaMdQEEt6k5QvRRn0OXkhbbVXO5r9+qLEL3bx+/R+3xjnzISA5nljHLOMSXxffEB8QHxAfEB8QHxAfKBh+ABDwYGDhwR+57DiD7DK9ixxP0pRyIo5vT6OAcviYgey4g9loe5LWk+3k2Eg2kgL9tAOjz8MXup96cc8L6z6S6JONMcn2YdtFNC4pk96qY8vmHCpJBqRzKLWF1+pfS2qvWGjx5U2dt49L3igDmo/G5iLuOYnGxl3TDJ4x5mO/3Fssr4AG68fnwzy/aGlNy+lUlDGQUMsHUaf96+gXfbYs979Ispn5F55fvEyIaB5Ls+tPJ+bPBd5LuID4gPiA+ID4gPiA03BB8KgICvmTMUfX4eaL2p+OG4gFHcAZFD9oS3AwjilH7cLFSKgHtdD33wvyR4Zkbn/JOVRBnYC7EFtCJjoHcerE23zwmAyCkoCCPL4eF50KNi6bXtlS1L767ucge5CTzOhdxLeqM2BChSUl39t+lfStpHhluPYlUQRx6Au6bJeDRL+bK/tKLPdf1HmzLHJwB1AGzIKp1muDLVgHKDDfcT2w5akbCnKIK5jz3EqvuPI089I9Uco6bOWco37nWNCQPNcnn/jfv7yfOX5ig+ID4gPiA+ID4gPlLMPhEFBtpkVf6yY4/OkgI4Vc4B7qMvtJt1DjViM2o9jC3KmYrY/rl9zfGx/nO1mPe4nCgxiDm3zokPBjp27+KrFpHPOfdfHPiHSowYBBY8+tmdqh62PSZc+G+cfmSVffevFFTzwsNIAsGcqPaXg3SmW9TIYPHhnyvzqPylzyePJbQGERIbipBASABEgMQ7kAQiWMgFLVH9IZlJIMPLL/25GN0+bLu8EURGn9gETAg4cfBLJ35fG+d6Wv8fyXMUHxAfEB8QHxAfEBxqaD8RBQVb8sWLOVA4mGS+DPTP+YFxdqPXQLysGk9ZnEIeYfrAfYI/tZzWe2Tcr/TA+E77paj7zHs9P1LwwWMR49PoAibBLvwa7TCgI9SLKxqkzzTHVx3mjgoLmmvr6mFDps2n/UUEW4pKq4gDdJg5MtqQXQBBADwq+Vr+nzPa/pQyW0kZBNPNemjiGHK/QbEM/Z0hXV1AQCsECFGzWbGdCAhj5TDbtz2Qxz9+Egvhvn/x9ET8qxpekjviN+ID4gPiA+ID4gPhAqX0gDgpyfwza4uIBcnne60AsjeKP++OYfNijPgCjCdG4L+zNenyP4/aFKf5YUYhyXEffc31APP26319IPb0s6mIMsJ+VjPp9PjahIF+H7eiPz8txL1BQVDRl7aDl+KGJs+kPB7SjTIc+6WCcDtLM4xuu8LIDP1BBmWcrKPPKkZRBBmAAwBk9KAM4d1uFt/QXSj8kDek1xINjp05KZ8eMNR5UTBJbkAEkFIamzXzOUDAtnOT6afZIZIJYghhzpwoCoI17VnJfvqTZfECgoPiFzS/kmviF+ID4gPiA+ID4gPhAOfhAEijISjsAKY5/FwXmeFyssGOQiAzAgGJxij8GbWbGYI73B8WcrX8GkGHgjO0BXNProzxiD4YBQR4P6qAu4B7K8rxgz2Wi9qz448zGYdmJw6Agz0ucnVE21PY9gYICBRN9GGrbERtT+34W4lJl2wWo4+zAUAHaNtzXl/ICjBUUc6HALgy4pYktCFuishAzFMQ+rL9SXYcasZB1eL827cSv5d1WtA8IFJQv/I3pb5KMRfxZfEB8QHxAfEB8oHH5QBwUBIACyGOwx+dhijv2Dy7H9fzrmxwF1cIUf6wIDAN7aAd9wyYTjuFaVD3UBdhDOVb8MUhMCvbQBi+H1ueFxxe3Z7Bns5/r2qBgknnh+vW5FygoP5yL/uFcn45bzn3f89BjHpArtToOMQahyntgHmUefts7fuJrO2y7YpZnQ7eh9vtxIC5pbME7BnvAMqw9wEmo98Lul+o6w8cTJ9AvWrWjCy66RPxa3m1F+4BAwcb1xbmc/16IbeJr4gPiA+ID4gPiA+IDaX0gCgoCurEyUI/FB7AGtR7AGtRvZp9831TkcTlWzKENHewxSIxTErJij+P4sYIQMfu4j6g914f9aMMEl1F1cQ92stovDkLqbTGAxPjQJ/q2wUgTCiadF72v+joWKCg/nBN9COvLQRtqv0hyUdIlxGnhGUOyYpcxJ40tOLMQwzDMPlbvhd0v1XWOJThsEiGWIDJBN1TfEbvr/4uhQMH6fwbyOZBnID4gPiA+ID4gPiA+ID5g94EwKAhwBjVbmCIQ91kxx3H/eI6j6nEZ7E3FHyAd2tTLRB0DrKEv1MMeNkWV1+8xaEM90369nHmszwur/pKCQfSllw2rb0LBtPNi2lyX5wIFBQom/hDWpWM29L5mz1tIW2H5bl0sm7WBtWmLKbPdjpTZaTcv2cjY6V6svRMnUAYAjTcoCQEOze0vPShzcAvK9NyNMv129baT9qDM6JZV23l7U+by/SjT/1DKnDHFGyvGi76xdPqJjV7W4WLVirZx2a7psQQ7V9BBbdvRynUbxa/l3Va0DwgUtH8BbejvZbFfnqv4gPiA+ID4gPiA+EBj8AGGgicMGBT4vgtgBxgVB9qgegPs4vh/nDHYpiA05wttox9WI4YBSLMen6MP9I0NdXU1I5ex7dEvVIqow/brsM5Wh6+hjj4vrP4zMwtzeeyjlIyoz2pFnmsdCrZu217ZqbdXzscCBeWHc+BFUs7O2tBs82ML2kBWqa8BjGGpLuAeYCS2X2xDma1+XnWOa4i5B/Ueb4CDqGduuH7I0ZTZ5/eU6byT2n6213a01Q7bVNsy2/0nZbb7VbAftgH9/6mV11+pl1PzHKqx9KHMjQuVSrCh+YnYW35fTgUKlt8zkc+JPBPxAfEB8QHxAfEB8QHxAc8HGAr26NnbV8xBrQfwlXSOWPEWphyMawd9AezZltJG1WWlIIAcg8Go8nzPLMv2x4HBsHmB0pDHwGCP+8IeIBF92u7hPqsWUQ7nJhQMq6f3US7HAgUFCiZ+cZSL0zYUO16eu4i23qGZp9RjgFXKPVR5OggEEGTIBwDX43RPLYgyUO0V0zdiC758JGXmH159e7ErZZ7qTJlbjqHMWT0o8/d/empBxDNE/+h32+0o0+5ozy4ASR9M9vHus6KwGNtQh2Mnjp1OO+zbTjIOy/usJO8zgYLyo6Oh/J0RO8VXxQfEB8QHxAfEB5qeDzAUPLZ3Xx+sAWABVKXxBwZfDLaS1IWyT4+thzh9OE+i+APA0zMGw15WHEZBtDAlI4AkwF6Y4o/BYdi8QA2IsetxEmEHrsGuKJswV7r9//p4CWUyGbV17Nwl1XNIMu+1WUagoPyIblAOW5sfhtpo+5qJBfVesdArrB6AG6vxcGwrx3EFw+7b6pjXEFtwar/qQFCHhM8W4goiCYpen/s3FYK4zrEGGRLiml436bFa9lxBmYozlEpwybIV4s/yTquxDwgUbHpfrmvj/S9tih+JD4gPiA+ID4gPiA/Uhg8wFBw4eIgfIzBOMWfaoWfGBViDoi4OgqENVvoxaMPeVPGZfeGcl+yaykKuDxts9Xywt8mx3kcdm+IvST3uj+EobDHHx2XC9pgzjH/mS3MECsbRxbBJC+mAMQAAIABJREFULMX1CyZcqh4APhSlaE/akJd3qXwAkGrPA9t6y3qLVevpgAzKOoCwPdtWKe30++YxMv9CoWdeT3o+Yw1lrhpIGYA/HQTqx3OOoMzlx1PmnheC/SCOIaAfYgza+sN8ABgizqFa1tzHO086T4Cde7alPe9dRC32bEmI41iq5ybtNO13wKxX5xC+bLEf4L998velafsE+4LsxQ/EB8QHxAfEB8QHxAfq2wcYCvbpe5wCUp9/s1LtoZhLYhuDOAaJHD9PV8zZ2mFlng3sRSn+0B/uc39m26zOA9z7YUOlPwYGe2Z/Zn1W/KEP9IXyAHVh/Zn10T9gIFSM3IZZJuoc/QgUjCOCVLsvDoGCtTu/UR8AuRc/94BVCo6ZijkbKIu7xktwkyrrOMZgXLtR92+8woN+r4QsIwYgvGkoZW69PQj/sJQZUBAgM6p9vsfqR4wxbny4v8POtPd1jyuF4OgxZ/h/PMQn431S5ih6jgQKRs+P+I/Mj/iA+ID4gPiA+ID4gPhA/fkAQ0HEFGTwFRcjT39erAzUr+FYV8yZ9xgkAp6Z93DOijlT8RdXT2+L4xuiLV3JqJeJOmb70wBBvT3Yjg1969ejjnl8s+e/JUrBOC4YNZE1vSdQsP5eSDV9dk2l/jG9Kjx1XxzsYkBm2wOyYUsK2dAGg7kwtZ6tH/Ma1IKILXhPn3C14AO9KQN4qNdlIJlU+Ye6mB9kKwZMhIJQb08/7tCH/nBAOxpx3iUKCopKUN4BpXyXCBQUfyqlP0lb4k/iA+ID4gPiA+ID4gOl9AGGgv1PGBCAV6yYC1P8sSIP8MxmD9+HWk5X5wF84RqAYFTsQNSHahFgDfVxzhmDcWzr07wGyAnFXjFgDypD1MOm22/2YZ7zuDEvnACFMzObZfVzfV4WL/nSh4LIPsywVi9frsdxLI/vZ/ig2H1tToBAQXnJ1qZ/lartI3sWMgMXAwY5Bp8OxpIcFxR1scq7uLYe+9RTCwL+6UuH+XjmMR441NtRS4IrwsGeXtY8ZtWgLR6iWjbcniY8s8gDgq8vSvQHplTPUdpp/O8bgYKN/xnL51iesfiA+ID4gPiA+ID4QEP1AYaCYeFtWDEHaKWPka/HATqOq8dgD5AtDCTq7fMxK/7S1uP6gIqoa9rP98P2PD4Ge2GqRrM+1+N5AdBD/1FgD2X18enZhxF6CPcwD2Zf5XielPEJFJTg/Q3CocvxQ8Y2Qc22/U7N0isGofYDYCtG7QdVIVR3iO9ngre05/fP88DgHcdTxlxKbEJBhpE2qJe0X7SB2IlQHLI6Ekuwd9iZ+gw8WQFBJHLh+ZW9fLErlQ8IFBRfKpUvSTviS+ID4gPiA+ID4gPiA6X2gTgoCGAFIMaKP6j7AL6SxstDeQBBwDnUQV0GZknH8vHS5QqMLftubarfawBx6A/2QzEIO6LUibAHtqEOVIlsJ+qxupGvmbZHzQuDwTD70Z8+LyYUhGoR86eXMfsvl3OBggL7Un1Iy8VxG6odgFjb/baZB+qSKAZZMZekbBhsg8oQYC3sfprrUAxiKTESi+jJR5ChWF8+jD4BI2tiN+xCfbTD9u/Znroe25cOatuOevWuEN+V91et+IBAQfny3lD/xojd4rviA+ID4gPiA+IDjd8H4qAg+wAr/opV3gGsxSnmuC99z0CN90kVc1yeIR73H6f443GaykKc62o+3UYch9XjchzX0LQf55hTLoe9CQX5HsqliVHI9epyL1BQflQHnLkuna+p9uWDQajgoqAZA8GaJihRy23blgYKAtQhxiCSikwcRhnAwNsqPEjI2YcRQxAgD5mP0wDHsLJQCTZvo9prccBBCgb+rWs38Vt5d9WaDwgUbPxfppvq3x8Zt/i2+ID4gPiA+ID4QMP3gaRQEM8aAAtgDHAqTnGn+waAGpR6nNkYwE6/H3bMYA9AD2WwR99Y0suwz1YXMfxsABL1o9SK6C9KAYlxcFxDxFzkvtkutpOvm3vUh/2s+INyEHbiul42DAqmmXO9vbo8FigoP6wDzlyXzteU+4LK7Zf/HaEYZIVcTZbfMmQrZVvcJvaAg1AHYrvrySoAWFji66v79DrFHh99Gv1sq5/Tr3/9G0ksIu+sWn9nCRRs+F+Wm/LfFxm7+K/4gPiA+ID4gPhA4/aBpFAQ4IqVcrxP4htcjxV6YYo5sy0uZwOIAGuwwQYGo+qhD7YHYE7vE0APbcaBPfSJcrABfXF7Njv19vVj9I02sKEN/R6Ow6CgWa4czwUKyg/sag5djo7aGG0aPWact5QYijqANM7SyxAvKvtuWriGPngJbtq6acvDbigFS2V/z3EKoG6zzTYCBOV9VSfvK4GCjfuLdGP8e1KXY9ri/F/KrlpPlbn/qZPPY62PrbJKNVDrfZXRO3yL+2+qXL+ZspuCSodSzEF2YyVll/9A2bUbS+cj6zeT8/EXidrDmHKffZmobCnGK200rb8ZuW9WUnZjlirzJR539ifKfbmCKtdvEt8to3dlOXy+v1m5jr5c/oPaGKglgYIAXxxTD2o1PmfFW9jY0IdNmcfKurD6nPk3DLShXdQ1VX1Q77GSMMwmXIf9uuIP51AyhvVna4sTkOjzYitnu4Z+AATRJ/o2y4RBQZ6X79d6ykmzXjmcCxSUl041hy4Hx2wKNixZtkJBLj/GIEO7mmTtDQN4aLsUMf7C2tevw370VdNlz2hz/GMKCDZrtjPtuOOOtMMOO4q/yjur1n1AoGCJf+iIz9a6z9bl30znlblUudXuVLljK8quWtfgx+YMHkbZPx1A7oyZkWNx57+pyuX2PjSyXF0+C70v9413yJ23MLFtuU+XqueY69g9cR29v6jj/OVXq7bd8Zd4bbv/JvfCyyh/9wNF9eV89Bll2/7Vs/e7NbFtuDfcrMo63XtRLibzI+CO884HsW1GjVfdyxO5b7xH7pXXJYaXsW3Ku7Pmz6XEc5j9sVL5Ft6B6l1YovYBGtV7Fe2eOLTsxi2+Wvz3os++XEEL3npPbc+/PJtuuX16YBt/4QQaPnKUvx151FHUrl37wHbgga3pgAMOVNs1E69X/hEHBVkZBwinPz++DginX+djvm/W4/vYhyn+cN2MvafX42O0rdR2BbDG53w/ag/7OJ4f2mAlY1Qd/R6PD3XTwERdychxCE11YhgUTDovup11fSxQsEQv87p+cNJf8S/ncpo7gEEsJUZW4q22/50Xh2+PA6uy7eqwrSbHpVbvhdnC2Y4BBTljcFjZuOvTFtN/7tpSgVMkFkH25hZ7tiTMWTk9Q7GlcXwW9ecoULDxPVP9+Tb04+zaH8kZPoacYadbN/fSq9Q70lm6nNyhIxNt+VvvTPZeBfgYMkL9eHWHDE9WJ8X3LMAcp0e/8O2Dj/0+3bFnh5fr0Y/cO+/1y0Y989y+h3rjee6lyPL5x2f4P9qj2sM9/MB33/xX5JbdlKX8bXeR039Ium3Ru9XsdD74hLL7HKLsy0+eSlBzso25r1aQs/Cdapt770OqfHav9tXucfncyuKgb/6Sq7w5veBSZYf73Mve3P1mLwIozK1Ml4ky9833lNu/oze+iVP8sfEY9X3uy+VeX1vt7oHE9dHKDPe0Mym7exv1LCo3V18Olv12NTmL3iV37gJyZ80m98lnyL3jbspPmqpAp3vKaZQ7vJeC5D7UGX56dRsBRp9+ruRbds2P1ftK8ZnT506O4//25Z+Z5fuXUvWVaq7xbp12l982PoPyPOKfR9wcfb92k6+w+/iLZbTgrXcD2/Mvv0ZPPvOcv93zwEN0y+13+tvfr7mOLrz4Un87bfQYGjL0ZH/rf/yJ1K17d3/r2KkTtWrVKrC1b38wde7yV7V16344VfQ7LrD1ruhLpw4bQaNOO11t555/AV1y2RWBbeptd9Dtd92rttff8HwjDgqyog4QzJwnXINiDrDKBFt8XY+9Z6sPkMeKP7SHtqJAot4GVIsAa1DcoY6eMVgvF3asg72wzMBhdXleOC5gEjBoKhnZfowZ4+CYgSYUTDsvYTbXxXWBgqV6mUs71V44deHAjaUPBoOZX2xDme12pEwpYgnq0I2XJLMaUb9XymPOOox9Tdvt2EcBQagEAQTxrDFPSNTSWJ67jKPmX/hqYw4FCpbnc6mNZ90Q2wTkYfhg2+e69lDvSOet9yPL6XXd085I9F7V2wSkcY6qSLQBIGax7FiDVba5V3ZAhRiyuQvf8u3MdTo8tBzqK7VazHczwCbuK265aRoo6N54i98ut2/unU++IHfsubHlzHruC6/4c+DPoftvco4f4rfl9B1IlVtcVc69epJ/3Wwr7twFAImZQ9t9EwpimaV7462+HYDVtnpR1/JTb1f1s7vsTzZ4x3X1uXfnLIjtJ3/zHVV2XXxFtfLutLv9+3HzBdvckWOtqlPl+yF+Hddu1H2oE3nssk/+twtLzN1RZ1i3/D0Phs6pO+Zszw//dECq5cOA1VDyxm3+PynwD50k5b9PB9gbmo+899ESX2X36BMzAgq7v0+83lfXQWnX/4QTAuo6qO1at27jK+z222//AKwDvGvRYk/aY489/G3XXXelP/7xj4ENIK9nr95qQ+iniy+7wt+uv/EmeuqZ5/3tlbkL6KsVKwPbNyvX0IpVG9T23ZoNtGpDZbVt/ZY8baj8SW2bEdohwXuXoWCfvsdVK89Kurh2OAEJgzFeHhtXj++zwg9wDMo7QDC+l2TP9dOo/RgIoi7by/bH9WnOC6v/cD2qLttplgFQ1dWKJhTkemnnxeynLs4FCib40NXFg5A+kv8hb6xzBdj129/tTFv/qSVl1BLiPtHZidNAN13BB0CYpm7Ssgwea7pMedpiynSqoN/+rhmxQpCfOeCgKAXls8L+UFt7gYLiY7XlW6Vol6FgtvlBavkalrBhg+oM8KAaFNyxVaAcl1f7sy9UddzRZ0V+IYbdiBHnHNknMSCpBjK2OFSJLeJ7F0PB/H0PE35E8+YWgJANCrqvzffLqR/e19ygbEwCBd277/fGs2OrWNtSQcHHnqJct57edmh3f85ynY7wr2eXfuNDQfeKa8h550N/w9w5/Qf757iXK8y9FQri+azeQC6gFsay1e7kjjlLgUF31quUP+eiahsUbuoZNdun2j0u77z7UeTzCnuW1aBg4Zm7Dzzmz4VSmv64JXH7UC1mW3lqSOeEk6jSFguyMk+5jh4sVpA0Scy33P+Qe/4E3y7YruLFsc0FKJhr3Ynck0YQfNS94FJyr72BoLDNP/oUua+9Ts7Sb+w2FdrRoaA7+szQOee5j9tX/mYv7zk3MSiYW/IVuWeOJyiF88/OKjomZg4K0hBI64wcp/zSff5lcqffG9gUlMZ79rBjA9cD5ebMr+bXvKQ9rM9ir6t2I96pYZ/RJNf1OHaIZ/fmex8GVHavzlvoK+ygtkursoPi7qijj/FVdge1bVsN2nXo0NFX2XX6S2cF5lhpd+KAQb66Diq7cWeeHVDXQW03+aabfYXdfQ89Ss/OejmwzX/zXQJ45G3Zt6tp1YbNgQ2x49ZuctS2fovjwztAPMAeAL/Pl32nti++/p7e++jTwDxBnfjM8y8F5uqOu+/11YhQJl56+VW+GhHKxFOHj/DViJgnKBJHjxlLAIz87BgKHtu7rwJTrPhjBZwt5h3X1fcM1hhgcTt6mbBjBnQeGFvlK+bCyuvXAQKhNER/HN8vCTwzlYxsf5xiMGxeME+scjT7xznmJUrJiPqwH+U++PQLymQyamvdtr2vpNTHXa7HAgVr6UVarg9c7CrvH7uzX1+k1HGZzhUeGARgK5VqkFV8aDMp6EtTDnaibQDNNPX0spMXqqXUUAdiEwBY3v7aWN8nAgXF73Tfzi5fSU6/QQq45J99kZyPP6fc92sJyz8ByqDmyJ91gReXbuy5pGJO1eJ3Cx8KHtLV/3EAe1nFZ0JBxMvTx6Mfu1Nu88DCWeNDy6A8fojzj9bswV1J/VjGD+aIDVCM6yg1VoI5YShogi/34Sc8Oy1KQWWb1jZ+nKPfWCiYJ1LxAUPAgGrjrAv8eUkDBfU5VnEXC30ocKTbWlAK5u81lEmAegaoZSWgOTd6XzjO3+wp6mC/e8b5vv1mOcTpQ5lcm86hZcw6Sc/DoKCy78XZ3vO57O+plFao6746r2BzF8p9t7qa3e70e9R9jAvQO6m9SsmIuSo8J/fv1/l1WSmYh73as0t7rENBLElOW98sz0rZYpWCAL54h5ntlvs5YCw/J+yz7f5K+anTUsdx1KFgfuIUFe/SGTZate1DwUKoBL2/JMfueRdXm9f6gIK6yg4x7e6+H0tjq+LZAaLpsew6d+kSUNrpcewQz27vvfcOQLuWLVv6Cjuo7UyVXceOnXyFHZR2psoOirsHH33CV9m9/f7igMIOirvlP6z1VXaAbz+s3+Sr7ABjWF2H/cYikl/p8f4wR6YaEfMVN0+6GhHztM8++wbmCYrE5s2bB+bqT3/6U6gaEXN1znnjfTUi5gmKxHkL3yJdRchQcODgIb5ijpV/tsy4UZ9tBmuAe1HlzHsAewwEvX2ydxsr7BhA4lmiPsCa2Yd+DjsB8PRrOI5T/PH4ouaF1Y6whdvn8enX+J6+Z/tffG1BAArG1dPbqO9jgYI1+ANf3w9P+m+cP1yhhsMyWcTTywDkIXMwQNvY6cXDNoA3XclXiiQgOszD8Z5ta5Z1+NRJPhDE+N9+/xP/pSy+3jh9vVyfq0BB8Tf2TQCd7G4HBn6Exv0odCOWnnG7NdmXEgrixzDGgyQQVpu2uJT/xz8pp6ndVPlTRlPus6+sdQCblJKLAQviZCX8rsVQMH/vQ+R8vszf8hNv9Oy0QEGAIr2se9VEVTYOCjqLl8Q+Vx2qNRQoCAUdwKAzZIRSD2Lu3WdeIGfAycHt2OP88Ve7N+gUT/mmPbfsmg2UPaSbgjAAMVEbqxWzf9jfWg4+hMQh3AZUX7qP5L5fQ7k+J1o31HWOPc5+r6CSVGWO6VutTH7STYF+9D4B7VxA4B1bkfvCq345hoJKhanNh143yXGdQcE8kTP/TXKenUWV2Z/8ceg2MmTPdugWqW7U62A5enbdRqrcsJmyK35QEE7FzZy7gJyX5igI6z7/CjmvzlP3A3VD5k1lMl+7kbIbtijIiyX8ztsfkDtvETmvzFHt4lm4L77m+6N6hiEgX4U0GDGG8rfcQbkPPomEzjoUVNnUAdQB5+FfrBQsQMFcxYBEyk4VWxLv0wgoyG0nmZ+kZaDgO2HAQNp//+DyWF1lh5h2PXv1CcSy63/igIDS7oKLJgSUdldfe52vskM8OyyT1ZV2L8+Z7yvsACBNld2ajZW+wg5KO11lt3LdZvp06XL1z3+o7D78bCnNf/OdgMIuLt7f5BunBtR1Z51zXkBdB4UdxqzH/DPViHq8P8zR0cccG5gjqBJPHT4ycp50NSLm6bEnnw7ME+YMz4jViNh/uwrLiKsUiYBHrEb05qpqOTErEnUgCN/QoSDOP/9mZSKwZvoVZ8ZFfYAx7E3FnFkH5wB6KM9gD3tWzEXVx1htGYNxneP92eIZMtjj/kybUB/2mKq+Fat/VPOC+mYd/ZxVgRgDjlnJiHb1cmHHqDN7/ls+FOzYuUuiemHt1fV1gYIhf6jq+kFIf/Ij1PQBLCfeYaedaasdmnlwsBSqQc5CXOrYgqwShI3FLE8eMcmPHwggaM6FnMvnoy59QKCg+Bv7G6up8EMx6eY++HitvsNKCQV52WQe6hvL9yEV+00bO2AdzwOWcuIHvF8PceNmzCReXody+X88XXXf0r5ft3CPoSD3Ye5ty4fNMnweBwXdOzxVGWJ4Oe8tDmysIFSAsWBbbUJBJBtBzD3eMIbcX4/yz3Gd5zVOKWjOKc4ZbPHcJNnrc402dMVjkvppyjgnBLOt6rEe07QTVzY2q+sWl3IrVgV8lucOdfMvzk602bIZ1xUUdJGIpvCZDcv27AJ6Fcrk1m8KjNf3HyhpEQfvhVfInXCFX57rRe0B5wD6/La0zz6Aojt7HuWvu0mpq6PaCdxDGAT8w+HzZYltwftNzbvWP9uUBgomfY+xGrCuoeCKVevo+Zdm0+IlXwaUdlEqO8S1A+zQlXZbkiy3L8ylqbAzVYhx8f4OOqitH+sP6rpi4v3tu+++ASXioMEnBdR1UNhNv+d+X4kIqGmqEfV4f1Airly30Vcicuw/Pd4f5ivNPLG/1cZeh4KslGNwFhcjT7cHIE0vj3Oo9uLAHsqYgA4+FaX44/sAbroNfIw+UR826P3r4+OyYXteBo2+0tTj9ri+bXxcJmyvLx8WKBiCGcMmrxTXQeWxfhvy2VK0J23ID8Jy8QGoBnv0qqBf/jfAYB9PjQfVICBcMdl9e47zVIdQ9RUD70x1IM71eIWw7YmNyRWNNyykbVq1U0AQmYVHjzmDlnz1rXyOLV9gy8Unm4IdJhTE35cLJnhZNJvC+GWMVX8DoVDhH6bZQ7qSe9M0yl9+jVraCZCTO7ynUtFhyS6UWe6UWym7Ovq/0TWdXx8K7n4Q5a+b4m+IswVbo5YP5z7/mtw588mZ/Tohbl+2eVtVR8V6s7x3nJMKmYbHnusv11QqJE1lhvho7iNPBhNdIAFJmuWbhb6ROdfpO8i6QTmmgEfhhyuSdOhlc389WqnP+FocnHUGD1NjdxBXURu7Ug0VgInz+hv+PR0KIpZcGGzQ28KxDtPClg+zjyXZFwMFK9dvJpXBF1l8C5vz6lzPX/bt4F/jewrKFRKV6OOBuhKZjuM2tfQZiitkyY4qDxiL+18Yy8E2O9Y4mLneJ3o2Vwy03ofP+WqtM8dXL6NDbO2Z62M0j1Vmbg2MJ3pGJ5/m+w23FwYF3ceeIizjj9ugnOO2sA9bPuw+9ayaI9iJ2Id6HT52TxrpldllP8+Pf9yiPlvunfcpRRwygLPaM8l4bWUQWgDZeZGsxr1mMuX6DvTBtq18kmu8hDv3dVWCIKhR3SuvI/f8i1WcP7MdZNdW6kIjBmU5QkG8h1WswrsfsD43PD8FaZ9+TmU45+e5av0WeuPd9wnx8UoVv05X18Vl1LWpEOPi/ZkqxGLi/a3+cUtAXbducxBy8pJiZIblrVyAHj+7muwZCvY97ngF0RBrD+1B+QeoBrilgzWzL9zjcvo9XEddKOYA1vR7OMY13APY46y7ehnch1oPbeuKP7SbREmItjAWtIG2AB4B6OKUfmyDbj9s4Hnh+3F72Iz+sGEu48rzfdhqLh9OajO3UZ/7EIRX7XKm2pWUF2pzkAIFq37A1OY8S9v1N8+INYgkJJmW7apUg8UoB3kJMSsGSwEGi1UJDq9SB+oZhsXP6s/PZO69uRcoKD7InwVAKv6R6b6cIkZZQuDA/aTZMxRku8x9FBTkZbhmHV4+Z9qRW/atSqRgXsd5vpCkxGwrdClyDecECTPQly0GHhRcgBhK4Wf8+LfZ7nz2ZdVz/efzgS/9CgQWIFA2V5VJUYeCsMPtdUKoGkrvMwkUdEeNo/zDT/gb2kdmZ/2aD4G07MNQTmHM5pa/x4MK6Nu9/1H7dsU13hxguWxYmRkzA3PD41JAJeJ5+jEFR4VntQaUTrskl2GjvqybbeK9M+BUNS4F8yJs5PJxe/7MON17efAJACpkA9BRvmGJ0RkGBZ0jevu+iLphmwn4fH8wEo3kPl3qtxE2T0oxic9Sl6MImXYBzsL6tV2HalXNx9CRBFAH6Ae1MeYKe+fsC8ipGJCqTfX57dqD3IGnKL9A1my9TcR55PiJ+meq2tLzL5erf5RArajbjiXnetbqYqBgfvLNBPV0te2hf6jPSWqlILLMaplm8XmHzeo9FuK7HJpBhX4olHn9jXfor3/r6sexK0X8ujQZdc1YfzYVYjHx/uI+m039PkPBHj17B5R+PC8AYgBbgFV8Td+zIg4QTb/Ox3xfr4+yaBP3uJxtj3JQH8IGqPWS1tPb4v7Rn65k1MtEHfP4TTVjVB3cQ78AnuhTzd+m6ARpqMPjM6Eg6jcUMJgU7TUIKIgApnEPWu7Lj72G6gNQ0I04fRxts2OzgtqvfVW8waTKQaj4AAR5g3LQpv5Leg1QETEPASjRZpJ6V84iJFLZ6XdeMpELLrpEEoqEfPlrqL7a0O0WKCh/J9iHneGnqx9p2T8coDK58vX63DMURPbhgLqokEE1Cgo6736okk8AFmBpHTIWV1NpRb2PNmwm9+nnyL3ocsoe/LfAj27+AQ5FEJQ5zsJ3QmOapZ4/xEk7fojqz4QjaAvJXXwgc9f90d8FtzgKaLC9SlmljZmVYbnDjgm0o0NBxMNDfYA7a4be7E+E54RN3deUh+r6yrWqbagd0U6xiUaQ5IbHoe/d8Zeo9otZ/q63A2gUeFbZn7xln7sd6KmvNtt/LDEUBOhRfqDNL9pTyzELc6Jgr3E/0Kd2zxkx1vOBMyMSqKSAgu6Ls9XnAJ8FfUOmY7ZBxRnEM7rtLkKsQyhlkZiE7/Me0E/NF4DxM7Os93lu9UQjDAXxzAKf54J60DnxZG/MhuovDAqqzzPP7bjzqtkBexUgQ1zHkHipuQM6KpUnYJ971/1ejDxu88zxtEUDWTx+fc+fVR4v9tk92xIyTrtXXutl7b16ku+7KmZppWu1VW+XjxG3kNtWYQA0H+EylcgqPetVco7p65eFcpWfXTFQ0A1JPILs4eg3DRQEYARcVSEZCvZn1/xInFUaS7f9sfB95/8S3vsYu64Y/m71j/TSa6/7cexKEb+OlXXYm7HsTLvkvPr7oC7mhKEglIKAUmafuAbAZSr+8Ez5uq0et4NygGOI/wcwiLIc8y+qHtfHnjP+oj9AuqT1UBd9Aqqh/zRgD32gP9gKIId+w1SNuq36vOAY91A/Duzp82IuH+Z4hmnVirpddXXcqKCgLO+qn5dSXTmr9FP1fO97+HHqdmwF/cefCkAOUI7BHADhtMXRgA7Lh5FsBHvAvDT2vvb2AAAgAElEQVRLfhn8seoQ/WLZcNxy5vGP0dZdKvzYgQIDq56n+HZ5zYVAwfJ6HvX1+chuzPoxr1RsPdsPz3q45kPBhNmHAWbcmS9Gbia4gXIQqhwkJFBgYNQZHkj7zV7+D+zc/h0of86FXhKLpd8Qlr7hR7cJGnK9TyD3rPGkMnwiy+c/nlagKPttVew2qF/wAzlqYwiAH822cvxjWgEIrS33ptsCP5bcG27xx4Cy5vJhd/BwdR/LxHXf06Fg7rs15J7hAT20oeIXakkdEKPQt7cAU/Rzhm01hYLZTTkV9w0AAZuDBAcABgUoCGUUsmUXu+WWBdUggEHuk89Qdq+DVT9Ov8GkQIbxOfChYGHszidfqLnMbqxUULFy2xaenVNuDcyxPt+2Yx/8/n1SaL00SkH3wX8QYmPyxs9IX+bt9vGWLOefnUVOxUBv3MNOV5nHfRsxLxddru7lOh9pTd4RpxR03vnQOiaG1CYMD4WCWgIdlanXeDawWalt4ft9B3rLhLdtQepz+vgMBT4ZnPH4nPlvqLEp3wpRj3JZ7N0JV6ny2X0OUbA19/7H1UCigl4MGtlfLbbq7fKxC9hZqJtDFm1LPSQxgWoS0C3byvNXZf+8Rap8TaAgwDD+EcExVpNAwfx1XlIn5zRPPasSUuEZ9B8csJ9VnDos5PFhSTaPO7v2x0A9LiP7pvP9haFgXPg0BlMAdPAPADNsSQEdltMCzHlwrervdhJfQx+oB7CWpk/U4yXKsJ/7jrMZ901wCfvRtwlHTfvD5gVwktvUl0OjPs7ZNpx/svTraolGYBPgoq64NPsuh3OBgpY/JOXwYMSGpvNSr8mzXrJshcpUrGIOMhjkPTIXh4E6XvKr7xn2Jd0DJnJfUcuQJy9UMRGxRBibJBIR366Jz9dFXYGC4qPws/wjT/o/wNQSQihsPvhEqXmcwcNV7D4ElM+uCwnUX0vfL1JDQQuU4h+WvDcTPUDNw/fMPVQ97hP/VOADsefU0tMZz/k/ULOrN6hlhICRZl39XC0FLcyRimGWwE69ftJjLDvk90buu9V+rDSAILTBgA5lcsiuyqDiuZf9esofHp/h3+P2oC7j8lANAhTgnr6sl+9jjxiOWBqoQBPgSUEpiPHnJ1zpbyiLeQ5cK8ynrhBiO3iPJZeo60PBwvxms3lyp94eSFzCSU2s+3seDoyd2+d9Hko4hjKHHhZYlokyatmq9jx5SXkApCLTr0Vxx33Y9tk/HaD6zd95X6h9aaCg2QcvOfWhIOxjf1j0rlpqy+fYs0oUWXj5ulJvWj77dQYFkaGbbdY+l/5Ysbye70+/l7LLV5LzuT2TONdxFmhtvjY/dO65vFLpAWBtsStJUY7fY7AlD2BmmTPrNe2ZqLqPPKXiITpLlxOW/ru33KEUifjHAY+T94Ch2QK8rxEUfPcjZS8rXpNAQc6Kjn+QYFwA9WwXvzdwXb2v8BnGu8WYE078FJswx6hntiPnjeM7TlIoiOeNJbwM57BP6wMAZgz20tTlepzwI2nfUPahrt4X2x8GBnE9ykbfFstyal7qrPenH3PbsAFj4XvcJttkg4Jcttz3AgXlxek7drk7q9gX/kfs7fc/ofsffpyO7FmhlhdvjYzFDOw4MQnAHSsCAQsB9aAU5OQjUA4mAYJcl9sHWDTroS+095cK+u3vmikYiOX9SJwizzH8OcrclMfcNBQo+P3aH+nRJ2bQqNFjqGevPrTw7X/J56tUf9ORebN1p6ofbX84QKnT+EecvodiR8XxKlXfMe3wj2kkPtHfGc5b7yt7zeXDsBXLAbHHUjq1dBjLh884n5ye/dV1LOsLtPXBJ15b3XqSO+4cb1njrFcp98U3gRhY7vRCBt9DugXqq7bWb6Lc+4tVRuL8pKkEdQ82p0d/ynboTrnvPdUCykLxhh/G+gZ1GS/frtxlP0LSF/0+sptiKTMUixgbQCYUfIEygHSFGINKOYQlwYVlk1Dzsaox98EnSsnEP7pVfLPv1gTGpCsF/bmCWuiyv5OvfJv5YqCOGtuqdapPNf9LvwncZyiIe0m3YqBgmoytsEMHpf5Ydb9EpunnX65aygilF2ANlhdPusmfD+fY4xWEze7WRsVh4zG6N94SmqgFCiiVZRaZZvVNU18CnATu6eUKSXDcCVday+S+Dv7Q1MdnQkG1zLfwbFQCISgCZ7/uLxNWSri77iOO8+YOHRV4vnrbdQYF4YMFm23qw9ySr/z77muvh9qr245l1twmx/XT7xdzjKQ13Gb+5jsS2YF+lMI4xedF9bFtC6WKdJCZueDHdQ4FL/YyODMgBzhVy6bx7rrxFt8uFyAXn0Ek1dE+c9k1G/z5si1P18vKcXl8l6zt55AGCsIWLGEFNIPqLY1qDSo31MES3qSJQvSluNwXwNnn36xUcDJqOTD6Qz8M2ngecQ4IF6b4w/gA7Uw1n16fl0Pr/fMSZ7aTy9v2PIewEbZgXnQ7BQomQIu2iS3VNU40IsuHm8ZLsFR+05jbuWbiJNphp51pa8QfZHiHPQNCVhCy2g9gEPdtgE8HfriPNrhNszxgYMc+ogzUvsg1Zj9rrGNrCFAQ8YMO69addt99d+rQsSPB5nWbk8dkaqzPrqTjSvnDE5CqpP2HvEcYCqp4bf0GkVPYFAzEj8muPZQdDAmhrlLgCj8+b5oWsJETqaj7If1FjQlKSfyALfXyapUNWZt/LGMOs8Ods8D/sQxbzKXQej0X8eBgL9RUUINec4M6xzJKQCbcU/evmlitPysULMwZlEJQCupJA7hfPSmCr0Ar1HOwRHvGzGqbGsexx1W7jrLZtRur2cZ9hSkFdSio1FSL3iY3ZMM4YqEgj3vaXWq+VJyzLa7KaM1zqOZx/CUBxa3yWcDrCF9j9ZXeTimPlVoxpH8TCjrIVozP1L6HBmxGbMFcmy6+v7B9UcCsrqCgO/1e367APysQ5/K71Up9yvaqd0nIXOjPyH3mBb/NqDHqdeKOEd+U7UgDBXVVJtcP27snjSB32t2UXfFD4PnBtjqHgvyuhAq7MOecWETZX4jT6Hz4qZoXpXTUno07typ+qJ4AiduSfdP7DZwGCgJiAQhC5cbqtiQQjBV+XBYADO3EKf4A31R/Iao8tsX0W8A63NOhnVnGZj+PzyxrO+ey2POxrv6z1dGvcR3b+AQKChT0X/C608hx03tBl9szhzLv3ocfp6Gjz6A9DmxP2/+5JW3FKkLAvQMPo8yvd6JMsz9TZrsdvePmbTw4CKUfYhMC9AH+MUDc/ndeOZyjDO71Hkdb7dWOtt+pGR1wUDu1RBjKRVEGymeg3D4TSewpVyj43kefEoB/z169qeth3Wj4iFF03Q03EeJz9ji2pygFtR9QSZ5zXBkskXQGDSMs7XRPHuVlxLz/UW/ZV2VexRRTyqACSEIigrg2S3FfX3Zm+zFsg4JQ2aEs4obpNrgnjVTXESdOv87HzrOzvKQA0++17lnp4hzZx3ofgMLfCvCL2w7sK/OEuGOI98dx42Avkiw4r8y1wja9PpZxchIKqPYQpwv9qrnSYv2hjquphbB0srLZPmoOnAFeQofs7gcRlkDr7eM4Cgoidl/YMvIoKGj24Z8DXI4+q5oN/v0QX08CBTFmBbUAtmxbxcDEUBDjRjxFd858ch+foZJJKD9DXD2MAQpC99++ki5XMVCpQqPGAV/FMk9zY1Wnat9yn8vjPjaU52v6PgqAm1AQGZJVf4graM454jWecJK6r/rcsZXVb7heLBR8Za6qD9/TNwb3iWIKYq6RTKMwB/h8Yky2pbRqjjbZs5KyzbyHIpfbBEzm6zXZM3BFu/mpwX9WRLWrEgPxM95lf+/dfOFl5E6dptSreBcoCBiThbyuoSA/F6WkZV/asNkPZ+AD3PWb/bl23vGWKWM+XMTfxDsR6m6uL/smPRdJoSDHFATMgu8A7AHaQXEXBd8AAgG+uB77nVffU+XZ6uMaoKHtHrfBYE1vG/0hdqF+jcvrez0BCvrgtqL60+vjGGUxfoyPYy2aZcLO0R/stM1NFBTE+NLYGNZ/bV1PgPNUkQaRfViUggIgauuD0pjanf36Irr82knUqUdFFSAEGNzq58m2X2yjlIKAi4hlCBCIWIFqefDrXgDnxjRfMpam914pNyj46Zff0ICBg2mfffZRysBrrp9Mjz/1DI0782zab//9qdNfOtPFl11BX3z9bZP+glwfn9UA8Bl0Sp3Mv4JaAHz7dwyovfL3PKh+NNqgYPbHLVU/NKF+wo/JLW7VD9Ily6y227KIMhxIu8ePWdsPWihjsgd39e1DuwA6anlq7v8QVDG86c+Yr+l7qCMZ7LB9KiFDxI9nZ5iXYZrLK/WjpXwkFLSUZ1sDPmIsH+Yy1fa1CAV5nFH7pEpBtpuTJqBNQCNONMIgSyUaKYAcp3uvojJ5Iwsu2s917G71VballDEFOTaiGaMRfdkyP+fPvjDUtjgoGPU81LwayThsiUZMhW1Um4htyXMWtw8oBZPEFIz4PHBfAaVgipiCeqIgH6Ql6I/75X2dQ8HCsnYFmjV7lcIYnxvtHzPqMwJYeu0N/jNyBg9T/m8mQOLxyL7pfVdNAgVZ6WcDbazmCwNVAHuItRfmWwzj9LbDQKKtDb0+14NNtrK2a1zfBuds5fVrPC+oC+Whfi/qGHOFOthzG/ochUFBHp8+V1H91Mc9gYLai7k+HoD02fRe4uX0zFeu20iffvUtzZq7iG5/8HG67qZb6YJLLqcevSuoY5e/Bbau3Q6n7kf1oP6DTqbLrpmsYhhCCYg2ymlMYot8pmrqA+UCBV/734yP55w3nlq3aaPA33njL1RKwVOHj1BLhvsffwLdff9D9NFnS2lD5U+0ubD8qKbjl/rpPkMOYCAUHEf2qZN3Iav+zGDzvFzYBgXxTJFoAnZm92qvYgMqJRogS7eehPhWtufu3vuQUoJBDWZuarxob8+21e7pZVmBx8uczX6y6zZ6SzGhtGpbfUmmDjZUJlbEFduYVWPR75nHuQP+oqCniksY8V0PCje9LuIgmjbivBRQEBADz8l97CmloHPHnk22DfZk9znUei9/zwNW+2BjNaVgnlSsxMDy4UHDVCIGxJG0bXieSaEgsgmr7M4FtaUaF+bqEi/7LENBZdurcwmxBTE2xKlE/EHbPIddc8ecreo6p50ZWa9kUDD7k++PPC62jRWEGAtAt1uIF6fGdv4EFdeSy/I+FAoOH6PmG3MetanPr+bHNiiIzx1sMDcoJZWdp4z242i6p5wWOY9sN/Z61lu1vFuzQy+X5hhxPNlOMwN4VDuIFanqwedq8DevJlAQ4QwQkzRfyCicJNGIeh/BX16ZE5h359yL1Hh0Bas75TZ1TSlR8b5bt5Gyf/CS7Divzg3Uj5oruZfub3lDmy+Ggn36HmdVoJmZcc3xQXEHuAXVG2AczlEGSkAAwSSwjMEc9gBfUN/pbZl9mufoH31xdmP0bZYJO/9hQ6UCdGx/0rr6vMDmsMzCZr8oi750sIdrPFfo3wYFi5kXs++6OBcoWII/bHXxoKSPxv1il+crz1d8oHx8oL6hICsDW+61F/3xj38kVgb+rethgRiCq3/MJv7yJP5Ve/7FySJMSFdbc+4+8Yz6wQiYpPcRBwVRVi0fBgg87FjvhzWOP10aaEdvM+pYqf4AeM70smmGlXUffNz7gTvgZFKA0PK9y1nylcoKqmIHMrjs2kPFRwTk5EzB+etuUrbqUBD39Y3Lqh/WWJb8fTBhiGlnQHmETLohGXFLAQV5CSzgjw6JGI4k2UctKw5AwTyp+HHu3AWkQ8EwAMzzAqiWFAq6J5/m+5GeAMUGBdG+ih3HisETh0Zmp2V71B6Jf/b3kuXExZ8rFRR07/CS6OCZOF942Tqzm7LEcFJd7zvQ8xckXtHAoIJzhp/rz1slMDHuB8ab4J4NCiLRju5D+LzkPg+qgPkd4Ce8SNAX/yMCbedvmV7U+8Icnx4GIc27k+cf/9ww20xzXhMoqM8xjuOgIPyG66iYgdqccwxIhDxg+7F8HJnd+ZwTOqENJGXi67Kvvb/rDWFudShoU8tx7L24sQBa6Yo5rpcUsjEY1NuI65Pvow/U4y1pn6gPGAeVnmk/tx225/HxfbYB7fE1c899hCkZuc13PvyEMpmM2jp27qIAazHzYvZfF+cCBbUXc11MuPTRtF/g8vzl+YsPlL8P1BcUNJWBg4YMpXMvuMiPIXjhxZfQs7Nepq+/r/qPrvhT7fkTfgirLKfIkhnyXQE/3LJt/6p+8FmXnWZ/UoHu3bPGk4JjIe2EtW+7jsD5+HGoK0tQLgkUdF6a4/84VT9mh44MHZutb1xDogt39Jl+O+7seZFtKHUfwMrIsWoLaxfXGQqaUAWqHDVmCxQ021OZPPFDHWqbiPnegkyyD/2DkNkYbfMWFhsyDRTMfbmCsOQyP/HGQNZd9KGWRl96lacUfOAxwpJPc0M5LCs0r6vzuQtCx+VDwfMnkHvV9WpM7i3TA1DQvfYGpXDKXzfFuoc/x0FBgEalMC3Mm7kkMgwKIhN0/ubbqXKnvZVtyLCqYsuFgFg8P2SNVopDhomffBE6fpQvFgoC3CjQBN+Zt9BfWq+WEG9xCRlf9TE7w0YHwA1Ua2qZMezctgXlr5msbGcfrAsoqID2ti3U3Krlphb/R3xU+BfebWxb3F6p0wrz78YoNePa4vvqnxGFNlWimoSqP2fICGU/ktaoObWMkfuI2utQ0Ok3WP3DIoss6updNU7NjVvoi9WR7rS7/PcYv8+wV2pjvL9uuNmbWyQV0ezSk+eoLMLaPfi/ilsb8jyQTV0lusE7f/LUQLt6H3Jce98FynVuGQoOHDwkoPgDwAKkMjPjRo0DdaDyAxjDHudR5c17XBf9pgF7nDEYikHUTdI32oedKM92wN44xR/qhc0L7nFmYdjC7WKPe7Aramzc9vOvvB6AgmwT7uttluOxQEHtxVyOD0hsanoveXnm8szFB+rXB+oaCprKwFFjxtJRRx9DrVq18mMIfrf6x1RftMSHauhDgBSFH6zqB/QjT1b7Qpdbv4myh1TFwnPvvDdYJk9eRlqtHfzAq+mzYfDg3nhroK0kUBB9q+XF/AP/msmBNmJtA/gYPNyfm/yt8aohH1SNv8SDJhHfu+oSCrozX/LHoZ4xEnvwvGBujSXVaaCge/4Evy1uE1mgFRhOAj8AbWqQaIT7VOOaclsACur3wo5DoSAyDPPyTQDOVoeQ89mX1XwoFAoWnj2DYu6foYrN//LPzvLn0h04rFpfZp1ioKDzxTeE58P25C+7WgEeANxsNk85jFH7HLt3hyzhrsz7n3mlaNNgZ11AQZWZumBn2LJ5d9x5aiwKnkd8FvV5dV6d549fzVPCenob5rEOBTG32TU/xj5btIFM4fwsFFAu0hYdCnJ7vHdG2qGgOQbzPAwKInQC2nYQVzClvYG5F5Vg6vlLO98NqbwOBWE3wBgr7rBPC/aggkO9KMWcbX6g1uM62KONJBCMFYZ6mwBvcbZzGbMPnLMttmzCPL6oeWGbuAzahD3oU7cz7Hj2/Dd8KNi6bXt/XsLKl9N1gYIpX87l9PDElhr+6JNnn+gFJ34mftbUfKCuoKCuDNx//wPoqGN6UEW/46hDx07Uq3cfuvKaibR4yZcqXmBTewb1Pt7c/wTgWeVv9vKyXEJldeudaqmgUrcwRBo6slocsezaH/0fr/6PzRLEg+Klv3pgesxXEijo3jQtaNOOrci9aqKKWRU551scgiKQg91jPO4VE0OX2uptuaeMVn3mJ00lbPo987guoCDicyEDKGLnYRy5TkeQ8/EXaimre/VkpfJS1w/vpVSeufc/Uaq+7IYtlPtyOeW+WhE5BowJij60C5UZEmQopaMBGc2xB86LhYJjqsAmsiorteQWNwAF3VmzVUZnZHW2bbnDe1mVgs4Hn1QtO9+2hYKW5tJUHkMcFEQ8wfwjT1KudWfPH3+zl+e/2vcypeR88TU/rh9UeknAUWooiOfa9WhlBzJPQ4GmPu9XT6LcV1XJmwAnAYtUzEkN9vGYea+WGE+/pxpU1qGgO2+RWrYPMFb01saLv+m+8Z7vj/BR2K4+nxde5l9n27B3L7pc3Y9KiqKXx7Hz2uvecyq879RyWO1ZmeWTnOc++yrQZpgvmW3pGZ9d2FWkHToUREZjfBbc8y9WNhUNBfFPFnx2NaVg9rvV/jjN2JRJbOd/AoUpP5O0IWUa5/d4EwriOTMwA5xD7Lykz55j+2H/+TcrFcwyFXO2tpC5V4d4gGiwIU7xx/DN7AP1Ae8Qu8+0HzEPk7TNij9kXWab0WacTVwWtnFZVjKatnBZc4/v7Lx8GFAQcQ/NMuV6LlCwyD8m5fpAxa7G+eKX5yrPVXyg7nwAUBB/1HnOcVzK7PamMrBDx450+BFHUvPmzan/iQNU8pBVGyr9oM9sh+zrzgcw11ACIkA/fuRFbW5BVWI+H8SFMuuhTbNcmvOc9gPTMTLZuk/8U/WnlIAaJFTKns2OAlRsD5KjsHoF17B8TQEF8zsR1I7vLQ4smwQ0cRNmIHVnPOfPAZZfYosaL0NBgE8o0nhzR4xV7dhiCnIZ3vvZPC3Lh7PZn8ipGODbpMb+9vsBmwKKQIYgbf9KiMHmzphJLubjq2+Vf0D5iezCuWXfebEZNzuBtsLGmlv2rUpcgr5sG+wCVLTdwzU9fh/3UU3Ndtd9vi2pYgr2G2SFgsp3AcwAPaYbqljDb9QSU5QzMuayrbxntZhS5BkqKKW81T577pvv+uPh+rZ9WiiYLySLUL7w4afqOWZ32V+NE5mOAS+zq9cn6ttmD1/ToSD6KtWmQ0H0pTLW4jNdiIPI/fPej2EH9Zrx3MLOHYRQKNisFJAJ64W1h+uA89xmDoAzYeIZTqaiwjbUwA4dCmZXec83f6+Xwb1YKIgl5RiTAq8F2wJLh7FEffkP/rh5/DXZq89QDeYh6hnJvbr9zpF2vk0oCMAGQMfAjdV7ce2ywlAHdFDccVth9bkfmyqP4SQr7vQ2OGsv6uvX9WNb20mUftwG18ee50UfH5cL23NfSeeQ29ETjQAKoh2+V+57gYLyIm0wzlruHyaxr7z/eMrzkeeTxgdqAwrqysBdd91VJRFBIpFDO3SgMePOpBdnz6V1m5xEyy7SjKWpl/1+7Sb6cvkPavv4i2W04K13A9vzL79GTz7znL/d88BDtHS5F+QdgfsRL80Zdrqf6AA/4BB7zD1pJLl330+VYSDI/beCOsiWCrVcHBBL8pxUTCkAo649vKyyH31G7jWT1ZY92FvK7A4dpf6us3IQEM85opf/QxQ/6vEjGLHa8hOn+NcBQtzZnvLG+eQLpYbMdT7Sv69+7A4ZQc5Hn1X/3oBECxjj0JEq5hbmRl+mjCQRuZVr1RY1ToaCYT+SbVAwrKwtpqCeDMLpP4TMoP9sW+77tYSl0QBMuiI0rC++nhiWPhdcusz1k+4Z/LK92KsMpcgs3fFwcme9qvyD70dCwdz/KIiBuUHsS+UvR1VUf8ZQmT32FDn/mxXdTMYCZSDgOJamOgC4nI346knWdtguZfeq9V5cwcL3cfimc/wQ3+8AjNx/Pl+tT70N/TgNFESyCyhGs83bkrvwbd9Wd858crpXfWbUc0EMu/06qBii2YP/RrlDu3tbx+6EWHQIJZBt9zfKte6k2sPnyZn/pt+mDgXxuXKO6VujzVcEakpBfR7Cjvm94J55gW9bWFm+rlSbT81UytnKLW7ielw/bO8seIvcKbcqsB5WxryOmHx4JysIXpPfcFgKP3mqFwew0lNU4Z2oxlcAlGZMQdMWqMadvoPIOf6kKhUtYv/deqc/R25BvYtM36iPeKNJP+dJyimVc03mQer6z8p8vuV+rkNBwDc9M66nuFsVq/hDPajiAK84+zCPWwdrfI33UOFFQUO0hTZhE2Act80Zg9E2txW2ZxUi+kIbAHRpwB7bH2VnXN/o0zY3YfXeen+xrxRsf2gHNbcApHgeYXXK5bpAQXkZlr2TlsuHRewQqCQ+0HR8gKEg/9fv9ruilTFRvvHIEzNowMDBxNmEAQKxQSF48WVX0AeffN4gvjBEjbE27wHqLXjrPX+7+/6H6Jbbp/vb3ydeT8NHjvK3I486itq1a+9vrVu3oQMOOFBt++23v4rViHiNvLVosSftscce/gZgO/v1Rda/jdkNm8MhYB18n1DQCT86EWcNasCFb1X7gclxtvjHP5SCUALiB6YtFhrACGd2ZXVR9ttVgXZzFQMIoDDqOXMf5g9ZBdYSqoAYCiJuIcbqb3fdr+yxQUG/DJfnmGkWpSB+8EOVBlWhGTMwdGxIFvPYU4Qs03oMSXOcOOf5C22r4COARW6vE4re8lC3WfwNCTL0rKVcJhIKwo8MAGYmseF2wvZQntrmw1SxhdUPXIc6FZmJAb8PPcxTVlnGGqij3U8DBaGyUjD8ymut84nPmYpjWFBI2sYYdU1fah6Agt/WXD1iyz4cNifmdaVCnTrNOmazbFM+j4OCHEPQ9IHcNyv9uXUffNR7d933sHcNqu1Fb5dsU5nYNf9vys+rqY2doWCfvscpQGdTpTEYs0E4gCoAM0CrsLnj+jqMS6L04/ZQD32wbYBsUCHy/bg99482dBvi6uE+KyBRN02fPC/om+2PmiO2BfMy8yVvpRF+QyD7MNuQpD63U197gYLyIk38wawvJ5V+mw6IkWctz7pcfKCmUPDzZd/Ro0/MoKGnDFPwiZWBAIHIFAewhSzCGyp/os1JEg/U89+qb1au89V27330aUBpB+XdM8+/5CvtHn78Sbrl9jv9bfKNU+nCiy/1t1OHj6AhQ0/2t/7Hn0jdunf3t46dOvnADuAOQK9zl7/6W89efVTsRcRfxHbigEE06rTT/W3EyNNo+IhR/jZy1GgaNfp0tZ1x9rl0xdXX0hlnnUOnjWX7IycAACAASURBVB2ntosvuZzOPvd8GnfG2Wq79PIracmy+Lhx9eWrKoMwq3U2bCEseVPbfQ+T++a//L/p+GGqlDAPPEbOOx96qriQWGgASe7zL/t1MTYsGXTveZByS74KqM7Cxq3UhXMWkPPSa0qplnvzPS/+XkGFE1ZPv557/2PP5jnBDLuAlGos8wqwFjHpJk+l/OSbAzYru+e/qe4pKGr53CAuoN5n6mPEBsSy4TU/Uu77NZT9drW/KaWRpc/UfZS4DairoJzEBtWXaQ/i5LlQgmF7cXZq8A2/8+ujjedeSgxITVtwDtWjygydECbrbQAS5x99irLG8nq9jH7sLHiTFASPmnN8bgCU1TNfS1jGjzrZ5SsVhMXnx7YF5jpP6rOEpCam0lK3J+mxim+55KvkcFsbn4KVYQpnrVxSWxprOST5cB98nMLiHeIdi6X8/jZvUbX4rEplOfPFeB+Tea/2XmqsflWqcTEU7NGztwJ7YWo0BmvYc98omzQzLsAYq/QAuXAMFR+3FbdHfagR4wCkrR30B7Uh6qbpE+NDn4BxUCfCZhyHzRH3zfOizxVs4LbC6iPmIPrQE40ACqJd1EHfaaEm21RXe4GC8hJO/KGuK6eUfgQMiQ+ID9S3D6SFggwBz7/gIurcuQtBfcYg8Ogex9I5542v0fJgfQkslsKaYM62BFYHc5defpUP5QDoTDCHbMc6mNt//6CirkOHjj6UO/qYYwNQDmDu1OEjFZTrd9zx1P/4ExSQG3zSUOrRsxcd1/94H8oNGDiIho88zQdygwafRAMGDfaB3OAhQ6ud9+3Xn447/gR/63pYN+rcpYu/ARzuueee/gaVoA4Ro+xlmHjBRRPoksuu8DcoROvbB6V/eQ+KD4gPiA+ID4gPiA/YfICh4AkD4uODMuxiuIc9kmjY2rVdY+gFOJemHtpiqIY+AddwbuvDvMYqPQA62J80AQrah5062EPbOLdd5355jLbxoX99OTTXwZ7Hh/Z5dRErBfVy5X4sUFCgYKIPZrk7stgnfzDFB8QHSukDSaEgJw1B9uDdd9/djxOI5cFIGnLHPffRqvVb6BMVy65qCSxUhPoS2PEXTvCXv2IpbNQSWCjn9tln34CazrYElpcpY9+t++HUs1dvfwOkxNJl3gAQ+Rh78/yKq64hKPD6Htefjj9hAJ04cBB16vQX34b99t9fKfr23ntv2nuffVIt1dXtNG0dPWZcwC7Ydv2NN9FTzzzvb8j29tWKlf72zco1tGLVBn9buW4jIXGLvq3fklcqTSg1sW0JUdCV0qekLXlHiQ+ID4gPiA+ID4gPlMIHGApi9UmS9gC2OIEI4BjOk9RDGQZtqIctKdhDHyjPy2cB1nAep5rjeibYY/ttyU14LICPYcuFo8AgbIRtUfNi1ud54eXRAgUToEV+ULWxn/WKt367lNkha8NOaVP+CIgPiA+IDzQMH7BBQaj1Jk25WSnuzjrnPLX8tXWbNr4i0IRbu+22GzVv3kKBs/btDw5Vrx3T41g64sijqVefCrUdedTRCuJBZcdbr959qHdFX3/r07dfNbUeL6e17Y89thdhWS5vUNPpcfSQ+bhNmzb+/cO6da/W/kknn+ov0YXC7tzzL/CVdayym3rbHYT4i9jue+hRenbWy4Ft/pvv0nsfLfG3Zd+uplUbNgc2fMlau8lR2/otTgDeAeDhCxuCVvMmQK9hfKbk3SfPSXxAfEB8QHxAfKA0PlAMFAT44uW4SOCR5FnguxYvNcb3MwAwKP7iwB7aRn/YGLShLdTzlIrVk5uwPVDr2RR7uG+COa6DPrg/vmbbswIR7aMO18MY2U5bPb6G+hg/5oHnhesJFBQomOhDxc4k+9K8DGUeZR7FB8QHassHbFBw8edf0bDhI5Xabs89WwZUgQCCUAaOO/NsdR/LYll5d/wJJ1Kfin5KZQel3b777Ud7tmzpq+xatmwZeY7lsXFKwI4dO/kqQCgCTYWdqa57Ze4CX1nHKjtdYffdmg0BZR1Udus2uwFA1xBiIdaWf0i78u4RHxAfEB8QHxAfEB+oLx9ICwVZpQewFwbWbGNBPcA2/R63FQUGodYD/NPr8TEr7Mx2cZ9t47K2PZfBnu+jrTilH5eF0hC2sYoRe9jE9+P2bL85PoGCAgUTO1Gck8l9+eMiPiA+ID5Q/z5gg4KAYABjULFNu/NuMsEglIFYQox9x05/8ZV2HG8vLH7d1dde56vrkijs8KWjurqu0lfXwT5TYYf/YrKyDnsBevXvY/I5l2cgPiA+ID4gPiA+ID5QjA8wFEwSUxDwzIznB6UgYFhUAg9W9SHenm4jK/6gOgQgxLl+H23GgTaANdgEmMdKO4Z9UbCR+2HboPhDG+b4uFzYnmMIwk4dLoaV16+jTwBBVgry/AgUFCgY+CDoTiPH8qIXHxAfEB9oeD5gg4L6c8Qy1q+/W6PUdnMWvKmUgPry4TYHHUQ3T5uuykj8uob3/PVnLcfy/MQHxAfEB8QHxAfEB8rJBxgKIvtwFNQCPAP4soE2VsxB1cdgjsfIariotrmMrvhjsBcV98/sA4AN5YsBdKz4s42P+7HteV7QJzaMxVbOvMbjw3XMGeqyYjAKCqKePk9mu/V9ngDnqSKZpAXDytXmQCWmoLyka9O/pG3xL/GBpucDcVBQ9wmo7r5dvZ6eeuY5umjCZYSYgLvvvgftsUdzOrB1a0Lm37f+9VG1L1x6G3Lc9HxMnrk8c/EB8QHxAfEB8QHxgWJ8gKFgn77HKTBli8EH0AU1XxTYY8UcVG8MxrDnuHmmCtC0lcsCeLFCMKo/sz7AGvoGXEOGYfN+1DnAHoBcWqWgPi/oH2pHjDcOLDIQ1Mt59Vcp+xe9+xHh9wO2jp27+GNhVWbSOI5RY66te2EMz7wuUFCyFPuOXVvOKO3KH0XxAfGBcvGBNFBQtxmA8If1m2j6PffTgQe2VnEHd911V9p7732o62Hd6N4HH/G/dOn15Fh8X3xAfEB8QHxAfEB8QHxAfCCJDzAURPZhVvwBrAFSoT7AF84BvJK0B7CG8qygS6NqQ5+oiy0NEGS7WO2H+kkUhvr4uD+2H+Pmdm37sHlh4MftmXXjlIyoN/MlL/mtDgXj6pn91Ne5Cf/CzgUKChSM/IDVlwNLv/KHU3xAfKA2fKBYKMi2bMz+H1r9Y5Zef+Mdq3pw2IhRdNv0u+nlOfNp2Xer5P0qf2PFB8QHxAfEB8QHxAfEB8QHEvmADgXx3ROKP4AxqO4A9sx4ffz9NGwPsMdgDXCO4WJYef06qw0B97DpSjq9nHmMPljph3txYI7rA+yZSka0BQAKZWRY/ygTNS+oh/qmou+HDZWJgKepFOR5sak4eSzlsg+DgOZ1gYLygkr0gioXxxY7BBSJD4gP1MQHagoF9b5ZPTjr1Tl0znnj/QQlUBAiC/EBBx5IFX2Po2deeImWa5nU9DbkWPxZfEB8QHxAfEB8QHxAfEB8AD5gQkH2CwZ72PO1pHvEFmTFXxhYs7XFfeIetxGmuNPrcz0dQDIYDFP8oSxsDBsf1zcVknH12C5WEur2A1xiXFwmbK/HFGzdtr0PWcPKl9N1E/6FnQsUFCgY+0EoJ8cWW+QPpviA+EBNfKCUUJDtQFwWJB2Z/+Y7Ktvw0FNODQDC5s1b0CGHHkr9jutPEydPoUeffFpiEcrfXvnbKz4gPiA+ID4gPiA+ID4Q8IEwKMiZcZPEyOPvp9hzPECo4lgxB7AWFVMQoA1wDupEG9jTwZreF9pEPdhog3/cP/Zm/+gLdfX+9LZxjHqsJORyPC9Q75nlzXMGi5gTXcloljPPTSiYZjm02VZdn4dBQPO6QEF5EcV+gOraeaU/gT7iA+IDteUD+LIFZR8nssK+1H2t2+So7MR33H2fH39Qz2C8++67+7EIh48cRXMXvlVyG0o9JmlPPpPiA+ID4gPiA+ID4gPiA7XrAzYoyDALcw+gBygVBub058P19Hh+rJgLU+TpfdjAHrdpU9ixbbZ6bBfAHuzXFX9oC5COy0TtdfvZlqjy5j2OBQgbGCyaZcxzEwrCVgUGY+Icmu3Ux7kJ/8LOBQoKFEz0AawPJ5Y+a/ePjsyvzG9T9IG6gII8r3r8wWuvm0wDBw1RCsIWLVpQy5Z7Ues2bZSCsP3BB9OhHTr6SsIZM1+gxUu+TPxlhfuTvXymxQfEB8QHxAfEB8QHxAcarg+YUJDBF2AaP1ccI0YewFoY2OLMuKjP9Xj//9h7D2grqmxr2PH1aMf77Nfve93t637dtmLOSjCCIBkxK8GERCVIFhFFxQCKiCCIKIIIilkQJOcoSUABQSSJJMn53lNVx7Zd/z/3OavYp86ucO49N687Ro2q2rXj2rPqVM0791og1qC4M11DnX5KPy6P9kGMQaXH7XOa3k/O790jD9oAMYk6MiXY0H+MH+VMY/C2x+e6khH99yohOZ93r5OCiD6MMQcpIr3li/LcjwT0pgspKKRg2oOiKIErbZfcHzGZO5m7koCBwiQFvfbwKgihGDz//PPp5ltupQ6dulCXRx9TysLzL7iArrjySolqLL/P8vssGBAMCAYEA4IBwUAZwoBOCrKqzUR86Yo57/tmUDnOC2ILpJqu+ANZh7QoxB7qYcVcpuVQlvuvCMHjdkYY5/GhLPqAcx5X0N6rZASxp9oPUfytXPsDwf0QNpCC3AYIzahtc5nC3nvJP7/zYk0KLl25Whm/Z6/nXOMXtiGlPSE6BAOCAcFA6cFAUZKCjCOvgrBZi5Z0Q9WqVO3G6tTkwWbUpu0j1KVrN+rYuSvdeVcDuvWOO2jV2u/ld7AMfRQwVmRfep49Mpcyl4IBwYBgQDAQhgEmBRs0uidUCceKP5BbrNjLJDIu/AyCVEN5Vt+ZCEi/PqNNJgZRh9dPoF85pLOSEYpB1BHFJyDKeSMGs9LQG1nY2zbbRSc8oyj+YJdpcxYYSUFvG8Xx3I8E9KYXa1KQpZpCCsoDtDjeZNInwaVgoORhoDiQgl7cgCQ8eNx2A5U82q27IgOvvvoaat6iFQ19ewRt231ASEEhBQUDggHBgGBAMCAYEAyUYgwwKXjH3Y0iKfZAxEEBB2INhJffsmDvu6d+vn7LDkVAbtq+JyNssUIQ5aC4QwAPvV6/YxCPWP4Lwg39Rz3oP8YRRCxyPuz1uk3kqOk68unpfMzj0JdD4xr6iXEtXvGtkIJeFtF7zsYsiD2Tgm+PHG2cwIJoU+oseR/5MmcyZ4IBwUBUDBRHUtDbd/zncu/h4yogSvceT9Jll11GH302Tn4HS/FHgBcDci7PNMGAYEAwIBgQDJQ9DDAp+GCz5hm99zGBBcVeJrjhpbhYRgwCLKpSkMtxfj5HPaxaNPWDCTgTsYf2/foPQg/XQRya6uXr3vKc7ldOr4tVj+g/jwfjY07Ku3xYL1tcj73cnd95iVAKCilY9h6IxfXGkn4JFgUDJRsDJYEUZIzhv6WHc+K0/0hu4AsW55d9ycamzJ/Mn2BAMCAYEAwIBso2BvJCCoLEQtAMEGIcwCOImGOMMWHGxB4v6Q1T/PFSXCjruC7sUR+INb8AHuhTkJIR5U395/QwJSHqhw3QB5TR7RLFHhgX21AnSIUU9KMStXQdCNk+5gkQUrBsPxyzjSupT/AkGCi7GChJpKDgtOziVOZe5l4wIBgQDAgGBANlDwNMCt57f5MUws0PCyC7dIUdyDD93K8c0kGe6YFGkAaFHKf7EWkgztBG2HX0RW8f5cIUezwe9AFl+Rxl9bqCjln1GNUO3rrQNspy/5mTEqWgRgJ6D71GzOY5T4CQgmXvgZhNHEldgh/BgGCAMSCkoGCBsSB7wYJgQDAgGBAMCAYEA8UJA0wK3n7n3Uq15ke8cZ+h1gOJpQfqAJkFtZ43nctgD3WgH9HGSkDUwcQYyqAvKOOnBOT6OR9UfyjPfg9xHjYevR30H22hzSjluH3s2U9imOpRL8P9RpsgL9FfLHNmTkpIQS8TqJ3rhsz2MU+AkILysM42tqQ+wZRgoGxiQEjBsjnvcr/LvAsGBAOCAcGAYEAwUNwxwKQgRx/2I+4wDhB7ULSZxgSCixVzUP/pebhcGNGGtnXFHIgy/Vyv03TM+b3KO1NeUxraUu15+m/Kq6fx+Hj8ONev+x3zeNkuXM+i5ask0IjG/xkP/YyajXQhBcvWgzu2z/+GdRYuIWfEaLJXrY10UzsLFpPz2lCyFy+PlN/6+QA5ffqRM2xkWn575Vpy2j9KzrB3065lA+fZrMN5ZzTFBw4h64etBd5X5/W3lM1iO/dm3FbsuEX2N+vI+WgcxQ4cDS3vLPuG4t2fJufTL0Lzwp7xAa+T80xvchYuDc2f4/wWmofnKHY0l5yhwyneq4/qP6dH3uc4FNt/JLQ9Z+yX5PQdEBm/kduXQA0kpGDZ+l2Re0PmWzAgGBAMCAYEA4KBkoIBJgURaATkFFRrINV0xR7GwoSVN2CHd5xQyoFYg79AXGO/gVGIMrQPogyKOVbOefvhbU8/h0KQiTmMISiysF4Ox9xvjmwcpb8o57ULj9fr/1BvD/3icXrHB/tOm7PAlxREeyir11ecjo0EniFRAo3IR3KxALEz6E2KXXId2TvMBJPd9CHK/T/nUfzZFyP1F4QK8jsv9U/Lbx0+Ts77nxCIF75prQ1bVP5YuQpuGl8DuYS67NsapV3jPH57jAcEUtDGpJgzbXZgPtQBMs2vLevwCdVPNe4Fi33z+ZXPND12bc2EjZd9E7kta88hir85gmJnlHf7arfpFFoehCDGFbumJuXGg19srEPH3LpVuaB73PmNrIZNyJk+N7QPbB+raj1Vf/z5lyKX4bLxN4arsiC4Oc20t5s8nGjjzXcC83nLWtv3JLANfGd7G/Npiu1V/YPeJNy7Wd+mzclo3F47BJ0zKQgFOpYB4J9PQfnlWvD9JvYR+wgGBAOCAcGAYEAwIBjIDgZ0UpBtysQaK/70yLicJ2jPRBnXE5Vg4zpZ8ZdpORBsICRZKRiVPOP+8nj5PKx9P7sgHX3AOHhM+p7H5yUEOc+aDZuNpCAIQ4wvjJjleopib+D/jEklghTsN2CQcQKLwrClvs04UWzXPrLWbqDcnFSpcUGNPbZjD1mVqikSBGSRPXlG2nzHh45Q1+1bGqZdQ7+Umm/6HIodPKauB5GC9nc/qLpAMvGY/EjB2NEcssrfoPJbtW9V6i3UbdqsNd+79XG98UnTT7aF9gyb9VPivwtOy3bG63qZGAgvA8kFtZvT6hG3vPPkswnlI9SP2OYnSML4Z+PJqnZTpM15fZixLW7flxQ8YZ1U6nV6jEDoYt6sq6q7/eMxWdVvpnj3pyh2JCewLSgfmUiMP/YU+ar7rF/Jad7Gbcf+Klgp6jzRy80bf6Ev5ebGVT/sdRvJmTHXvLVM2Dl2fW3z9WQ5xiLbC3u7bSe3vVjl2uSAaLN+TRt7XklBKGrZtgWxV4RrEn88/wXRDjCh2y2bx0IKZuelNZtzInXJnAgGBAOCAcGAYEAwIBggtaIF/7SGUlC3R16Vc1wHlwc5xmlR9iDKVm/4URFqvI+i+EM5VhgiP5+HEXus7PPmYwIOij9e3qv3H/WDoPOW4zzwk8j90cujXtgkiNjj1auYl+uq3KD8N7Jd/Nrjdot6b2QADYklghTs2eu5jMBb1MYvqe3H7H+T3bqDSyookspAQBXE+GLHY4qoUgTD6ZeSdymxtXqd2y8s4fT2gUkUe+Z8dS1bpGC8/2C33TDywxk3Ma1fTArajZuSM++rlC12wdWqbi8piDa9eXNPv1Tl9SMFbZC4BsKR05zBbyXsAoVaQD79mlJIBsw/k0JY2qvPR+zAkcA2YpdWJozR+nFnSjm9DtOxM36KW6+zdJWxrLN8lZvHvuOeFGWbqU6kOQ+1Ty2TYyvFpm6LvBwzFlPajRM5cxemEKRO58cJBCwIUt64PahnOY33To9njGNHOyC8obyMsjHJatW4JVJ+1Bk7FnPbBvEcpR2r9u0n7du8baQyzqgP3HZS7BeAx6j5hBSUj46oWJF8ghXBgGBAMCAYEAwIBgoTAyalILcPAgrEFxR/nBZ1D5UeynJ5nRjzq4OJNlbY8XmY4g91ox1vPi7v138/pZ/ePxB4qNvbf6T71cvluX3uF5+HEXs6KVjpmutc5SPbhesvjnsD/2dMElIwCx+ZxREAmfbJXrGGrJq3uB/vTEpALZVpXXnNDzWYXe8u1Qe7aWvKPWErv23K99zyb92+OYOGuunsO68gSEH4JWQ72K07Eog1kFnxAUPUMc71zf5+c5qtmBR0uj6Rds0qX1XV7yUFnamz0vIygeNHCjpdeiTquvt+wjJktWkEoD1nQaLOIzlkbf9ZbSB1MD67XWc3DdfUslgs1Q5ZHhuFFITC0/liEtlzFpK1en2C7M3Ah18KluJE9p33qj47L76aZiPkZeWfVaEqxXaZJeIpdeL+P5qr/DDm/u2yRN2vDHJJQaUG7NCNnAy23L9fnrBrkqBGe7FDx5VPTJ5r+LCM939dLUmHT0a2OeMtaG8/0NI49rRxBT3boAi+9PrEeL+cmv/6Atpy56T6zf4Kz4DyGY0rQj1Xlq9AWDosy4flJT/b2JL6BFOCAcGAYEAwIBgQDOQHA36kIEgwEF9Qu4EUC/KRp7ePciDBOGKwHlnYS6x5y6EtlNXzgUgzpetlgyIGszLPq/jjfoWNC/nQJ/QBfWG7MNGn98N0jDLcP9QBYi9M+aiTglAKwv7YwshEU/uFnWZkAA2JQgpG+Igs7Mkr7PacpSuIlWhMRkDF5ox8P9CHXUH0MxaLk1WlHtkNm5C98UdFWnCfTHtFEkEhlfTBxuqsfCsF4WuuWn3VvvJj5/xGUChC9aSWp0YktgqDFMSSYLYNjz/H/jdZVeokSJ+77jcq5qwGD6jr8U9Sg3e4tnt5YApZpJZoI+BLcoPiD+2CpOU0YElXCurLTTPBiz1znnmJdrLPakm0YRk349iqe2da+fh7H6WMx9sf+DrEeOwt211SUBGnGT4j7NsbJ+rRSMH4WyNVGsjd+MfjCKpcvX0QmLAdbzyfyrac3iqhaMwGKahUmknFKJZK633J6vEJW40b44l/NLbg2slgjqrdWIOe7vW8kIIZ2CyrmJB2i8V9IHMqH62CAcGAYEAwUFYxsG7jNnp10BBauWY9nYj4TVdYtvIjBUF6sUKOfeRBGacTdqY++vnLQ31+RBrqRFth10FSettEn0zp3nzIw+PBNR6fN5/fOef31uOXX09nhSDahy31a6ZjnRSEUhBts2qzuBODBv7PmCSkYBn/QHHgv09bTgqFVfzzL1OWCZpujqynIXhEMoAEyCfrx11kbd2hllnCF52+sWoOBJDTvqu6kbNKCh7JIfv+Fq5dnA8/T7Sx5GsVDAX2AlHojJ8c+hBhUlDl7/wYOdrGdmf1GPsUBCGq58Mx5/UqBe3FX5+8dsE1CR93cxcqNSOXiX8+QS1ZxbJV9l/nQHl52oWqLIJT6PPJyi5nSKpPQSa7uF7THoFaskEKgvQz1Z+fNPjw08eZdhz7xVUXIqgL2oIvRJCJmWxWhRsTZTVSUJGcLdpR7p8uSVy7rSE5S1YY+6OiEzNhh2XhyWeUS1pGVApaG7eR80hX4waMsS3tZq2NeVTZl19z2+d+6Hvco8CV3xbHMuDkWHC/+OXT03NznMA29fbzciykoHwE5QU3UkZwIxgQDAgGBAOCgdKBgVnzFtEddzegypWrUPceT9Ls+V/RTz8fLND3z6jY8ZKCfpFxWTEH1RtILlP9IARZUee9DuLPT/EHtR7INrThLcfnKI/IwMjH/vjYb6Fff7gs9igPco37wEpGPU/QMfoGUg9bmLrQWw8rBVEO5Tkyszcfn+ukIPsUxDWU47Fz3uK2NzKAhkQhBcswKWj9fJBi51R0P9rx8e4sWOJ78xcUyKFqgy9DZ9i7kdqOD3lb9VlXcWWVFMyxyYG6zrCEFr4PVbATJjrGfBzYZyYFmRgx7b2koCkPp3lJQUSA5WtR9krtePiE8lOH/HH4TNTuAaXUTEbX9fpIdJq1IeuyKmpTUZqTNgBJy+lQUmaDFLQnzSDnqefTNsYrSFvTdSeppsPYvNe9Y8W4oZizTQFikqRgFJv65WHVpm5fl8Q9/VKydh+gXMN/J513NL+PR0648+MG29FIQfurZWqZvd4GH9tfr84IG6ZxKH+AGj64bt6rezaJA1P5vKRZuyMu+w7oF/fPtBdSsHS80JvmVtJkbgUDggHBgGBAMCAYiIKB7374kcZPmkbtO3amSpUq0d0NGtGn474MXUoape785PGSgn5KP26DFXNeIg5kFQivINKKFYEg9rg+VsDxedgeykC0w+WiKO/0Orn/Qf3U8/Mx24WJvaiKPa+SkfsdVF4nBatWr+HaivtSnPcG/s+YJKRgHj8si/PkR+kbAhKwTzt8uFtX1SC/4A1R6stPHijZFHnwp0vIefEV5eNNry924KirIkQ6E4DwVcf5OI2JGHcJ7Ev93TycFyQcfPzpfv7Sog/HfiFnwlQjaWPtOUROt54u4aJUdz44AvGKCLh+m9PzOXJ6v0IIFIJlnJwPZCKIr9j1tciZu0ilqyAaXhIpN04OxsgkJY+L/ePxedLPnYMIzUkiWCkQEbV4/BSVxgo31AWiz9588geCbcd7nQzyRvjVSUF71Xdkb9oWukUlgjhoBXwmcl/0vUuEITCLz5xwurNwqRpn7LyryRn0JuVqEZCxhBgBVKB0g30z2uYvThCNh48b+wBiFz4WsTQYNldBYJIRiGP7DxMHoEEQD1bPos9MhuvLh3kJOPw18rh479rijCspPvqDjDYnGWE5KimIpeQI2IIthTRPpvE17LG0W2FMK+M0e9jFcFQs8Dgz3QspKB8LmWJG8gtmBAOCAcGAYEAwULowALXgEz2fpgeaNKWzzzmHzjrrLCpf+XayugAAIABJREFUvjzVrFWLHmzajJo2a0EvvPQyvf7m2zR5xmz66ef9voq8bGJDJwVBlOlKPFM7IPZYEcjEGghCRAoOIrq4rkT5hDIQyr8wIpHL6XsuB4JPTw875n5jj/6i/2H+/VCn1y44Z/+AGI9fu35KxjBicOmq7wiRh7EJKWjkFAv24cCsrEQfzr6d7XZd3I9wfKD7kSx+N1VW061fKUXh1ftl92Z2ps1R/cSSYtUmSLEkAYYlxtyPTEhBLqPvoaBDxF970TK3Tv266RjBIcKCcZjKcZqFQBjJsYA843Ts0R9W4zmaPfQ8KcfJ6MSc5hK+SWKMg4JYm7apNhXZE/tFtWmv3+T2A/2xGjRJqNj8SLXceEp+p0v31L6HRB/mMet7p+vjKXXwOLz7bJKCIIfZxuiLIuH8xpzldBCCPH4oGpn84+AvuAaCUB9/HMu50U9NKWhVu0mlccAdPT+Tgsr3o6H/1p6Dym+nIt0915n0jUoK6rbDPxxU/8tVSOk/9419YOploMBlewgpmP3nPdte9mJbwYBgQDAgGBAMCAYEA0SLlq2kdu07Uo8nn6L+AwbR2AmT6IuJU2jgoCF09TXXKJIQRCG2Cy+8kO5u0JA6de6q8m6LGszQ834dxe5MCjZodE9GBJ1XOYfzKO1xHibGoKTjtCh7jhisKwajlAORpxOQ3H5Yv0F46uW4LU73Iyb5up+SUR8H14k90ifPnC+koA8X6CbrRsv2MZOCDzZrnhE4s92P0lafWiKc9G2GD3Fn9AdGRVyhjhuKNfYjB8XgwsQyZrttJ0UWKOUSyLIdexKEw5kVXCIF/cwrKeiMnUjw5ZfxBj9/UHd5lXvJhz/Ug86I0cHbI10TRMhpF6ql02n5H33SJUrirww6WdeYTwlLrlPmJyIpCLIRpA0wwOoyRL9VUZRHvk+5SaIwpW7PD5qaG8+SUefpF0gRO5gjnRQ8/VKlfIP6jTcmf/gc+/izL6aOx9Mm9wfRgFGeFaGcznsmwlTAEZ86OC/2sIdqm5WWzduqSMycJz76w7SAJVChBm7w3ejX9uET5CCAS3K+nGd6KxzH9h2i+CuDXT+PzqPp0aqVolCRtg+o+hEpmuuJHTyW1ibbwo8UZB+Wql5Pf4UUlA8GXwx7sCL5BCuCAcGAYEAwIBgQDJQ0DByL/Yt27TtCew4ep4PHY5ST9G1/6LhN4CBmzFmgCMPG99xHl1xyiSIHzz33XLrooouoarVq1OTBpvThp2OVgpDLZsMGTArefufdkSLjcptQ2DGxBtIsyB8gl+H93iO5imjjpbyoh68F7dEGlIzs048VfDgPUuz5KRnDFH8ox4pAk6IQ19lfoD5+9AXlwsaF8hgP7IAybJeFy74RUtBl/3wOgoCS32tCCmb/BwbkAxMJilxp05Gc194gkG5WnTvIbtyUEGhCLZ1NLmnM7zxGLh8ncsZ+SbGLrlNLZlHO2rbLXU4Z7/40OROmJEihxk1THlZ5JQXj/V9X9cUuuobs2xqFbiCwYDelMAv4OOZAFUyAZXsPMivFrkwy9X45Qa6ecaXqp4rS26efq4jjclCKKjUhCNWk77nQQBzJ8apl1xopaNW8NTEnbTspslL5SOTrJpIRRHSHbqn9D7ClPs7YmeUT41r2jbE8jyUqKch12yvWkFU1obpzvpzq1g1fiWruQG6eUT5w48At8X6G4BxQw345lWKV66r6gDcsm0dQESwh5yXduX+/nJx+rxkD/Tgz5ib6AvwlyVH0zUEAE4P92BZFRQqib/H+g9M2JiNFKZj957sJB5ImdhYMCAYEA4IBwYBgQDCQNwyYSMKKlSpRuXLlCCThdddfT3fceRcNfP0N+ua7DfmOZsyk4B13Nwok1rzzCUILZCCWyILUAgmGNG8+7zkTedjjGhNrIMd0Ys1bDvn8iDb282cK4MHEpeka2gAZZ+o/+ofxhRF7IAuhNkT/kZeJvbBy+vi4j7ykmTkpWT7sQwgiWTdgto95AkQpmD07q2XCTNiE7J2PxxXo/PrhJbYv9b8Taklvsq8gLhURgkAQGhGSX1Iw3v2plPr0uvVjDhwSRgpah4+rJbgIJqFv8NPHS3mV375v1qVcV5GOk2OFnzu9rH7My03dvrFSMGROmRQEUWTVvEURgs6YT5VNQRKCSHI3QwAO9AGEG5aV8jh0ssrp8YzyjYg5UkSXNkduX/NICsasf7mkmFqiaqibibBMSUH0DcuonfmLU3DApGCUSNNQSyoizEAKOsNGun1X+J3/VaKd2C/KnyfSVPqHn1N8xlxXKevaLDlWu95dKfVgzhTRH2CLoiQFeVymfVGTgnBLgR93r43lPHu/N2JLsaVgQDAgGBAMCAYEA6UJA7v3H6UFi5crEvCR9h3pnKQ/QiwzrlGjJvXt15/ys7yYSUEoBUGCRSH2YF+QYPrSX1b9BZXHNbThXbILYo6XA5uW2/qV0+eZiTWdjEO9UYg91IM+IS/IQF7aq9elt2U6ZhIRdeh2MeX1pvH4uK/MSQkpKKRgqflwdLBE1EAcKaXc/S3IqnGLex2Eg7V9T7EYu81LbTXyRL+Bs0oKQrGIACBP9KLYjr0p449KCup9wzGWdzpvvE2xS65T9oUqz16yMqVuVQZtT5/rEkV2286KpMvxWabstsNKwYnTyZk4nWLnXaXawbF+Hjuao5YhmzDgTVNY0MgmBMhgUhbKOpcUXPaNCpQCDMHHnT17vmrbqlInfXyoL4QUxDJau3XHtM1p3laVRXkE2DDlsRs2cfMYr7fuSLEMottmixS0t+xIKHHvvDdBmmp2tbbuVHMCco8D3qi5yHHS7QcSccMWRWBij/l0MaDViTQmSP1IQbvpQ4m5GPxWWh3ZWD4MYlYtSx/8Vsoe84LxFRUpeOsdd9KDzVqQkILykeJ370i6YEMwIBgQDAgGBAOCgSAMQEG4c98RWrthM41+/yN6oc9L1Pje++iGqlXp5ltupcef6EkffTaO5n21jPYf8azw8ryz6+0wKXjv/U2Mijk9L45ZWQcSUL/GijlWu3mX26Jc0FJc1MWBOXRVH8rxEl0c6216j5kYRD24hj5GJfbQXxB7IDux8RJlbxt+5+gbyoHYQ7thfeV6QAiyXTBulJ+/ZKUsHw7gA9UlNmBB7JmVFaVg9h7K7JdMkQ5Jgg2qN+vHne5NrZR5SZLJvq+Fm14Qc2yq01mwmOIelaIF1ZpGZiJar142q6SgFszEWfJ1Sjt5IQW9RCyWKcdi8ZR69bHgWAUe0cfb9CGyPQRlShlWCiZ/ZNTSYJRPnrsEHsaTrBf9cO66n6zqNyfSQOLcdf/JrdNjbnnU47zzXoLMub2xSnfrTC7lBbagJHSmzErJx31w9yGkIJawcx8LYo/Iwm5f9B/lHIfs1h1Sgs0wKZhJP4zLh0EMYym1iejT+hBKCmp5jWPQroeRgvwPgPh7H6XZIxukoJ+atqgDjeD3BJHDhBTM3u9KGBbluthaMCAYEAwIBgQDgoHSjgH4KFy4dAWNeu9Dqn/zLXTxxRdThYoV6YEHm9LLrwygb9b9EBpdl0lB5j9Y8QeCzGQ/vu5HerFizqsGxDnKmurU05jYwx5tMMmm5wk6ZpUfyoGkC8prusbji9JXvTyX4/FHKW8aH/o/Y95iIQWFFCxdD3AmdpjksG9pSMboo916usSMChyhkQ36DVcQx+yzzo04jLahoGv5iNsne93GlIdKNknB2KHjJ9uBvz1t7FFIwdixXEIAE/uxpxJ++5iEu6UhxT+bQLEjJxIBSkA+6gpAPk/urcMnKP7WyJQ6rEYPqkAV9vebU/qllstqJKAvKYgAFiDlHurgBmpxyaPKtVPr1MYNjMSur6XKIvgGbOIlBdlOTDyrIDFaHXxdtR/gU9BZ9g3FP/kibWO/e1bVemnXOL8brOa0C33z5B4xq+ucyTPV+KB4ZPLOJQXz6VPQefGVhC9PkLdB22kXutgLzKfVAXLXta1mb3deL62cdj12LEa5yWBDztRZadeFFCxdz30TPiRN5lgwIBgQDAgGBAOCAcFA9jGAICabt++mUWM+onvvf0AFKkEE4+uvr0wPNHlQqQhnz/+KVq/f6AY44XnwkoKs+AOhBmKOFX/Yg+iK4jsQxBjyIT+IL9SDcz8ikfvCe1bMrd+yQxF7Qb4GuYy+37R9jyIToTDk/uvXTcfoG/qLMt7+m/JzGttLtwvXFRYABe2xjbg+7Nds2CykoJCC2X9Q6CAr7GNnxryTpAMCAbw5Io0QQJ+U2ilJZlk/bDXmKZC+O78pX3QqeIVGcChfeMn+gFSKv/BySp+ySQoqMjLZlgrC0ndAYikm7DJpeoI4KlchpX3dFlhmy6RrlL39zbpE1F9tfGHl9Oi7uq89kIjYuLx7nlQScuRg+M/jPrvkUQApiCXNqFOpv3JsVdaXFOzSQ+VFxGRuI2UfohRMyZvEgPIzyXMyfJS5Xm3JrCLUNPyY6vSmOV0fV/1WpHSyLJOC+fYpmPQ3yPOSzb3d6EGjPdx5NZCCyndi0p5KneixVTZIQYwRAXe8m3VVDWXnolo+LErB0vWb5r2P5VzmVzAgGBAMCAYEA4KB4oIB+CD8ZOx4pRxEcBL4HixfvjxVqlSJatSspQjClWvWuwFKvKQgj4MVb6z4Y597WO7KeYL2up88qPZQX1B+7zX2MYh9VDIRdbDSEIo7Jt28dZvOvePj/oepDb3l9Lp5ObGp/xiXX928ehU+BStdc12Kn0dWUOrtFKfjMC6Pr5/CB3ndF+SgeQKq3VgjI9AWZJ9Ket2xHXvUBzmTEs5Tz6fbNsdxfccpcuVwZg+N/NjIGTE6Qcy8+GpKv3SiC32Hn7TYzpP+/rJJCrqBN664QUVjRnsqAEhEUhDjB2kH1Zo9Z6Hr3y92yfWJfqPvIGqSpIz91fIUUlCNLZmHjzmv8+kXpObsRIKYU21hOWxEQtGZ/5UifBH5ljfnlcGqPPwdchrvbQ42Yv2qgosoApOJumtrJubKEwnYqntnIn385JQ5dHGRB1LQmT4nMcbTLiSFYQ+JxXUzEZYpKYgowLELrkn0W1POZYsUjB23CGSxabM2bXPvNwcBdJj8nDqLYuclol2DlDWVVQS0z5JktoXCmmYva89BgtoS7aiI04YI0dkiBXkspr2QgvLCzvet7Es/FnLsf1PseCzxW6c9j0rd3CPI2PafCePN89jilFhFgH0EW+GfZioIWIS8UepTeY7mUi5WNWSzTqmrYO2J98IT0ciB0HmN/ZK4X3ODXd2E1iNzXrBzLvYtcvseVH4FD9HOfYltzfdbaM33m9xt/lfLlE/BWfMW0dC336F773uAzj77bLqyfHlq0LCROvZGMP7nP/+pVGm8fFi/z9jfHcg1EFiZEntM0IEUzETtx+WwR7tQ70UhI1lhiHIYB8g4XbGoj00/Rn5d6cfXWPGHPiCqMKfzHvYIsgvGDNt562bfiX5jYk4KpOB1VW5Q5dEW28WvHPerKPdROT4hBcvgA1UpuJhEOv3ShPot+fKJZaKILMsf8Q4CfPjYyFm2kuyNP/pe9yvnm44XGiZElq5w64USjkm0+LMvJtRqIJbuut/Nk01S0L7zXtUPp8OjkUhBLPP1HdMv5C7/VQSOZkunZTvVjpcU9NYVw8cFz5dWnvM5875S1xHYA4o2bLzUls+5vNP5sZN1cZ0B+3j/192xeRWjJqWgwkOyPu8Sb+4v+uIELB9282ljdTp1S9gKgUS0dO8xE2GZkoLx5186aReNZGNSUPndvKwK4dxvYxv7+RT09hXnKho1VKewyRO90gKN8FLs2AVXkwNFacDYvdfYFl5SUM1pco6cpasodiRHBYrRyzMp6KdC5Lxuvjad3L6pyNBJVSmWJqdtz/ROzKVWRpEFyT5ZGQSC4X5kshelYDSiIRObSl6xaRgG4gOGJJ5zr73hPivCyqjAWGM+JfuOe0j9Dmbw/AurO5PrNv5x81O43yXU6T4T728ZeZzevji9X1a2gsrae817rv65knzeZsNGWJXBfobVygAhhULnwDsnRXXujJsYGTdhfeT3hHj3p4rt+IF3+ECHe5b4J+OLbT/DbC3Xi8/v59oftqhlolgq+sXEqTTuyynu9urAwdR/wCC1tWvfkVq3fURtTZu1oEaN73G3WrXrUK1atd0N/gR5K3f22UolCKUgRypm5SCntWj5EJ0RQAoCLyCjQOqB3MoEPyCuuByr4kyKOW+d7BOQiT1cR9uoK4gMM5VDWbSJsiDvvG3hnMeHvek60li1iDY4D49P7ydf8+71/rvEnlaXN79OCsIvOasRMY4o7XnrK8xzIQWL6OWxMCc5z23lxslu0kq9PDCRYd10F4Gkil16vZsOxZdatuuxJYJgsBoM5eEnL8990ep2vpym2laKLSZmchziqLNQskElBp9zuUnfa/aipaptEGPwK8cqMqfvAFWX81L/wL45k2cQlotCGZebG6d496fd8duTpqeRgiDGEJk4/kJft168kIB4UQEUtPGwTdi/X0GRgsrHH+ah/2C3T9wm94EJvPjoD9QYMU7enBbJqL5/usRNc6/NX+zWyXXxnutU84Fxx/9/kuuBlsp+KkqxQYGmymZCCsKX5PgpCT98GOOb7/j2B3UzEZYJKQilHt8HCgfaHDIpyNej7KOQgioa9cj3yapUTbVtP9KFcqHG3LDF7Qv8GsL3n/PyQMr9++UqHaS4HhSI58K0VxGrcR/xvQR8fz6BoFjFOJyH2itbwvclzq36d5PT7zWyV65x/U2a6tXT3A9gjeDTSUE9Lx9LoJHi8wLMcyJ7mZNsYMDauZecLj1ctyR4f4BKGnXzPyPhkgPn+GcYfn/xLLR++pmc5d+qfyDgNwrPIadFO4qdc5X7PIw/1jPt2Q93KM6EKVnb7CUr09qw5y5Uvz+xa2up/oYpAJ3mbRLPau0dIVPbMino9HgmrT/euiwEXeP3oa+/Cc3vLW86j49837W789HYrNRpaqekp8V27SO4ZMn2Zv18IMXmWOGB91Qr5J/w8QGvq3lz3v8kpXxe7OxHCmK1itXggcy2hk0IxHpaP1gRi3fFE7b63oBP79iu/eofptbq9WQv/pqcGXMJOHQGvUnOM73JbteFlIsh7R/aVvkbKLbvUHob2vtcWvtyrVjba9f+o676btNPu1zlHVR4y1d9p9R3iOqLbdzEk+QdiLwhbw2n1998m/r2609P9Hw6ZWveohWByMMGAq9mrdrudsutt9Gtt92utoaNGlPDRve4G/6hzOVat21Hbdo+orZu3XuoqMOIPIxt+Lvv0YhR7yvysN+A12jMx5/R0GR/Ph8/UZGMI9/7gIa89TaBALzyyitdohD1z5y3iM4qVy5UKQhSCmo9EGtBxBzj3qTQgzouTPEHNZ6J+GLFHhR3JvIOijz0zS9iMMrDzyDy6OUxFkRLjkK0MZmHPcqhL7BLFJ+FaB950ZZpfGw33ntJQSYgo/aV6ymKvZCC8rAPfNjjv97qv8Daj6qX8HCXjnpsmaKqArnQ7cnAtqLeAHbrjokXGvikS7YZHzr85MupFgmYiULd/xuXwT4qKZhSJhmEA3ZQ5BZIrmQkXF4+rOfnY+fRJ1Uf/QgrJugKihR0FYeLlrl24za5j0zgGUleBFPhpaSeuebypj3XyaSgemFlBdrCJW5f0spmQAo6C5e686/6eOCof715JAVVEBCQYtXqp9Vt7TmklmVhaVbUDcq7tDFrdoXiL3Z9bXdcav6SBKqXFOR6FP60ezU+cEhgG1zO3Z+wSQV+0erAEjdct+6+3+0LPwPg98/0gezWlxyPkIJCJnkxIedFhwkoZ5Taf+sOAjGA3zF8wPv9wyrbc+V8u149S0CM8TPLSfqATSMFk/+YxD8R7HubpT2D+FmEPf7hZfrtYjcIet78HENt77UJ1Nx6nSpYGz/P40RqJQNWM1j/IuuwFqRs5vyUa3o+PsY/0rzt4dyPFHSmzVbvNni/0bfYGeVVHzHXejofq9UI3OeIe14xoX4fIpYxjaU0p/E/uHR8ZOPY+y6Jf4ijXihm/TCjcNOlewIHW3cYcZXJXPiSgoOGptwPUcfraO/v3A/8AyFqed98p19KdusOBJUk/wOC65e9+flS2HbR1XcTJk9zlXcg7wYOGuKq73o+3ctV30GF1/ie+1z1HYg6XX1XuUoVV30HFR5INFbaYV+zZi1F+DVo2DilTtTbt/8At82xEybRFxOnuNu8RUsJy33VtniZm448I0e9r8g+EH4o9+7oD9x6oCBs0659SluNGt/r9r92nbop/a9YqRJddPHFKX3m/r//0ae+pCCILBBYukLQpJjzzrGpHOfRFXOcpu9B2qENPU0/ZsWcTuzhOter5zUdc/+Z2MP4UKcprymNiUGvXUx5vWmsZMwLKch2gW3RB2/dxelcSEF5iQkH6Amb8IJrN32IYldWUT/OIAqhInSmzPQtn0YKIohCPu2tyJC/Xab6gP/+47/x8O0XOzPxsquIN60NqPjUSxJIOy2dj6Hmw/VApWCcyNqwleKjxpDdqKnKr8p0ftxVV9n3NU/U80QvUsorT1tY6sgEj/PlVGNfmKBzJk4jZ+5Cd1NRY/Gi5/EpqOdRxzMSQT7US5GnfddHJHztwQdQ8jq36Z5Xqq7Goefha6yuU/7lPPVzHtPeSwo6TyZsrpYe+XzsqHqikII5NjkfjyP89xfjRt9s+E4M6R+PJapSEEStVeHGxBy/MVzVr5QgWBKez01/QY3t3Jf4SG/ysGpLjemciqRUnloEaj9SEFGq8R9zXeELlSGWHDtTZiX66rENsAlM2o/1JP5oVPhu0S7FlhivvXYDgWi0b27g9g/qE6fZw+RMmKpUjCbbMylo1biFsNRZbRxU5fRLT6bxtcFvEZP/ehlWOKB/sny4eLzIm+Zb0orP3EBFDEU27m11f+uRyzXyH/cUNqXg9Twjsj2fKaTg2C8T7bbtrJ6rXlLQqnGzug51D5OCIDGdJ58lp98g9ZGvfNhq/nO9/cXzz76/pbvprk/0dO9x7PLE+w6eofo1B/8YNNgIzyR2UQLVtvJxHPuFbKgBDbaOmmZt3Wlsz5cU1HzORm0D+bwkk2mM3jTni0nu2FRgKoNdvGVKwrlS37/4CtntOpMzaKhSpeW13zopqIhwkOHJTb2D4N3lmppumv77bd/b3E3nMqzi984XVsLwbzhcevCKGG+/1eoevDNjdQCWfYdtfqs5oOyF6xhgx7N8GDZDOv4hD+GA2mbOI9z77jmnr/ne7beJFORVLilYPv1SpRDGvYlnBL8nIw/sh+eIM+oDgnpSubQJeD547SPnRFH930F998Wk1OWzrL6DAg8Enq7A09V3d93d0FXesQrPT32HdFbgtWz1sKu+gwrvuRf6uAq8Z559nqC6463Py68oJSD6gg1EHUg7bFjmO2ToMJX+5vCR9MJLL7v1dO/xJHXu8ih17tpNbR06dnbVf17lYL169V3VIPoJFaGuHEREYVYOYq+rB9H/53u/qNrt2q27CiRStVq1NBKwevUayq/g8HdG06q13ys15P6jOeQXaASqPpBtIKJ0PLM/PPjv09P5GGo9kFgmH4KoCyScV/GHdJRBe1yPaQ9VHghB5EU97LMPffX201QeaUzsQXVnGp9fOU5H30HsQXkYtU1dyYj+s8rQr7yuFESgkTC7cN+Kw15IwVLyAlNoYAJBhv9yB5E5SZtima7+I25t2xX4wAgdAxR59e5SdWK5JtQO+gsp/nuPF7mUeqxf1RJeJrnQJyx5wRKD+JBh7ouI8mPkwQJUks6IUcRRUN2xgMTAUlUtPz46+DpUCVB18eZVWOkRffU6XILO5+PBSwpye8a91je0wT5k7Nsbp/Sb27R+PkgO/DMm22Z76f1jIi0/pKBa0ppsQxFFnn7q7aEvgT4FoWpLkrHcb2eyP0mt181jiUoKxrv1PGmbZOAaa/U6N43bz8uex4jlcd7yGJ9OGvIYfElBtmecEkvdk9GkuV6Qx1yHWsrU4dG0NuFnMv7xuIQDe67PsMfLNtfLe9yXcBvAbfCeSUHOl419QZOCPXs95y7LgF8QHovsiw/hJXMRPhfqWe7zm2K6D9WzxXC/Z9PWOimo/okDUiQZ/VwnBWMgI7jv+P1PKgXtlWvzdT+qZxTqxfMxYKwc0EntA/Kl1HHCTvW3PPI9d0m0OxYeU8R9xqTg8m8p/sZwteH3xXnxVfec07FHf6Aqc14fpq7bK1an2SN28KgKiALFuHH7cae7mkT51P1xpzlfsjyWf6bYK6pdCyAfAof59cVZsOQk9pJYQfA2EJ+Z+mTUSUFve+yXEX6d+VqY71xe9eElBVHe/n6z60bFaZ/u69vauS91XBEx6PfP1lBSMOmaRy3ZxX1ergJhOTWPlffsgsVECsJlilpZARJT++col+U9k/1QynJaWd9jaS383vFWGP7vWH2HJbcPPdwmRRWnq++wfFZX302dOVcp78ZPmkZjJ0x2r70ycJAi+Xi57fMv9nWVd17VoK66g/++TP32qfy165BXOdjjyafcNqH20/vO/Wbl4LKVqykRRASBRLbQxh93ucubEWQkx/D9PGnaTAJ5CJUj+w4EEQjFIpYSf/PdRtq+J33Zu4kUhKIOxJsf9plY86rWON2vHKez4o/Lg/QC0eZHknE53vNyWpTBhnO+FrZHG1yO2w8rw9d1u8A+UfvM4+N6uP9+ZJ+XFIxqF66/KPelihS8snyFyMAqSqOXmbaxZGbXPkUShC2VjGIT5RMHLzBQJi1JBBhxkmQNlu/Cx0hYPRYCUBheghD9Vy+rlv548lnVblKRgk2+2vAhxX7fTPWrNJCJWEJt/ZrSFrfLBJ3dtrP67yr+w6r8w1Somnh59yoFk9c5X8oSC88LtPJtCJLttaEpbXObuUn1pfpIwPJsw48WE2n5IQURVMS6qjpB/YWPDR67cR+BAEodAAAgAElEQVRCCqrgGxckou6q5VALlhhVmqa6eSxhH4Uoa2nLwuJDR7h9duvw4MR3/n3yOVjKk5wvzD3KK0IZKlz28+eZz1BSMJkfPnfwX3aoBpR/T+2DzBkyzL0XoC6AMi8+6gPy+inivpn2IBycd8ckllQnx2daQs+koFWlnlLlQpmbl41xDBsJKRhOCJnmTNLKnt0QKAhKYASbgG9QqPiVP77Bb7pEm7qn4Lu0EAJG6KQglPX4PUD7UCnqpGD8k3GJ5+EziUAaLim4Yo37zMwLnguUFPyF1D8n7WatCe8MeG9Ry7XhN/FoLsHfq7I1ArUdPpHwj5a8huumzV194Pzm/rMRvxH4LVV1XXFDIr3vwBS7xAe+oa6rvec3RCe9gkhWJkbRTjY277tWpPk7fFyRQrH9h8nauoPYhxzqUv4i4UtuyizyHQcI5fWbld9d56EO6j7Au1jsvKsSPnMNRJONZax+Y8ZS1MZNyXlpADnzFqX/M9pj68IkBWFP57Pxbt9BCOdqSr/4C4ngNL5j8xmzHkDOfqAVYQWI2s6pmGjrjCvdNLVyZcyn6p3DGTFaYVKtkMHvdt07jRG38f6Ba/Y36f9UjIQRvKslgx8WV1IwP+q7N4aNcBVvXv93uorNq77zqtgy9X/X5dHHCFu//gPpyadOqv4GD32Ler+YUNa9PXK0Ut6BLINCD+q7p555lp586hlXBdf2kQ5KIcfqu3vuvY/uSyro8tNnr2qQVXdev31QCGKbMnMOTZ01V23frvshxf/gxm07adO23Wr7cec+2rn3sLvtOXicDh6PuVs2iJ61GzbTs8/3pmYtWlLFipXo+usrU4NGjanXc71VXzds2aHaN5GIfE8wKVjtxuo0ffZ8+nzCZBo++gP6YtI0dY400/bR51+qfMiP68iPcp9+MdGYX69jysy5Kh/yf/DpuEjt6eVxzOVGffgpoT7vdb9z9E9vN0p/UZfXLhOmzKBRH3xG7338OU2aNsu3ffRz5Psf0aTps1PywF5Ix3Vv/z8ZN0EJChB9uKQJCkoVKYibg28U2ZfODx98NKiACsmXLlaemf7zaMKAckKskWl4QTItl1IEI15grqii/BQpYsjzouetX0VnRYQzUyTVeV+Fki1M0HnVjvxf4TSloKc/6r/X6PNlVdLuA+UXDtdWr0+5BqUlXlixLBPkogqgYXhBxliZBFMvXp62vbbQzxUhVaUOKWUdXliXrlBKAj2P6RjLrdVS44C2QBI5ffqnvPSa6vKmQa2JqNTKf15A/VwO/31XEZkj5OUyedljnoyOtj3tAu+YZzXX+fiIV864Z84L/O971HHgYx7YMKkomBRUETA9Y4laP/KFKSgyqSssrygFS+dvSNi8l7XrTMKBJHCwlDcf92fUsjopiDKqXbTfd0AKKcgqKuvHxCoDlxSEf9t89LOgSUH0DQrvWCye0k9FDib9vrHKC+8kUE+p4GUhY+LfeD9Cx+vXzxmbiDKrXJdodcMVBCuz7FsapvTRa9esk4IGn3HeNq3DJ9T7RvzdMep32m+8pnSo+bz1GZefauSXZfKDZf3qBkQzteNNi3/uf+8UNimI8atAPckxcmA0fq9F3+FLFO/PQVt8yNsuuaj/s4Cx47UBn+Md2DsHrqsebbWCN09+zwuTFIzq/y6b0WejqNh0BRtUeB9+OpbeGT3G3UaOGuMurQWBBxUeyDtsL786MGN/dxwt1+uvr0aNmgmVHiLs5lExyMq71es3pyjvduw96CrvMlGZ5Rdf2SoPf4kdOnWh2rXr0DnnnEN3N2hIn4wdT0tXrqYde8xKQr+2mRQEASVb8bOBkII+NKMfoLORzlJNIQXL6EdcPkiRIPzF9h3OmGwKqi/sWo79LyOhonzXQV3I6j0c+6gNVboPqYflqaou7eMgrE/6dZSFisFPvabnLbRjPzvkcYyF1u/S2D/gU1MkpNgy9ksCO5pSMeV6VHtAfZxU07j3Q9SyGeYTUrCM/p5kiJM84bi4tAF3IPXvVh/+FvzJ+t2/We6vlxTEPa18lS5ZmUoK/rBV+TtlGzMpiAjEnJaXfWGQgmn9ynHIbpMIkoaAEPAfizyIoqxImk6PhY8pTuRMn0POF5PVBjUiysLXsUqb91VqHUdyCOpsVf+wd91r9uz5Kg0rBHQFWFqfMe+5cfeZy8/eTPbK3yOTU92fTnt3iR04Qs6CxeQMHUFOy0dc9SMTTHnZx44l/SZbv5Iz+E3K/dMlifFi+eoFV5PCukYKKv93JoxDYXhbI7csVIb4R6Ry65H0Y633D+5ZvK5l1Bxryj2vjZn4ztbyYbd+YOWJZxTZzKSnijYMG5xTMfF7DPL64FEVFdn7D2Ol4K1zRwI7HqIVqkvXL+BjTyXytGrvpsEHM1Yi4B/dvPEcAPucZtrbcxa4OOWxYD7VahysyAnYYpXrJvoy8v3AfDrBCXLvjWHD06LP6uo7rw85+L/LS/RZqNpYeQd1GJak6v72Hnv8Cden3SuvDkwh77BMlsk71AG/dLw1bd7CDVQB9V3tuvVcX31epeCdd92dJ393UN5BEciKO+wnz5jtqu6gvlu9fqOrvNNVd1DfKSJPU96BzGPlXTZUd4yV4rjftf+wssvQt9+hejfVV8FNEFCk13MvKP+AUCWe8PluCxtPtRtrCBlYjAlRfEeEzWFxuu5D4aUln5KWkmFCQQ5aSEH5eCtIfEndgi/BQNnDgJCCZW/Oy9p9rvx3JckRqIYLa/w6KYjloEqtDsX6Z+NVQDNFYrVqn5KulPhJn4JqmWHjpmoJJ5Zxpm1wtWEieZJpRUEK6j6Wleo+2ZeMSEHPmIyBRrDE+P1PTm7tEi4plE1HjE4Esmr0oCJPQNCk5DUovILsGOWa0/Vx1RaWUuv5QRwplarH761OspmO4TvaQaTsbj3V8t14v9dUPdirKMqD3nSV71Bh6nUoe8GG8Eec9E+N6yCn/P7J5EZXvqKKW68ax+ETyveuUlpqBCPq8ypui0IpqNuaj7FqQ/VP8zWolnPDBiAANXzxKhzkV34KtWt6Pl+fgn0HpNge9UTZjCrDhR7/jhHr8msvDlwkxzNt1jxF1IT5kOPosyPfS0SSBSkGBR7IOiyt5cAWbR9pr4g+EHiN77mXHm7T1vWpp/u780aZhS85XXVX7uyzU4JN6Mq7sL7CBx376suGvzu2lewzfyfy+gps0fIhmjVvkVI+5pUI1OcB/MfTvZ6nNu07qT2OM9k6dn6Uuj7WI6MyPZ58WrWHfSZtcT8zbQ/l0M9M2yqKchibbhd9rkrCcVRqT0hBnx/EkjDJ0sfMH+RiM7GZYKBsY0BIwbI9/6X9/of6RgWeSn5gKwXUkq8juXbIr210UhCRyP0+3vV0BNtgpaCebjqOT5rufvSb+qp8z2HcWQw0oggpRHn3bKzqZ3Ipds5Vyq8gfAtiY6LGqnpTSjpfDwrMYSIFETTMZJMoaYooy+K7rlq2mox2rQg6rW4oQ9P6BF99CHzS8zkVCVkt+9VIQ2vN94Hzqs81Vnq4fp7/dAnF33onVaV4wqbYtbXcPsR+PmCs27riBpUHKkG9fvcYats9h8gZPsoNXIdxwT8v5/ElBaF8T/pFdiZOc/OHuclglzK8BJ3b8dtD9affZ87kGW5bSqGYDDijl4+/95Eat1Iy8ioVbf44rx8pCDc4CC6i5iz5jEGQFgQctFesUUQjrns300oUe/HXyk6wVdDm4ulvlwXm4+XUGMP8xcuoectW1LLVQ67y7vY77iQo6hCo4qb6N1PlylV8lXdBPvoQLRfRZXkrLH93QT7oeN5kX3DvN1AGTpg8nVq0ekj5CixfvoIKuDJx6kwVLKQg5scULTjKHCMicJR83jx5VXfmtZy3/ajneR1f1PpLWz4hBQ0/cqVtkmU8BffwF9uKbQUDpRMDQgqWznktq/crlnzCp6dSRQUobdTSwjx+KES1bQopiKWjffq7myLqkiSFno5IsUwKKsLso7EExQ8rtez7WqhzpEF9iL6AIIvPmJu+vTnCJYOM15NlnOZtE4RQ87ZpdTiz5qd8TMWuqenW6ZITsHMyWBQTOSnXAuaB88G/np9djaQglm4+2Dpvm2eZqF+7UdLtJStde4Bs9Pqajb+h+auDuu6JXgT1oLdu9hMHe8QOhAQn097ndXs7ffql1Yt2WMWIutnnsd4+XK7wPCjyS6tfz8fH+lJpBOHgdD9SEH4nuX5dPZptUtBetMxtB9jQVZGsVLXvb+H2F/22mzysyiAoEY/DtE8jBZ3fSNktaSsVnA32xTJ2LJeHD+NkFGJTfflJY6xkEmgESsE27dq7aj5Ee40SIbe0+rvLj/2lLBErA+ErkKMHQxko5JS8T5aE+6NUkYJwslkSjC59lIeDYEAwIBgo3hgQUrB4z4/cP5nNjwrAEIGEgnoqtnNvgb5L6aSgPo82CIOk/zcsEfYGEGNS0Fm+yu1fvNuTimRwXnzFTeM6VeTTCGNmYiajvUdlaE+aQc6YTxMbIq5yu0wKLlxC6I93s1t3UHmtm+5Ku6b6H+Az2SUFW7QlBOWwX+ibZgPYAvYC6WMKwsG2yubeXreRrKoJX4ZQ/iHKsrd+ELZKEdh/sAoq4ufv2G7Y5KQtI/qkRSAxtn/s0spKjeZtH+fOqDFuPlPkYmfyTPe6M+RtFZQDPhDRd/jgU/4dR4wmFbDugZZuXrRtNWjijtmPFIR/PLef+w65+bNOCq76jhCEBkuEsQxft4Xz+jDVB+WfMknkxY7mqCB76JszZ2FKfr0sjpkUhD9I4B/qY7tdF1UG0aLZzx+rGpkUVOMOIVm9bYWd54UUhG87PcosjsuSv7swm8r18N9ZRBHWlYF3N2hEw4a/S1GiB4t9w+0rNio8GwkpmOUfJQFv4YFXbC22FgwIBgoKA0IKCrYKCltFUa/zUn+XgGAiQt9D6QZVDxSFBd0/EymIJZh6f3CMqLwq4FfyPY0JIj3QSBApCD9+8EHn3XjJJtrwXtPPuT+xM8qn56txi6+dlLrPQwr62ZSVWk6UQCOe91UmBbmfajm4Jw/aVf4iQfB06ObbZ7/+ZZpubdyWMo/25p/y1Sbmg8eXG9EZvyKgkvbXl8p6x6KIyVbtCYSsKcgO1Itu2zyfEfdYIsvt+ZGCDoK/AIPV6rt5USZbpCCiDcesf7l1m5SWikzHvYao2Poy4dgvpBSGAaQ0+sqkoG4nKJIxV6zixTUQjSp/Uimo8huwyjbLyz4vpGBe2pEy8m4ADKzbuDUlijCUgYgi/NNusysCwY3gprhjQEjBLP8oFfcJl/7JQ0kwIBgQDIRjoN+AQSqqW7Ubq9ODzVKXVon9wu0nNipmNjphkbN0FdmzFxBUT/wR77R/NKGk0gmBAn4vSiMFESX20YTiz6pwY4IoqXmr2ttNWxP8kwFPbqTktRtcoiOIFPTDoDNiVKJuBC4JGKvTq4/Kp/YB+bx1FBgpaP2qoqqCSASJCBUcz6NV89aEUmvyTMJyWX2zECTDXZKdek3Ph2NF6mUwVnfsiNS7ci1B4Ym24M/PXrU20L5u2aD2NJ+CUUlBKBDRh9gF16joyZHa8fYBvgKTdmMb++0VaVz/bnLadSFn+LtpSlsjKZjjkHVTwlZeBadOCppIVV4azeo7v/HZHR9VfjOh4PPN06yNiyFFUnrt4D23fiVEH4a/R6dLD7LKJ3wuqjmvcYvy3Qiy1V66wq1XBbR5pCs5j3RVikW2I85TtnfeS+0nnkkggiNuuAdQtzNlZrQy3rHJear9xR5p9mBVIALM3FC1GpUrV46uvLK88hk4c+7CPEcR9rs/Jb2YvUeV8ntCSMFSPsHyQJEHimBAMCAYyBwDb48crUjBs8qdraKeiQ0zt6HYrHjazOn6hPvB7oydmPbhU9DzlkIKghCEnzMQSVfVIFY0Oq+9Qc6Tz6p0FQADJEpySaq1aZvb5zyRgn0Sqkllh4B3wGyRgiB90iIkJ6MmK99zSaWWXx5nxjw1XmfidHfemFhRJEj7R117sCpQv57JMYJB5GX+lSJPU9E5sxbkqZ60trU6I5OCXXok8ASCMmB+g64pVZ3etnaMeULgDmfuQrIiqIJMpKAKRJKsEyRbSl9iv7jzjEAfILE5SrS9dgNFIQWtw8fdOpx5i1Lr12yiFILa2LzLi1P6BV+DX69269VxBXJPz4uAIvr1KMdOq/YpdRTo8n8Eg5kxN6U9vf9yXDx/u4pqXnbtP0qduz5KtWvXIfgLRAToipUqqQjRbwwbIT4DtWdKUc2RtJv/e1ZIQQGy/CgKBgQDggHBgAcDQgrm/wVDXtKKnw29ZIe1KX/LO/Myxzop6Dz9giIPoBC0N2+n+CuD1DlIQQTp4CWICOIQu+i6RN7te9znVV5IQbtt50QbfQe49ZjGkS1SEMugo5AifnmcDz5T/bQ2bFX1YKk3lrZaDR5IjKPHM+44nKmzFLEKclUFjwDhc8aVhGWiSNM3VhoioEoifUCays1kFz0NS1Sdfq9R7MzEGKEUVAE3PM9TvUxGxxphxZGcw8ozmWxdVT0twElYWb4O8o3nA8tSnYVLyNq+h1RwkAzHppOCIBER6Vth4rQLyRuVmdt3Xhvqts/9wB5LxkNJQSzdbdtJlVfRg318MdqrvnPbYMVf/L0PXSxxX/Q95hv9AJkNO9v3Nlfn8e5PpZRTEY+XfUOOZ4sPHe626b2mfCxqti1oUtD58POUPuvjlOPi99tVlHPyw9bt1LFzFxr+zmgaO2ES3f9AE2r1cGtasXod7T+aULIXZf+kbcFrNjBQ6kjB6XNSI8Jlw0hSh9xsggHBgGCgbGFASMGyNd9l5f52ps1xP8rtO+9N9SOmfZAXpD1SSEEsQbyiCtnf/aA+0FNIQSwZ/mFrItgBglUwQaSRHBmTgjkOxc65StVlT54RSApkixQE2YHgF6bNATGJpb33NTdeRxnXF5zzmwp2wYo59inoaKSgO29QVta5Q9XtvDsmbZzWmu8p97QL1XXrp91p1916fDBh7d5P8YFD3OWjsCmWpeeFNAtqSydU9ai2QWUQ9IWx4jRvQ9aPuzIen1qCmsSb8/G4jMvr/dNJQXvpKgKpq0hwqO587It0hZvZC9SSfyz7x4a0MFJQBexJksHWNp+5PXKC2Aef3ehBVbci+865imxgI6hfPx9MLM/VfAp6SUG/8hkFGjlhKdcGsX2HIu0VAQri9MPPI+XP1Z4jfv2VdHkP0DHw6bgJdM2111L7jp1p7+HUoD16PjkW3JREDAgpGPDDVxInVPosDyLBgGBAMJB/DAgpmH8bCg6Lnw3jA4acJEze/yTw47+g5k8nBe0lK1OWYHpJQe6DUhFhiXHt21P6nCkpqJM9ILa4ftM+W6SgqW5Oy0agERMpGO/14sl59i6TBGGYDOBh3xfdXyr82yEgDObPKl/VrR/EnVKdFcD7tHVZwh+iIqx2nFSIsv2M+xN2QomXJPWsKvXIOnQscK699cTf+8gdH9SX3uuZnOukoCp3wiZr+895rjOMFHS6Pq76rhSxPnOi/AyyfXAfwCckIkVDBYgAP0k/nmHj5EAjKaRgcnwYo3eLw28gt2u4ruyC5dM+/Q5KZ5LTmTY7T+WD6pZrxe+3rLDnZN3GbXTddddTi5YP0dadEZ9FecBxYY9L2hNsMwaEFJQbVn48BQOCAcGAYMCDASEF5UWJX5RK0z7Fn+CCCP7jcuxEAIvHnlJLTHPhq8xzr2R6rpOC3rJ+pKD60IcKCME/tPYzIQVjW7ZT7JyKCcKkSatQlWSeScGtO13iI0w5VyCkYOwXtVw4dkM9tx9QDcb7DyZr9Tq1BBXEDJaMYsm2bk/TMZYDq8jGSTKHSR34o0Owi6gEkqnusLTYtbVOjmH1+tC+cn1Y6mvVuc0ti4jTWLZrL1qq+ot5gUISZKb91XKyPFGSU4LxJJdvc92Z7tNIQQ2/mdaF/EGkoFLcnnGlGrczfrLRXtbPByh2fe1Enm493TyxA0fIqnZTIh3+PCMEHzKRgrx0mXGS6R7q2LzYRUhB+c3OC26iljl03KbFX6+i7XsOUU6EeyNqvZJPcFtcMCCkYD5/nIvLREo/5KEiGBAMCAayhwEhBbNnS8Fl8bGlDTKMlToRllU6Lw9086Nc/PMJefpg1zEQRApiqSs+7p0vJqW0w/3wBrDIhBRkX3MYRxTiIS+koLN8Vaq9RqUv3dVtUSCkYPK9Nsf+N8UnTFWRgHnO9X0cUahD3oHtLdtTxsPlQQjGYvHQ8mH1h11nRSPadabPyag9a+sO0pWG3He/vR40BAQq51OBcELsFDSOQiMFEZ06qaxUex/FndOluzs2kMR639V9l3w+qKXtIeM2kYJMWrL9Mt1HuTf1PvOxkILF53eG50T2MieCgZKDASEFQ37wBMwlB8wyVzJXggHBQLYwMH32fBV9+JRTTpHow/I7mfLhnC2MFUU9DpRB/NH/UbijfbtNRzc/yiGoRH77zaQgogmrKK6I5OqzwY8a2oPPPai9cnNTiahIpCDUjvCrl1RQxT1qQ7/xZEoKwk9f7Joayl6xC65J7M+soKLH5h4x+58CCYOAH07P5zK2a/yFl1UbpuXD+phiu/aR0zmxpJTnHnv7gZZkz1mYZlO9rPNQe9UGFGT2kq/JGfm+Olflb25AzsKlkRRlep2ZHFvV6rvtOWM+zthGucm5t29r5Naj24CPrZq3pvhDVIFukveJCnaTj2egTgr64TyTdFbzQaWp29IZNzExxtMvJXvl2pRryAeyzWnWRuWBX0PMp15eHefGKY5/BCT9TTpvDA+cXyZPU5YPB9gqI5+CAfWk9Rs+GOFaAM8oWT6cPq8Z2tJkX0mT92vBQOnGQKkgBeXjrXSDVB5CMr+CAcFAYWNAflcEc4WNucJoz/liskuOgIgIa9N5qIObHx/c2VQKMiETtAdZFoMvOXzsg9DwfNxGIQUVYZEkeFTgCgQt8dRjOs+EFATxxuNQPtl27af4pOlumiJAx3yslqxyoBBTm8Y061djf1nx5UcKWnsOUvzNEQkyNTl+9JEJS+6vdff9ylegt21n7kK3/2osSZs58xe76agDqjTn9WEqWAz8DmK+rF37lK9IqO+snfvI2raL7B+2krV6PTkItnHgqHFM3j7Euz/ttqWCo0SYN28dfI7ozfGXXyOdaLQbN1XL42P2v1P6o8hSJgUXLUu5xvVF3eukINs8G3svKWg3bKJsZfIl6Mz7KgUHzoIlgWNCdGvuo92mky9xzPdWUZOCmL/YGeVVn4UUlN/uqPem5BOsCAZOYkBIwXy8YAiQTgJJbCG2EAwIBkoTBnRSEEuJS9PYZCwl517dtf8o7dx3SG2bftpFa77f5G7LV31H875aprZps+bRuC+nuNuQt4bT62++TVt37E3Bbo7zm/Kr5rz+FlmIIhryDuQsWEzwQ+i0eoScEaN9yYGwevTraNd5aYDyUei81D94j+Wvd9+f+Ng3RNENJAVz42Q3anqS3Li9MVmbtoWOmfuaCSnIS5NVZNmtO9w2nLETVbRZJlh4HzuzgiJpYpdcr5SCiMCMLXZ5ZVJLc8+scFKtBf9uyXmKD3yDQGQhYmzuny5J2KX3K4nrcaL4G2+T06UH2Tc3cMujTfhSRLqz/FvKtX5VvvRUn0+/1LUPVKRYcoy2lN+5Syura3brjpTrWYoK0sy+v0VKGzy2KPuwyM883tihYxQfOjyhaMymHy/nN2UHbse7x33ifDmVgH/vtUzPdVIQPjPzu8WuT/hZ1ElB+/vNLh7sOQl1LfqJJdR2s9buHANjDpa0h9gSkZ7jjz3lzq9yOwCbwafhmE/JatgkgcEkfpw+/SLZKRtKQfg+VBGT72uhxuY0b+v6SAT2nGXfROpLpvMo+UvO76bMlcyVYCBzDAgpGPJCLKDKHFRiM7GZYEAwUNIxoJOC0+fMl48M+a3MMwZA7K3ZsNndvpg41SXvQOS9OnAw9R8wSG3t2nek1m0fcbfG99xHjRrfo7Zbb7udatWq7W6Vq1ShChUrqu2iiy+ms846K22bv3h5nvtdHO7h2NEcUhFyQWztO5w2lkBS8Bci5TcPS2XbdEpZHhplbBmRgl2fSBB0iK5quFfiH40jp3kbV80UhTjjPFD7cZ1xEDqa6k+RIPBjmGzTeaZ3ynWoFuOjPiA/daJ1+Di5CrN7m7n1IAiHUjwiMItnyTa3hT0UgCC57CYPJ/zZaSSjt5/6ubXxR7ctvb7SeKyTgtkYH/vs00lB1KuWB2P+dcIPkaavqp7AZrM2FLP+lZHd2Weg06q9W0759fRg0Oub0G+cWSEFQVx72udzu95d5FV9+vVF0uU9VTAgGBAMnMSAkIKGlzcByEmAiC3EFoIBwUBZxICQgqUX91HVd1DhjZt4Un0HAo8VeH379acnej6dsjVr3pKaNmtBd93dkGrWqu1u1W6sTpUrV3G3ChUqUoUKFdztoosuIt7OKlcujdgzkX1BaeXLl6dEGxVp8delQzVj/bDVJSX055EzdRbFBw5JKOAM73NQvinllE6UGPLpdfKx9cOPhKWy2HOa7/5IDjlDhlFuyNJk9Cd2NJdi+w8rpaa1ez9h6bFacrv9Z7IMmx7dF8Qo/CxicxYuSSyt1saD68oe02YrlVgKQaTlSxnHCZucidPIXpXqhy52PEb2kpXhY/fWC1s7vyXIGSx9Nm15mI+UPnvbLMbnWCoNws7asCVzWxrGBbygPmAoik3sRcvImTidcnOdSPlT6oz9olwGWD/uPFn2hK0iNiNqM5Sn1p5DJ68Z+qvXZ2/apvAJxauenumxanvabOU/EMuF1bb8WyEEQ+yfqZ0lf+l9D5K5lbn1YkBIQXmA5uuH2QsoOZeHjGBAMFAaMCCkYPHHcZAC793RH+RbfQcVXjZIuiACz+9ajRo1qVbtOmpr0LCxqxyEirDHk0+5Y4PC8PPxE+mLiVPcbYuuXfoAACAASURBVO6ipTT/q2Vq23somv+80nDPyhiK/z0rcyRzJBgQDAgGBAOCgeKHgVJFCv6///ff9GCzFkJyCdEpGBAMCAYEA/nCwNKVq93ow7J8ONrLi67AW4vlspr/uwWLl4f6v4MPvJ5P90pR3zVv0Uqp7zJV4F12+eVZUd9deOGFruoO6ruaNWu5CkCoARs2auwu723dph21afuIuz3f+0V6oc9LaoNfyhGj3k/ZpsycQ1NnzVXbt+t+SLHXxm07adO23Wr7cec+2rn3sLvtOXicDh6PuVtOGVJdyYdEtHtR7CR2EgwIBgQDggHBgGAgKgZKFSl4VrmzqWr1Gvn6EIxqOMknN5lgQDAgGCi9GPh+y09llhRct3Fbvv3f1a5T1/V9Bz94FStVCvV/56eay296kOoOyru+/Qe4yrvh777nKu6gvps6c66ruoP6bvV6kJ1b3G3H3oNuIBAh50rv80Ce9TK3ggHBgGBAMCAYEAyUVgwIKShqGiFRBQOCAcGAYMCDgeJECu7cd8QlnvKqwHvyqWdSFHjs/w4KvNp166Wo3ypXuaFA/N9lorp7uE1bV3EH9d1zL/RxVXcDBw1JUdxBgTd5xuw8qe6gwDtwzHJVd0djmTniL60vhzIu+fARDAgGBAOCAcGAYEAwUDYwIKSg50NQgF82gC/zLPMsGBAMBGGgIEjBtT9scRV4EyZPS4lAC6KLI9BiCa0egbZR43vdJapFrcBDEAv2dYf9w63bpvRV93cnqju5x4LuMbkm+BAMCAYEA4IBwYBgQDBQ9BgoVaRgtRtrqOVeAqyiB5bMgcyBYEAwUJIx4EcKrli9jt4YNoLg/w6bNwpth46dXR94UOGBOONItCkRaCt6ItBefLHrA+/c884LjUCrR5iFr7saHl93DTRfd/lR3S1auiLF1936TT+5vu7g826H5usOqjvd352o7uQZUJKfAdJ3wa9gQDAgGBAMCAYEA2UBA0IKilJQlg0KBgQDggHBgAcDOimovwyMGDlaEX3lypULJe7CfOGFqe5efnWgqx6EinDshEmuvzs9wmzC191G188dfN7t2HPIXXIsvu7khVbHsBwLHgQDggHBgGBAMCAYEAwIBhgDQgp6PgTZMLKXm0QwIBgQDJRdDOw+cMwNNKLjYO/hHKWUg48++Lrr1r2H6+sOkWaxZFaPMvvx2PGur7tMVXe6rztEmxVyr+ziUcegHAsOBAOCAcGAYEAwIBgQDAgGsoUBIQWFFBSFkGBAMCAYEAwYMHDKKaeISwqDXbL1AiL1yMusYEAwIBgQDAgGBAOCAcGAYKBoMVCqSMFb77hLfcBB4SHAKlpgif3F/oIBwUBJx4CQgoLhko5h6b9gWDAgGBAMCAYEA4IBwYBgIAgDpYoUfLBZC0UKwhdU0KDlmtwUggHBgGBAMBCGASEFBSNhGJHrghHBgGBAMCAYEAwIBgQDgoGSjAEhBWVplBCoggHBgGBAMGDAgJCC8oJXkl/wpO+CX8GAYEAwIBgQDAgGBAOCgTAMCClo+BAMM5pclxtLMCAYEAyUfgwIKVj651juY5ljwYBgQDAgGBAMCAYEA4KBsoyBUkUKdujUVS0fnj57vqhehOwUDAgGBAOCgXxh4KxyZ0ugEcFQvjBUll8wZezygSUYEAwIBgQDggHBgGCg+GOgVJGCT/d6XkhB+YCTDzjBgGBAMJAVDFStXkNIQcFSVrAkL8TF/4VY5kjmSDAgGBAMCAYEA4KBsogBIQXlg0c+eAQDggHBgGDAgAGQglALlsWXAxmzvBQLBgQDggHBgGBAMCAYEAwIBko/BoQUNHwICvBLP/BljmWOBQOCgTAMCCkoGAnDiFwXjAgGBAOCAcGAYEAwIBgQDJRkDJQKUvDtkaPVEi9ePtyz13M0fc78SFtJnjzpuzx8BAOCAcFAwWFASMGCs63gVmwrGBAMCAYEA4IBwYBgQDAgGCh6DJQKUhAkIEeJLA57LDcryO3K8hWo2o01CnS79Y476cFmzQttwxwWxQZCuTRsCK4jW6oNvt/yE8mWbgP54Y3+wyukYHRbCa7EVoIBwYBgQDAgGBAMCAYEA4KBkoeBUkEKggwBGRimFMT14rjhw7MkbMWBcJU+nFKsCHCZD5mPgsQA/rlS2M9G/TdCSMGS91IjL6IyZ4IBwYBgQDAgGBAMlHQMHLf/Td/9sIXGT5pGbwwbQQeOxsTHtbh9KzAMlApS8PvN25WibenK1YowgfKrpD8IpP/Z+zErrmqxolT2FbU6sihUoXqbHTp1KTQVrJ/itqDVvkH1F6SSOazugiQRC6JujEeex9l7HostxZaCAcGAYEAwIBgQDAgGUjFw6LhN476cQu3ad6SKla5KE4H888wzqXPXx2jf4Rx5LxVyMOsYKBWkoP5QwUchPv71NDlOfeiIPcQeggHBQFnCQFQfs958UA2CXC1LtpKxyrNBMCAYEAwIBgQDggHBQOFgICdO9OqgIWkkoN8/uoe+/Y68lwopmHUMlDpSEKocKAblQVY4DzKxs9hZMCAYKM0Y2H3gmPyeyMuXYEAwIBgQDAgGBAOCAcFAVjCwfc8BGvPx5/TAg83oz3/+S2RCUMRP8s1VUN9cpY4ULChDSb1yEwoGBAOCAcGAYEAwIBgQDAgGBAOCAcGAYEAwkCkGtu7YS526PEqnnnpqRkSgrhqUFZGCu0xxFyW/kILyH4+s/McjCtgkjzzEBAOCAcGAYEAwIBgQDAgGBAOCAcGAYKC0YwBLg9dt3EZ9+71KtevWo9NOOy0jMvDss8+h884/3y0Dv4Lzvlom3+7C32QdA0IKCqiyDqrS/oCX8clLjGBAMCAYEAwIBgQDggHBgGBAMCAYEAyYMHA09i9q0669S+jpar+w48pVbqDl36x1v9EHvPY69e77Ch2zfnXTTG1KmmAxrxgQUlBIQXm4CAYEA4IBwYBgQDAgGBAMCAYEA4IBwYBgQDCQDwzsOXSCnn2+D/33f/8pI0LwtD/8QfkYRNA7EIp5JXeknBCDecGAkIL5uOnzYnApIzeqYEAwIBgQDAgGBAOCAcGAYEAwIBgQDAgGSgcG1m/eRp26dMuICGTFYPuOnYUIFE6mSIlgIQUFgEUKQPkhLB0/hDKPMo+CAcGAYEAwIBgQDAgGBAOCAcFAWcHAkdxf6M3hI+mqq6/JiAz83e9+RzdWr0GvDBxMm37aJd/iwscUOQaEFBQQFjkIy8oPh4xTXpIEA4IBwYBgQDAgGBAMCAYEA4IBwUDJx8DI9z/MiAyEMvDyK66k+YuXy/e3cDDFCgNCCgogixUg5Qey5P9AyhzKHAoGBAOCAcGAYEAwIBgQDAgGBAOlGQNdHu0eiRRE4JDeffvRMi14SGm2i4yt5N33QgoKKSikoGBAMCAYEAwIBgQDggHBgGBAMCAYEAwIBgQDETHQrEWrQFKwXLmzadqseWLPiPZkMvGr5avo+spV6PwLLqRZ878S+2VoP7ZjJnshBQvByJlMiOQtecy6zJnMmWBAMCAYEAwIBgQDggHBgGBAMCAYKDsYaNHq4UBS8Nxzz6NFy1aWKVIrJ060+8AR+n7zdvr62+9o7YbNtHv/UUJ62L1xwvmNhr0ziv785z+7dv37P/5B33y3IbRsWN24fviEQ127dae7GzYmzN1nX0yM1K8odWc7z7HYv2jnvkP03cattHTlalq/6SfaezinwPorpKCQglm5ybJ9I0h94Q9OsZHYSDAgGBAMCAYEA4IBwYBgQDAgGBAMFD4G+vZ71SWvOJKwaT9i1Pul/nv7cE6cBg4aQv/5xz/62uTa666nUR98TAjQYsLrlu17jGXhh9GUP9O0zl3To0PPXbQ0K3Vn2he//Ft2/ExPPfs8/fnPfzHa4o9//C8VpGbitFlZ7beQgkIKZhVQfgCX9ML/oRKbi80FA4IBwYBgQDAgGBAMCAYEA4IBwUD2MbBz3xG64867jeSNTg5ytOE3ho2gA8esQv/2hkpv9oLF1KlLN7r1jjtVtORzzzufLrv8Cqp3U31q3vIhevf9D5USLS84GfPx53TaH/4Qage2yd/+9r/0cJt2tPaHLSm2mD5ngW8dPx84lpI3037O+2qZse4X+vSNXO/R2L9ozsIl1PWxHq4dzzn3XGXHuvVvplYPt6FRYz6mnXsPR66Tx4G6EY36v/7rv4z9ZNvp+3PPO4969nouz/PGbWMf9e+UqBn98umNynH2H0piU7GpYEAwIBgQDAgGBAOCAcGAYEAwIBgQDAgGCg8Dt9x6e2QiB6QOCLjCmp9V322giy+5NHL/Pv78i4z65ke26eSV3zHUcAuWfO229+WUGb79xDLk/NisTbv2xrp7Pv1spHp/2n2AKl11tbEO7/j++7//RJOnz45UL4+pd99XItXtbQvnUGcuz2cQGz8Oz5supKAoCjMCNgNc9oX3gyS2FlsLBgQDggHBgGBAMCAYEAwIBgQDgoHCw8D2PQfo0cef8F3yaSJyLrr4Yureo6cixeA/LtvzhT493vNpOv1//icjsun//t//Sx06daGDx+3QPoH4OvXUUzOq32QLtLfn0DGaNnu+b11zFi4O7Y+fDfcfyaX//d+/G+vWSUlT+YPHLHq61/N5GudjT/SM1Oevv11PWBZssk3UNMzz871fop8PHo/UpnesXvLP71xIQSEF8wQwL+DkvPB+oMTWYmvBgGBAMCAYEAwIBgQDggHBgGBAMFDwGPhh606qXOWGjMmd8hUq0uKvv8nqt3at2nUy7odOQPV5uX9of84//4J8taG3B7XbkhXf+vok/ChDBaOOd5Blelt8fEPVaoFjBMGGCMicPy/7wUOHBbaBftaqUzdfbej9urF6DTpu/zu0Td0+OI76J6SgkIIZg8sLNjkv+B8jsbHYWDAgGBAMCAYEA4IBwYBgQDAgGBAMFA0GZs1bpHzm/fWvf8uI7Kl7U3366LNx+fI7iEi911euklG7OqnEx//855kElZwJQ4gS3LrtI4FtYAkt+lG3Xn3CuGrXqUcXXnRxYJmzyp1N3Xo8Sf/xH/+Rlq//a68b+2Lqn562+aefjf4O/3L66bR+04++dSLgR5VqN6b1g+2Tyf7b9Rt92xkxakxgG//4xxlU5YaqCTvWq0/VatSkcmefE1jmggsuJGBQt0PYsZCCQvZlBJgwQMn1ovnxEbuL3QUDggHBgGBAMCAYEAwIBgQDggHBQPHAwO4DR6hj566BBI6JXKpa7UZC4Im8zGPlG6oGtnf66f9D8K/32pA3qULFSoF5X371NWMfFi5dEVgOdfv1feuOvVSn3k2B5RH8xGuX9p27+tbp1xbSn+tjVgk+0qGTb327DxzzVSzq/WrTtj2NfO8DqljpqrT+6vl6vdDH2Na2Xft9y51xxj9p/KRpvqo/LHsO8hUJP5dBdvFeE1JQSMGMAOMFkJwXjx8dmQeZB8GAYEAwIBgQDAgGBAOCAcGAYEAwULwwsGbDZuWX7sryFXxJIJ1EwvHf//EPenP4SELk4CjzCQLy1tvv8K3/vPPOV9FtvZFxl61aQ527dqPf//73aWWrVqtubPull/un5UWfUcfQt98J7fMx61eaNH023VT/ZmM9iNLstQfUhlHsoOfZeziHEB3YWxciJa/5PjXyMZeDvRvdc19aGa4D8/LqoCG0/2jM7Q+W6yLQR5v2HY3lHmzWws3L7WD/4WfjjPnR1mdfTDSW0ctDsTlqzEd03fWV0+qpU7deaHm9LiEFhRTMCDA6eOQ42kNa7CR2EgwIBgQDggHBgGBAMCAYEAwIBgQDZRsDiNYLH4JMMoXt27XvGEqyAVPP9n7Rt07469uwdXvgN3/V6jWM5U2k5N0NGxvzNnmwWWAbJuxPmTGHrrsuldTatf9w2pLff555ZsZ139+kqbGfoz742LcuKPD85gSkblAAFqg7TWXh39E0dpCxpvxPP/eCMb+pDk57Z/SYFP+HdzVomFEdQgoKKZgRYBh4si/bP2gy/zL/ggHBgGBAMCAYEAwIBgQDggHBgGAgMwxAKbdo2Up64uleoUtPQRohSnGQjX/afYBAmpkIpltuuyM0Ii2IsP/9e3p03j//+S/Gdi+/4gpjWxhTUD+DroFQg/+/HXsPqjqq16iZ1saGLTsi1z9+8vS08rBP7br1AknWW++401jupptvoY0/Brc/cdosY1nUaRo75sY7Z5dffgUBH6b8UdIOHLMIdtp76ERGdQgpKKRgRoCJAkbJk9kPg9hL7CUYEAwIBgQDggHBgGBAMCAYEAwIBsoeBj4fPzGNHPKSRdNmz/P9ZkcUXW9+Psey1iCSKSjQhd+yVwQR4fp5f+99D/j2Ly+Y7tDl0bQ2Br4+NHIb1153fVp59HX6nAW+dUybNc9Y5uKLL6HvNm6lwzlxY1moKT/94ks69dRTjeX9/BdedfU1afmxNDsv9spvGSEFhRQsEuDlF7hSvuz9YMqcy5wLBgQDggHBgGBAMCAYEAwIBgQDpQ0DK1avoxuq+ke7bdailfGbfeLUmWnEEhN1+r7ajTWoa7fHCUtTX+zXn7p270FBPg5PO+00WrFmfVqbPx88bmzv/Y8/S8ubnznCcli9/ziGf8BDJ5zAdo7kxKlp85ZpZVH+scef9A3csWPvYeXH0dumfg6b3Fi9JnXq8ij17PUcvfBSP3r8iZ50+RVXGtvjsuMmTjH2+e9//0daOb+8+bFllLJCCgopaARpFPBIHvlBFgwIBgQDggHBgGBAMCAYEAwIBgQDggHBQP4wcCT3F2rStHkaUQRyqdzZ5xi/2Rvf6x8Ug0mpvOxbtHrY2N7KNeuN/fvg07HG/HnFxLfrfjC2M2PuwsB2EOjENN5qN5qDpnD/Bg8dZixnqiuTtKAowCZl4ReTpgaOj/ub7b2QgkIKFgnwsg1kqS9/P0JiP7GfYEAwIBgQDAgGBAOCAcGAYEAwIBgoWgx07/GkkaBa8vXqlO92+BL8z//8T2PeTIgrb96//vVvtHr9xpS2GBNTZs4xtvf5hEnG/Fwu0z0i+mLZrrdvHTp18W1n6crV9I9/nJFWBnVMneW//Bp9q1GzlrGct/1Mzi+66GLac+iYsb8Hj1nG9iZOm2nMn6n9Ms0vpKCQgkUCvEyBKvmL9sdJ7C/2FwwIBgQDggHBgGBAMCAYEAwIBso6BnbuO0Lwb/dcn740f/HyrH9LI0iEiXwa8tbwlLawhNWU77PxE8kvQrApv5524YUX0b7DOSnt6PP97vsfGtvEMmY9XzaOTW0hoMoJ57e0tjZt223sF8b25vCRafn1/u3xWRLdt/9Aqlv/Zt96dbuZjtdu2OzbLqJBm8qAdNX7VljHQgoKKVgkwCssgEs78uIiGBAMCAYEA4IBwYBgQDAgGBAMCAYEA/nFAIJKeH3x1axVh2aGLGvNpN31m34yEkavv/m2+92+93AO/fGP/5WWr+5N9VWe/Udj9M57H1CduvXS8pjIKEQafqBJU1q36Ue3DVOf+7/2urG+qTPnBpYz1RWWdvC4TeiXt7/1b70txbcg/AgiqrA3H86xHDusHUR39pbFHO85dEIRkPBvWKfeTfT73/8+LZ+33Gl/+ANh6fX2nxNRlP3aXrLiW2Nd0+fMD+2vX535SRdSUEjBIgFefkArZeUHXTAgGBAMCAYEA4IBwYBgQDAgGBAMCAYKEwNQCXqJID4fNzE7/uAaNGpsbGPMJ5+73+1ff/udMc8HWh62CyIQX+0TjRdLhXu/+DJBncj5g/Yv9OlrbDfby4e5Dy0fam1s76lnnlP9hR9G+O3jOfDud+w5FDquM874Z1p5BH7hPvB+3lfLyC+q8f/89a8E2wRFeuZ6sJ+9YHFam+h7QSgu9Xb9joUUFFIwDfB+YJF0+dEVDAgGBAOCAcGAYEAwIBgQDAgGBAOCgbKIgfWbfjSSOSB0fve739GN1WvQKwMH04IlXxOWpYbZCEthN/20ixBAo89L/Xx925WvUJGOxv7l1ucXdXjDlh1uHr1tKBx/3LWXFn/9jfKv9/W36wmRhJGu5ws7frzn08bx6yrGsDoyub5w6Qpje7D3JZdcSueee57xOnwLfm0g9rxtHzweSytf7uyzA22ybdd+ZccZcxaoNn4+eDQwv7dNnH85ZUZauxhTtgO2mNo2pQkpKKRgxiA2AUnSMnugir3EXoIBwYBgQDAgGBAMCAYEA4IBwYBgoORgAMt2Qd5E3S6/4kq65bbbqUHDxnTvfQ/QvQ88SFjiW6FiJfrnmWdFruftkaNTvtmHv/uesezKtd+n5Ms2tjp27mps9/4mTQus3WYtWhnbDJqDQW+8Fak/Jt9+WLKcbbt56/t47HjjmF7s17/A2/b2BedR/06JmtEvn6lxSSs5D0CZK5krwYBgQDAgGBAMCAYEA4IBwYBgQDAgGCjLGKhVu66R0AkiqfJzrXrNWoRlsrrNTUE40MbgocNS8ullsnHcpl1749hPP/1/UpSM2WiL69h94AideVZ0ArVp85YpPge5HtN+80+7jOP59IsvC9SO73/8mbHdVg+3KdB2TTZAWtQ/IQVFUVgkAPUDrqTLy4hgQDAgGBAMCAYEA4IBwYBgQDAgGBAMFCYGvvlug5HQyQ/x51cW/u627tyT9h0+ddZcYx+qVq+Rljebtnm4TTtju+j/qu82FFjbIDv9bKSn33TzLRn1AWSrXl4/RqCTbNpOr2v0h58Y273m2usKrE29fe+xkIJC9hUJ8LxAlHP5MRcMCAYEA4IBwYBgQDAgGBAMCAYEA4KB4o6BdRu3qSiziDarE0nZOj711FOpy6OP0cFjlvFbfc33W3zbffnV11TU3IKwYeu2j/i2O3fRUmNfs9EPEHSIJBxkX0QI/mHrzoz7gCXepnp7930l47qijvW9jz41tnnBBRcWWJtBfRNSUEjBIgFeECjlmrwICAYEA4IBwYBgQDAgGBAMCAYEA4IBwUBxxgCizT7b+0UjwWMimqKkgdzavT88eEX9m2/1bXfClOkF8o2/ZMW3vm2aFI3Znrv7H3jQ2D6iFOe1LQSFMc0LiNm1Gzbnud6g/hw4ZhHq97Zbt/7NBdJeUF9wLeqfLB8W8rBIABoGYLkuLwqCAcGAYEAwIBgQDAgGBAOCAcGAYEAwUFQYOHA0RpOnz6bn+rxECIwBcqdipavooosvpnJnn6N84p19zjnu8fnnX0Dly1egyjdUJZB78NU3YPAbtGL1OgLRGGUcm7fvpr/85S9pxBKIJiw7/mTsBDpu/ztSXX7tHTrhECIuL125mpZ/s1ZFK65Tt15am10fezxf7fi1703fue8IIdhJtRur09XXXEu169ajoW+/E9mHoLc+Pq9dJ31MsCOUoO99+Gm+x3Y4J06btu1W87to2Urac+gEmZZiF1QUZx6n315IQSH78g1yP3BJuvwwCwYEA4IBwYBgQDAgGBAMCAYEA4IBwYBgIPsY6NbjyTSCTlef5ZWsmz5ngSI29bpwPOqDj2nV2u9T2jz3vPNKPJ8wecb/1979vVZdx3EcDwa7aqFCQkJbWjdl5Yw0qOl/0A/BTPoXIiJKXZtrLZfpKuiqwsrotpt+YdiU9cMiuukXVobJ+uFkuZw4C6ygd3wHR86xHCfcOd+P5/O4alE737Pn5zGnr+/Z3F/zMZ37cT+4aUvdY23F+ek/It4d+/A/Oy5duizGjx6PyxcvPnvdSzs64sTMmVJaGgWNgqXAq3yy+Of8f3HQVFMGGGCAAQYYYIABBhhgoLUNjE9MxYrulWeHpXPHrOLfl19/w+y3OI8d+CQmp2dq/uxfDFfFq+9G3zsQ254cifV33xNdXVed9/Eq36Z7+IdjMTA0PPtqtz2jYzWPeTGamznzd/QPDp334650fGx4exQdi5/1WLSr/lh/mvw19n/wcTyx8+lYv2FjdHZ1zfl4E1MnY/LE6dj5zLNx3/0PxJfffF/zeNWP3ei3jYJGwdLwNRq3x6/9hUoPPRhggAEGGGCAAQYYYICB1jFQfLvxtdctn3OAqh4Li1ekLbv6muheeVMsWLCw7vcrHqMyCraqn+Jbv6tbzfV2R8dlUbzi78YV3TWv+Jvrfar/WzEKptLRKGgUTAZjKp8UnkfrfJF0ls6SAQYYYIABBhhggAEGWtnAp599Fbf2rKl70Koep+p9e+GiRfHa62+19HZwbOpU3NaztqEdi94bNt4b07/9mUxLo6BRMBmMrfwLtY/Nb0QYYIABBhhggAEGGGCAAQYaZWBzb3/DBq239+7LYjcoXnnZu/XRhnXc3Lc1uY5GQaNgcigb9Yukx/UFmAEGGGCAAQYYYIABBhhgoBUNFINW8TPt2tvb523U6lmzNj4/eCi7zWB4x8i8NSxeHXhlZ2fs2v1qFD+/MDV7RkGjYHIoU/sk8Xz8poEBBhhggAEGGGCAAQYYYOBiMPDF14fjoU29cfOq1f9r2LpiyZK4/a510T/4eLz5zmh8e+THJEesZp3Bwe/G45GBwVi1+pZoa2uru2XR8Y4710XxqsA39uyNQ0d+jpO//5Xs7mIUNAomi7NZn+yu44s7AwwwwAADDDDAAAMMMMBAqxmYmDo1+zfmPrfr5Rjatn12qHq4ty+29A/E8I6n4vkXd8e+9z+K8Ylf/vU36rZaiwv5eI4en57t+MJLr0TxKsJi8Cs69vYVHUdmXwVY6Xgh1ynjfY2CRkGjIAMMMMAAAwwwwAADDDDAAAMMMMBAZgaMgpkdeBnLs2u648YAAwwwwAADDDDAAAMMMMAAAwykZcAoaBR0J4ABBhhggAEGGGCAAQYYYIABBhhgIDMDRsHMDtwqn9Yq7zycBwMMMMAAAwwwwAADDDDAAAMMlGHAKGgUdCeAAQYYYIABBhhggAEGGGCAAQYYYCAzA0bBzA68jOXZNd3xYIABBhhggAEGGGCAAQYYYIABBtIyYBQ0CroTwAADDDDAAAMMMMAAAwwwwAADDDCQmQGjYGYHaRnDMgAAA1ZJREFUbpVPa5V3Hs6DAQYYYIABBhhggAEGGGCAAQbKMGAUNAq6E8AAAwwwwAADDDDAAAMMMMAAAwwwkJkBo2BmB17G8uya7ngwwAADDDDAAAMMMMAAAwwwwAADaRkwChoF3QlggAEGGGCAAQYYYIABBhhggAEGGMjMgFEwswO3yqe1yjsP58EAAwwwwAADDDDAAAMMMMAAA2UYMAoaBd0JYIABBhhggAEGGGCAAQYYYIABBhjIzIBRMLMDL2N5dk13PBhggAEGGGCAAQYYYIABBhhggIG0DBgFjYLuBDDAAAMMMMAAAwwwwAADDDDAAAMMZGbAKJjZgVvl01rlnYfzYIABBhhggAEGGGCAAQYYYICBMgwYBY2C7gQwwAADDDDAAAMMMMAAAwwwwAADDGRmwCiY2YGXsTy7pjseDDDAAAMMMMAAAwwwwAADDDDAQFoGjIJGQXcCGGCAAQYYYIABBhhggAEGGGCAAQYyM2AUzOzArfJprfLOw3kwwAADDDDAAAMMMMAAAwwwwEAZBoyCRkF3AhhggAEGGGCAAQYYYIABBhhggAEGMjNgFMzswMtYnl3THQ8GGGCAAQYYYIABBhhggAEGGGAgLQNGQaOgOwEMMMAAAwwwwAADDDDAAAMMMMAAA5kZMApmduBW+bRWeefhPBhggAEGGGCAAQYYYIABBhhgoAwDRkGjoDsBDDDAAAMMMMAAAwwwwAADDDDAAAOZGTAKZnbgZSzPrumOBwMMMMAAAwwwwAADDDDAAAMMMJCWgaaNgvVeyP+ngAIKKKCAAgoooIACCiiggAIKKKCAAmkUuCSNp+FZKKCAAgoooIACCiiggAIKKKCAAgoooECzChgFm1XadRRQQAEFFFBAAQUUUEABBRRQQAEFFEikgFEwkYPwNBRQQAEFFFBAAQUUUEABBRRQQAEFFGhWAaNgs0q7jgIKKKCAAgoooIACCiiggAIKKKCAAokUMAomchCehgIKKKCAAgoooIACCiiggAIKKKCAAs0qYBRsVmnXUUABBRRQQAEFFFBAAQUUUEABBRRQIJECRsFEDsLTUEABBRRQQAEFFFBAAQUUUEABBRRQoFkFjILNKu06CiiggAIKKKCAAgoooIACCiiggAIKJFLgH1tkYuHHKH6GAAAAAElFTkSuQmCC;" vertex="1" parent="1">
          <mxGeometry x="-3300" y="-1110" width="1075" height="466.81" as="geometry" />
        </mxCell>
        <mxCell id="zWZj8fFm0EnB-VlaON-8-4" value="&lt;font style=&quot;font-size: 15px;&quot;&gt;1. 解析：提取&lt;b&gt;&lt;font color=&quot;#0066cc&quot;&gt;域名&lt;/font&gt;&lt;/b&gt; + 端口 + 协议...&amp;nbsp;&lt;/font&gt;" style="text;html=1;align=center;verticalAlign=middle;resizable=0;points=[];autosize=1;strokeColor=none;fillColor=none;" vertex="1" parent="1">
          <mxGeometry x="-3050" y="-985" width="260" height="30" as="geometry" />
        </mxCell>
        <mxCell id="zWZj8fFm0EnB-VlaON-8-5" value="&lt;font style=&quot;font-size: 15px;&quot;&gt;本地&lt;font color=&quot;#0066cc&quot;&gt;&lt;b&gt;DNS缓存&lt;/b&gt;&lt;/font&gt;找是否有该域名的解析结果，无则发起&lt;b&gt;&lt;font color=&quot;#0066cc&quot;&gt;DNS递归查询请求（客户端发起请求，等待结果就行）&lt;/font&gt;&lt;/b&gt;&lt;/font&gt;" style="text;html=1;align=center;verticalAlign=middle;resizable=0;points=[];autosize=1;strokeColor=none;fillColor=none;" vertex="1" parent="1">
          <mxGeometry x="-2990" y="-955" width="730" height="30" as="geometry" />
        </mxCell>
        <mxCell id="zWZj8fFm0EnB-VlaON-8-6" value="&lt;font style=&quot;font-size: 15px;&quot;&gt;响应&lt;b&gt;&lt;font style=&quot;font-size: 15px;&quot; color=&quot;#0066cc&quot;&gt;报文+状态码&lt;/font&gt;&lt;/b&gt;&lt;/font&gt;" style="text;html=1;align=center;verticalAlign=middle;resizable=0;points=[];autosize=1;strokeColor=none;fillColor=none;" vertex="1" parent="1">
          <mxGeometry x="-2460" y="-810" width="140" height="30" as="geometry" />
        </mxCell>
        <mxCell id="zWZj8fFm0EnB-VlaON-8-7" value="" style="rounded=0;whiteSpace=wrap;html=1;fillColor=none;dashed=1;strokeWidth=2;" vertex="1" parent="1">
          <mxGeometry x="-3280" y="-1120" width="430" height="520" as="geometry" />
        </mxCell>
        <mxCell id="zWZj8fFm0EnB-VlaON-8-8" value="&lt;b&gt;应用层&lt;/b&gt;" style="text;html=1;align=center;verticalAlign=middle;resizable=0;points=[];autosize=1;strokeColor=none;fillColor=none;" vertex="1" parent="1">
          <mxGeometry x="-2925" y="-630" width="60" height="30" as="geometry" />
        </mxCell>
        <mxCell id="zWZj8fFm0EnB-VlaON-8-9" value="" style="rounded=0;whiteSpace=wrap;html=1;fillColor=none;dashed=1;strokeWidth=2;" vertex="1" parent="1">
          <mxGeometry x="-2830" y="-1120" width="430" height="520" as="geometry" />
        </mxCell>
        <mxCell id="zWZj8fFm0EnB-VlaON-8-10" value="&lt;b&gt;传输层&lt;/b&gt;" style="text;html=1;align=center;verticalAlign=middle;resizable=0;points=[];autosize=1;strokeColor=none;fillColor=none;" vertex="1" parent="1">
          <mxGeometry x="-2475" y="-630" width="60" height="30" as="geometry" />
        </mxCell>
        <mxCell id="zWZj8fFm0EnB-VlaON-8-11" value="&lt;font style=&quot;font-size: 15px;&quot;&gt;2. DNS解析：本地DNS(运营商) -&amp;gt; 根DNS -&amp;gt; 顶级DNS(.com,.cn) -&amp;gt; 权威DNS(.baidu,.google获得IP)&lt;/font&gt;" style="text;html=1;align=center;verticalAlign=middle;resizable=0;points=[];autosize=1;strokeColor=none;fillColor=none;" vertex="1" parent="1">
          <mxGeometry x="-3180" y="-1090" width="680" height="30" as="geometry" />
        </mxCell>
        <mxCell id="zWZj8fFm0EnB-VlaON-8-14" value="" style="edgeStyle=orthogonalEdgeStyle;rounded=0;orthogonalLoop=1;jettySize=auto;html=1;fontSize=13;" edge="1" parent="1" source="zWZj8fFm0EnB-VlaON-8-12" target="zWZj8fFm0EnB-VlaON-8-13">
          <mxGeometry relative="1" as="geometry" />
        </mxCell>
        <mxCell id="zWZj8fFm0EnB-VlaON-8-12" value="&lt;font style=&quot;font-size: 13px;&quot;&gt;客户端&lt;/font&gt;&lt;div&gt;&lt;font style=&quot;font-size: 13px;&quot;&gt;(浏览器)&lt;/font&gt;&lt;/div&gt;" style="ellipse;whiteSpace=wrap;html=1;fontSize=13;" vertex="1" parent="1">
          <mxGeometry x="-3150" y="-500" width="120" height="60" as="geometry" />
        </mxCell>
        <mxCell id="zWZj8fFm0EnB-VlaON-8-16" value="" style="edgeStyle=orthogonalEdgeStyle;rounded=0;orthogonalLoop=1;jettySize=auto;html=1;fontSize=13;" edge="1" parent="1" source="zWZj8fFm0EnB-VlaON-8-13" target="zWZj8fFm0EnB-VlaON-8-15">
          <mxGeometry relative="1" as="geometry" />
        </mxCell>
        <mxCell id="zWZj8fFm0EnB-VlaON-8-17" value="是" style="edgeLabel;html=1;align=center;verticalAlign=middle;resizable=0;points=[];fontSize=13;" vertex="1" connectable="0" parent="zWZj8fFm0EnB-VlaON-8-16">
          <mxGeometry x="-0.3059" relative="1" as="geometry">
            <mxPoint x="-1" as="offset" />
          </mxGeometry>
        </mxCell>
        <mxCell id="zWZj8fFm0EnB-VlaON-8-19" value="" style="edgeStyle=orthogonalEdgeStyle;rounded=0;orthogonalLoop=1;jettySize=auto;html=1;fontSize=13;" edge="1" parent="1" source="zWZj8fFm0EnB-VlaON-8-13" target="zWZj8fFm0EnB-VlaON-8-18">
          <mxGeometry relative="1" as="geometry" />
        </mxCell>
        <mxCell id="zWZj8fFm0EnB-VlaON-8-13" value="查找host文件是否存在该域名的解析结果" style="rhombus;whiteSpace=wrap;html=1;fontSize=13;" vertex="1" parent="1">
          <mxGeometry x="-3225" y="-410" width="270" height="70" as="geometry" />
        </mxCell>
        <mxCell id="zWZj8fFm0EnB-VlaON-8-15" value="向服务端发起TCP请求" style="whiteSpace=wrap;html=1;fontSize=13;" vertex="1" parent="1">
          <mxGeometry x="-2880" y="-390" width="140" height="30" as="geometry" />
        </mxCell>
        <mxCell id="zWZj8fFm0EnB-VlaON-8-23" value="" style="edgeStyle=orthogonalEdgeStyle;rounded=0;orthogonalLoop=1;jettySize=auto;html=1;fontSize=13;" edge="1" parent="1" source="zWZj8fFm0EnB-VlaON-8-18">
          <mxGeometry relative="1" as="geometry">
            <mxPoint x="-3090" y="-210" as="targetPoint" />
          </mxGeometry>
        </mxCell>
        <mxCell id="zWZj8fFm0EnB-VlaON-8-25" value="查询缓存无" style="edgeLabel;html=1;align=center;verticalAlign=middle;resizable=0;points=[];fontSize=13;" vertex="1" connectable="0" parent="zWZj8fFm0EnB-VlaON-8-23">
          <mxGeometry x="-0.1261" y="-4" relative="1" as="geometry">
            <mxPoint as="offset" />
          </mxGeometry>
        </mxCell>
        <mxCell id="zWZj8fFm0EnB-VlaON-8-18" value="本地DNS(运营商)" style="whiteSpace=wrap;html=1;fontSize=13;" vertex="1" parent="1">
          <mxGeometry x="-3150" y="-300" width="120" height="40" as="geometry" />
        </mxCell>
        <mxCell id="zWZj8fFm0EnB-VlaON-8-20" style="edgeStyle=orthogonalEdgeStyle;rounded=0;orthogonalLoop=1;jettySize=auto;html=1;exitX=1;exitY=0.5;exitDx=0;exitDy=0;entryX=0.927;entryY=0.618;entryDx=0;entryDy=0;entryPerimeter=0;fontSize=13;" edge="1" parent="1" source="zWZj8fFm0EnB-VlaON-8-18" target="zWZj8fFm0EnB-VlaON-8-13">
          <mxGeometry relative="1" as="geometry">
            <Array as="points">
              <mxPoint x="-2975" y="-280" />
            </Array>
          </mxGeometry>
        </mxCell>
        <mxCell id="zWZj8fFm0EnB-VlaON-8-21" value="查询缓存有" style="edgeLabel;html=1;align=center;verticalAlign=middle;resizable=0;points=[];fontSize=13;" vertex="1" connectable="0" parent="zWZj8fFm0EnB-VlaON-8-20">
          <mxGeometry x="0.0534" y="1" relative="1" as="geometry">
            <mxPoint as="offset" />
          </mxGeometry>
        </mxCell>
        <mxCell id="zWZj8fFm0EnB-VlaON-8-26" value="" style="rounded=0;whiteSpace=wrap;html=1;fontSize=13;" vertex="1" parent="1">
          <mxGeometry x="-3290" y="-210" width="380" height="80" as="geometry" />
        </mxCell>
        <mxCell id="zWZj8fFm0EnB-VlaON-8-27" value="1. 根DNS" style="rounded=0;whiteSpace=wrap;html=1;fontSize=13;" vertex="1" parent="1">
          <mxGeometry x="-3280" y="-200" width="80" height="60" as="geometry" />
        </mxCell>
        <mxCell id="zWZj8fFm0EnB-VlaON-8-28" style="edgeStyle=orthogonalEdgeStyle;rounded=0;orthogonalLoop=1;jettySize=auto;html=1;exitX=0.5;exitY=0;exitDx=0;exitDy=0;entryX=0.115;entryY=1.082;entryDx=0;entryDy=0;entryPerimeter=0;fontSize=13;" edge="1" parent="1" source="zWZj8fFm0EnB-VlaON-8-27" target="zWZj8fFm0EnB-VlaON-8-18">
          <mxGeometry relative="1" as="geometry" />
        </mxCell>
        <mxCell id="zWZj8fFm0EnB-VlaON-8-29" value="顶级DNS的IP" style="edgeLabel;html=1;align=center;verticalAlign=middle;resizable=0;points=[];fontSize=13;" vertex="1" connectable="0" parent="zWZj8fFm0EnB-VlaON-8-28">
          <mxGeometry x="-0.1658" y="-2" relative="1" as="geometry">
            <mxPoint as="offset" />
          </mxGeometry>
        </mxCell>
        <mxCell id="zWZj8fFm0EnB-VlaON-8-30" value="2. 顶级DNS" style="rounded=0;whiteSpace=wrap;html=1;fontSize=13;" vertex="1" parent="1">
          <mxGeometry x="-3190" y="-200" width="80" height="60" as="geometry" />
        </mxCell>
        <mxCell id="zWZj8fFm0EnB-VlaON-8-31" style="edgeStyle=orthogonalEdgeStyle;rounded=0;orthogonalLoop=1;jettySize=auto;html=1;exitX=0.75;exitY=0;exitDx=0;exitDy=0;entryX=0.17;entryY=1.035;entryDx=0;entryDy=0;entryPerimeter=0;fontSize=13;" edge="1" parent="1" source="zWZj8fFm0EnB-VlaON-8-30" target="zWZj8fFm0EnB-VlaON-8-18">
          <mxGeometry relative="1" as="geometry" />
        </mxCell>
        <mxCell id="zWZj8fFm0EnB-VlaON-8-32" value="Text" style="edgeLabel;html=1;align=center;verticalAlign=middle;resizable=0;points=[];fontSize=13;" vertex="1" connectable="0" parent="zWZj8fFm0EnB-VlaON-8-31">
          <mxGeometry x="-0.2736" relative="1" as="geometry">
            <mxPoint y="11" as="offset" />
          </mxGeometry>
        </mxCell>
        <mxCell id="zWZj8fFm0EnB-VlaON-8-33" value="权威DNS" style="edgeLabel;html=1;align=center;verticalAlign=middle;resizable=0;points=[];fontSize=13;" vertex="1" connectable="0" parent="zWZj8fFm0EnB-VlaON-8-31">
          <mxGeometry x="-0.593" y="1" relative="1" as="geometry">
            <mxPoint y="-1" as="offset" />
          </mxGeometry>
        </mxCell>
        <mxCell id="zWZj8fFm0EnB-VlaON-8-34" value="3. 权威DNS" style="rounded=0;whiteSpace=wrap;html=1;fontSize=13;" vertex="1" parent="1">
          <mxGeometry x="-3030" y="-200" width="80" height="60" as="geometry" />
        </mxCell>
        <mxCell id="zWZj8fFm0EnB-VlaON-8-35" style="edgeStyle=orthogonalEdgeStyle;rounded=0;orthogonalLoop=1;jettySize=auto;html=1;exitX=0.75;exitY=0;exitDx=0;exitDy=0;entryX=0.913;entryY=1;entryDx=0;entryDy=0;entryPerimeter=0;fontSize=13;" edge="1" parent="1" source="zWZj8fFm0EnB-VlaON-8-34" target="zWZj8fFm0EnB-VlaON-8-18">
          <mxGeometry relative="1" as="geometry" />
        </mxCell>
        <mxCell id="zWZj8fFm0EnB-VlaON-8-36" value="返回域名对应的IP" style="edgeLabel;html=1;align=center;verticalAlign=middle;resizable=0;points=[];fontSize=13;" vertex="1" connectable="0" parent="zWZj8fFm0EnB-VlaON-8-35">
          <mxGeometry x="-0.1362" relative="1" as="geometry">
            <mxPoint as="offset" />
          </mxGeometry>
        </mxCell>
        <mxCell id="zWZj8fFm0EnB-VlaON-8-37" value="" style="endArrow=classic;html=1;rounded=0;exitX=0.923;exitY=1.082;exitDx=0;exitDy=0;exitPerimeter=0;entryX=0.688;entryY=0.845;entryDx=0;entryDy=0;entryPerimeter=0;fontSize=13;" edge="1" parent="1" source="zWZj8fFm0EnB-VlaON-8-18" target="zWZj8fFm0EnB-VlaON-8-13">
          <mxGeometry width="50" height="50" relative="1" as="geometry">
            <mxPoint x="-2970" y="-280" as="sourcePoint" />
            <mxPoint x="-2920" y="-330" as="targetPoint" />
          </mxGeometry>
        </mxCell>
        <mxCell id="zWZj8fFm0EnB-VlaON-8-38" value="返回域名的IP" style="edgeLabel;html=1;align=center;verticalAlign=middle;resizable=0;points=[];fontSize=13;" vertex="1" connectable="0" parent="zWZj8fFm0EnB-VlaON-8-37">
          <mxGeometry x="0.3745" relative="1" as="geometry">
            <mxPoint as="offset" />
          </mxGeometry>
        </mxCell>
        <mxCell id="zWZj8fFm0EnB-VlaON-8-40" value="服务器" style="whiteSpace=wrap;html=1;shape=cylinder3;boundedLbl=1;backgroundOutline=1;size=15;" vertex="1" parent="1">
          <mxGeometry x="-1910" y="-470" width="90" height="70" as="geometry" />
        </mxCell>
        <mxCell id="zWZj8fFm0EnB-VlaON-8-42" style="edgeStyle=orthogonalEdgeStyle;rounded=0;orthogonalLoop=1;jettySize=auto;html=1;exitX=0.5;exitY=0;exitDx=0;exitDy=0;exitPerimeter=0;entryX=0.5;entryY=0;entryDx=0;entryDy=0;curved=1;dashed=1;" edge="1" parent="1" source="zWZj8fFm0EnB-VlaON-8-41" target="zWZj8fFm0EnB-VlaON-8-40">
          <mxGeometry relative="1" as="geometry">
            <Array as="points">
              <mxPoint x="-2435" y="-520" />
              <mxPoint x="-1865" y="-520" />
            </Array>
          </mxGeometry>
        </mxCell>
        <mxCell id="zWZj8fFm0EnB-VlaON-8-43" value="发起连接请求&amp;amp;SSL握手" style="edgeLabel;html=1;align=center;verticalAlign=middle;resizable=0;points=[];" vertex="1" connectable="0" parent="zWZj8fFm0EnB-VlaON-8-42">
          <mxGeometry x="-0.013" y="5" relative="1" as="geometry">
            <mxPoint as="offset" />
          </mxGeometry>
        </mxCell>
        <mxCell id="zWZj8fFm0EnB-VlaON-8-41" value="客户端" style="shape=umlActor;verticalLabelPosition=bottom;verticalAlign=top;html=1;outlineConnect=0;" vertex="1" parent="1">
          <mxGeometry x="-2450" y="-463" width="30" height="60" as="geometry" />
        </mxCell>
        <mxCell id="zWZj8fFm0EnB-VlaON-8-44" value="保管唯一的服务端私钥" style="text;html=1;align=center;verticalAlign=middle;resizable=0;points=[];autosize=1;strokeColor=none;fillColor=none;" vertex="1" parent="1">
          <mxGeometry x="-1850" y="-500" width="140" height="30" as="geometry" />
        </mxCell>
        <mxCell id="zWZj8fFm0EnB-VlaON-8-46" value="中间人攻击" style="ellipse;shape=cloud;whiteSpace=wrap;html=1;" vertex="1" parent="1">
          <mxGeometry x="-2210" y="-460" width="120" height="50" as="geometry" />
        </mxCell>
        <mxCell id="zWZj8fFm0EnB-VlaON-8-47" style="edgeStyle=orthogonalEdgeStyle;rounded=0;orthogonalLoop=1;jettySize=auto;html=1;exitX=0;exitY=0.5;exitDx=0;exitDy=0;exitPerimeter=0;entryX=0.875;entryY=0.5;entryDx=0;entryDy=0;entryPerimeter=0;" edge="1" parent="1" source="zWZj8fFm0EnB-VlaON-8-40" target="zWZj8fFm0EnB-VlaON-8-46">
          <mxGeometry relative="1" as="geometry" />
        </mxCell>
        <mxCell id="zWZj8fFm0EnB-VlaON-8-48" value="&lt;font color=&quot;#ff0000&quot;&gt;发送数字证书&lt;/font&gt;&lt;div&gt;&lt;font color=&quot;#ff0000&quot;&gt;（包含公钥、数字签名、签名算法）&lt;/font&gt;&lt;/div&gt;" style="edgeLabel;html=1;align=center;verticalAlign=middle;resizable=0;points=[];" vertex="1" connectable="0" parent="zWZj8fFm0EnB-VlaON-8-47">
          <mxGeometry x="0.1934" relative="1" as="geometry">
            <mxPoint x="26" y="25" as="offset" />
          </mxGeometry>
        </mxCell>
        <mxCell id="zWZj8fFm0EnB-VlaON-8-49" style="edgeStyle=orthogonalEdgeStyle;rounded=0;orthogonalLoop=1;jettySize=auto;html=1;exitX=0.16;exitY=0.55;exitDx=0;exitDy=0;exitPerimeter=0;entryX=0.5;entryY=0.5;entryDx=0;entryDy=0;entryPerimeter=0;" edge="1" parent="1" source="zWZj8fFm0EnB-VlaON-8-46" target="zWZj8fFm0EnB-VlaON-8-41">
          <mxGeometry relative="1" as="geometry" />
        </mxCell>
        <mxCell id="zWZj8fFm0EnB-VlaON-8-51" value="&lt;font color=&quot;#0066cc&quot;&gt;发送中间人伪造的数字证书&lt;/font&gt;&lt;div&gt;&lt;font color=&quot;#0066cc&quot;&gt;企图伪装成服务端&lt;/font&gt;&lt;/div&gt;" style="edgeLabel;html=1;align=center;verticalAlign=middle;resizable=0;points=[];" vertex="1" connectable="0" parent="zWZj8fFm0EnB-VlaON-8-49">
          <mxGeometry x="0.0148" y="1" relative="1" as="geometry">
            <mxPoint y="1" as="offset" />
          </mxGeometry>
        </mxCell>
        <mxCell id="zWZj8fFm0EnB-VlaON-8-52" value="&lt;font color=&quot;#ff0000&quot;&gt;客户端通过官方CA的公钥验证数字证书&lt;/font&gt;&lt;div&gt;&lt;font color=&quot;#ff0000&quot;&gt;官方的公钥一般内嵌在浏览器中，所以是安全的&lt;/font&gt;&lt;/div&gt;&lt;div&gt;(1)验证成功：证明不是伪造的，将自己的对称密钥&lt;/div&gt;&lt;div&gt;通&lt;span style=&quot;background-color: initial;&quot;&gt;过服务端公钥加密后发送出去&lt;/span&gt;&lt;/div&gt;&lt;div&gt;（2）验证失败：结束会话&lt;/div&gt;" style="text;html=1;align=left;verticalAlign=middle;resizable=0;points=[];autosize=1;strokeColor=none;fillColor=none;" vertex="1" parent="1">
          <mxGeometry x="-2700" y="-520" width="290" height="90" as="geometry" />
        </mxCell>
        <mxCell id="zWZj8fFm0EnB-VlaON-8-54" value="中间人不具有真实&lt;div&gt;服务端的私钥，无法解密获得密钥&lt;/div&gt;" style="text;html=1;align=center;verticalAlign=middle;resizable=0;points=[];autosize=1;strokeColor=none;fillColor=none;" vertex="1" parent="1">
          <mxGeometry x="-2260" y="-367" width="200" height="40" as="geometry" />
        </mxCell>
        <mxCell id="zWZj8fFm0EnB-VlaON-8-55" style="edgeStyle=orthogonalEdgeStyle;rounded=0;orthogonalLoop=1;jettySize=auto;html=1;exitX=1;exitY=1;exitDx=0;exitDy=0;exitPerimeter=0;entryX=0.004;entryY=0.757;entryDx=0;entryDy=0;entryPerimeter=0;curved=1;" edge="1" parent="1" source="zWZj8fFm0EnB-VlaON-8-41" target="zWZj8fFm0EnB-VlaON-8-54">
          <mxGeometry relative="1" as="geometry" />
        </mxCell>
        <mxCell id="zWZj8fFm0EnB-VlaON-8-56" value="验证成功后使用正确的公钥&lt;div&gt;加密随机生成的对称密钥&lt;/div&gt;" style="edgeLabel;html=1;align=center;verticalAlign=middle;resizable=0;points=[];" vertex="1" connectable="0" parent="zWZj8fFm0EnB-VlaON-8-55">
          <mxGeometry x="0.0795" y="5" relative="1" as="geometry">
            <mxPoint as="offset" />
          </mxGeometry>
        </mxCell>
        <mxCell id="zWZj8fFm0EnB-VlaON-8-58" value="" style="curved=1;endArrow=classic;html=1;rounded=0;exitX=1.011;exitY=0.687;exitDx=0;exitDy=0;exitPerimeter=0;entryX=0.5;entryY=1;entryDx=0;entryDy=0;entryPerimeter=0;edgeStyle=orthogonalEdgeStyle;" edge="1" parent="1" source="zWZj8fFm0EnB-VlaON-8-54" target="zWZj8fFm0EnB-VlaON-8-40">
          <mxGeometry width="50" height="50" relative="1" as="geometry">
            <mxPoint x="-1970" y="-260" as="sourcePoint" />
            <mxPoint x="-1920" y="-310" as="targetPoint" />
          </mxGeometry>
        </mxCell>
        <mxCell id="zWZj8fFm0EnB-VlaON-8-59" value="服务端获得对称密钥" style="edgeLabel;html=1;align=center;verticalAlign=middle;resizable=0;points=[];" vertex="1" connectable="0" parent="zWZj8fFm0EnB-VlaON-8-58">
          <mxGeometry x="-0.1619" y="4" relative="1" as="geometry">
            <mxPoint as="offset" />
          </mxGeometry>
        </mxCell>
        <mxCell id="zWZj8fFm0EnB-VlaON-8-61" style="edgeStyle=orthogonalEdgeStyle;rounded=0;orthogonalLoop=1;jettySize=auto;html=1;exitX=0.855;exitY=1;exitDx=0;exitDy=-4.35;exitPerimeter=0;entryX=0;entryY=1;entryDx=0;entryDy=0;entryPerimeter=0;curved=1;" edge="1" parent="1" source="zWZj8fFm0EnB-VlaON-8-40" target="zWZj8fFm0EnB-VlaON-8-41">
          <mxGeometry relative="1" as="geometry">
            <Array as="points">
              <mxPoint x="-1833" y="-290" />
              <mxPoint x="-2450" y="-290" />
            </Array>
          </mxGeometry>
        </mxCell>
        <mxCell id="zWZj8fFm0EnB-VlaON-8-62" value="通过安全的对称密钥进行通信数据的加密解密" style="edgeLabel;html=1;align=center;verticalAlign=middle;resizable=0;points=[];" vertex="1" connectable="0" parent="zWZj8fFm0EnB-VlaON-8-61">
          <mxGeometry x="0.0257" relative="1" as="geometry">
            <mxPoint as="offset" />
          </mxGeometry>
        </mxCell>
        <mxCell id="zWZj8fFm0EnB-VlaON-8-65" value="&lt;b&gt;&lt;font style=&quot;font-size: 15px;&quot;&gt;1&lt;/font&gt;&lt;/b&gt;" style="text;html=1;align=center;verticalAlign=middle;whiteSpace=wrap;rounded=0;fillColor=#b1ddf0;strokeColor=#10739e;" vertex="1" parent="1">
          <mxGeometry x="-2030" y="-540" width="30" height="20" as="geometry" />
        </mxCell>
        <mxCell id="zWZj8fFm0EnB-VlaON-8-67" value="&lt;b&gt;&lt;font style=&quot;font-size: 15px;&quot;&gt;2&lt;/font&gt;&lt;/b&gt;" style="text;html=1;align=center;verticalAlign=middle;whiteSpace=wrap;rounded=0;fillColor=#b1ddf0;strokeColor=#10739e;" vertex="1" parent="1">
          <mxGeometry x="-2050" y="-460" width="30" height="20" as="geometry" />
        </mxCell>
        <mxCell id="zWZj8fFm0EnB-VlaON-8-69" value="&lt;b&gt;&lt;font style=&quot;font-size: 15px;&quot;&gt;3&lt;/font&gt;&lt;/b&gt;" style="text;html=1;align=center;verticalAlign=middle;whiteSpace=wrap;rounded=0;fillColor=#b1ddf0;strokeColor=#10739e;" vertex="1" parent="1">
          <mxGeometry x="-2070" y="-370" width="30" height="20" as="geometry" />
        </mxCell>
        <mxCell id="zWZj8fFm0EnB-VlaON-8-70" value="&lt;b&gt;&lt;font style=&quot;font-size: 15px;&quot;&gt;4&lt;/font&gt;&lt;/b&gt;" style="text;html=1;align=center;verticalAlign=middle;whiteSpace=wrap;rounded=0;fillColor=#b1ddf0;strokeColor=#10739e;" vertex="1" parent="1">
          <mxGeometry x="-2030" y="-280" width="30" height="20" as="geometry" />
        </mxCell>
        <mxCell id="zWZj8fFm0EnB-VlaON-8-71" value="&lt;font style=&quot;font-size: 15px;&quot;&gt;&lt;b&gt;TLS/SSL&lt;/b&gt;&lt;/font&gt;" style="rounded=0;whiteSpace=wrap;html=1;fillColor=#d0cee2;strokeColor=#56517e;" vertex="1" parent="1">
          <mxGeometry x="-2450" y="80" width="100" height="50" as="geometry" />
        </mxCell>
        <mxCell id="zWZj8fFm0EnB-VlaON-8-72" value="" style="rounded=0;whiteSpace=wrap;html=1;" vertex="1" parent="1">
          <mxGeometry x="-2320" y="30" width="190" height="250" as="geometry" />
        </mxCell>
        <mxCell id="zWZj8fFm0EnB-VlaON-8-73" value="&lt;span style=&quot;font-size: 15px;&quot;&gt;&lt;b&gt;非对称加密&lt;/b&gt;&lt;/span&gt;" style="rounded=0;whiteSpace=wrap;html=1;fillColor=#d0cee2;strokeColor=#56517e;" vertex="1" parent="1">
          <mxGeometry x="-2310" y="80" width="170" height="50" as="geometry" />
        </mxCell>
        <mxCell id="zWZj8fFm0EnB-VlaON-8-74" value="RSA ECC DH" style="text;html=1;align=center;verticalAlign=middle;resizable=0;points=[];autosize=1;strokeColor=none;fillColor=none;" vertex="1" parent="1">
          <mxGeometry x="-2275" y="40" width="100" height="30" as="geometry" />
        </mxCell>
        <mxCell id="zWZj8fFm0EnB-VlaON-8-75" value="&lt;ul&gt;&lt;li&gt;1 v N&lt;/li&gt;&lt;li&gt;客户端共享公钥&lt;/li&gt;&lt;li&gt;服务器掌握私钥&lt;/li&gt;&lt;li&gt;客户端信息只能服务器解密&lt;/li&gt;&lt;li&gt;客户端向服务器发唯一对称密钥&lt;/li&gt;&lt;/ul&gt;" style="text;html=1;align=left;verticalAlign=middle;resizable=0;points=[];autosize=1;strokeColor=none;fillColor=none;" vertex="1" parent="1">
          <mxGeometry x="-2345" y="130" width="230" height="110" as="geometry" />
        </mxCell>
        <mxCell id="zWZj8fFm0EnB-VlaON-8-76" value="身份验证&lt;div&gt;密钥协商&lt;/div&gt;" style="rounded=1;whiteSpace=wrap;html=1;fillColor=#fad9d5;strokeColor=#ae4132;" vertex="1" parent="1">
          <mxGeometry x="-2310" y="230" width="100" height="40" as="geometry" />
        </mxCell>
        <mxCell id="zWZj8fFm0EnB-VlaON-8-81" value="" style="rounded=0;whiteSpace=wrap;html=1;" vertex="1" parent="1">
          <mxGeometry x="-2090" y="30" width="190" height="250" as="geometry" />
        </mxCell>
        <mxCell id="zWZj8fFm0EnB-VlaON-8-82" value="&lt;span style=&quot;font-size: 15px;&quot;&gt;&lt;b&gt;对称加密&lt;/b&gt;&lt;/span&gt;" style="rounded=0;whiteSpace=wrap;html=1;fillColor=#d0cee2;strokeColor=#56517e;" vertex="1" parent="1">
          <mxGeometry x="-2080" y="80" width="170" height="50" as="geometry" />
        </mxCell>
        <mxCell id="zWZj8fFm0EnB-VlaON-8-83" value="AES DES RC4" style="text;html=1;align=center;verticalAlign=middle;resizable=0;points=[];autosize=1;strokeColor=none;fillColor=none;" vertex="1" parent="1">
          <mxGeometry x="-2045" y="40" width="100" height="30" as="geometry" />
        </mxCell>
        <mxCell id="zWZj8fFm0EnB-VlaON-8-84" value="&lt;ul&gt;&lt;li&gt;1v1&lt;/li&gt;&lt;li&gt;服务器和客户端共享相同密钥&lt;/li&gt;&lt;li&gt;不同客户端密钥不同&lt;/li&gt;&lt;li&gt;服务器维护多个密钥&lt;/li&gt;&lt;li&gt;密钥协商是安全基础&lt;/li&gt;&lt;/ul&gt;" style="text;html=1;align=left;verticalAlign=middle;resizable=0;points=[];autosize=1;strokeColor=none;fillColor=none;" vertex="1" parent="1">
          <mxGeometry x="-2115" y="130" width="220" height="110" as="geometry" />
        </mxCell>
        <mxCell id="zWZj8fFm0EnB-VlaON-8-85" value="信息加密" style="rounded=1;whiteSpace=wrap;html=1;fillColor=#fad9d5;strokeColor=#ae4132;" vertex="1" parent="1">
          <mxGeometry x="-2080" y="230" width="100" height="40" as="geometry" />
        </mxCell>
        <mxCell id="zWZj8fFm0EnB-VlaON-8-86" value="" style="rounded=0;whiteSpace=wrap;html=1;" vertex="1" parent="1">
          <mxGeometry x="-1860" y="30" width="190" height="250" as="geometry" />
        </mxCell>
        <mxCell id="zWZj8fFm0EnB-VlaON-8-87" value="&lt;span style=&quot;font-size: 15px;&quot;&gt;&lt;b&gt;散列算法&lt;/b&gt;&lt;/span&gt;" style="rounded=0;whiteSpace=wrap;html=1;fillColor=#d0cee2;strokeColor=#56517e;" vertex="1" parent="1">
          <mxGeometry x="-1850" y="80" width="170" height="50" as="geometry" />
        </mxCell>
        <mxCell id="zWZj8fFm0EnB-VlaON-8-88" value="MD5 SHA" style="text;html=1;align=center;verticalAlign=middle;resizable=0;points=[];autosize=1;strokeColor=none;fillColor=none;" vertex="1" parent="1">
          <mxGeometry x="-1805" y="40" width="80" height="30" as="geometry" />
        </mxCell>
        <mxCell id="zWZj8fFm0EnB-VlaON-8-89" value="&lt;ul&gt;&lt;li&gt;&lt;/li&gt;&lt;li&gt;函数不可逆&lt;/li&gt;&lt;li&gt;对输入敏感&lt;/li&gt;&lt;li&gt;输出长度固定&lt;/li&gt;&lt;/ul&gt;" style="text;html=1;align=left;verticalAlign=middle;resizable=0;points=[];autosize=1;strokeColor=none;fillColor=none;" vertex="1" parent="1">
          <mxGeometry x="-1885" y="135" width="140" height="100" as="geometry" />
        </mxCell>
        <mxCell id="zWZj8fFm0EnB-VlaON-8-90" value="完整性校验" style="rounded=1;whiteSpace=wrap;html=1;fillColor=#fad9d5;strokeColor=#ae4132;" vertex="1" parent="1">
          <mxGeometry x="-1850" y="230" width="100" height="40" as="geometry" />
        </mxCell>
        <mxCell id="zWZj8fFm0EnB-VlaON-8-91" value="&lt;b&gt;&lt;font style=&quot;font-size: 20px;&quot;&gt;=&lt;/font&gt;&lt;/b&gt;" style="text;html=1;align=center;verticalAlign=middle;resizable=0;points=[];autosize=1;strokeColor=none;fillColor=none;" vertex="1" parent="1">
          <mxGeometry x="-2357" y="90" width="40" height="40" as="geometry" />
        </mxCell>
        <mxCell id="zWZj8fFm0EnB-VlaON-8-92" value="&lt;b&gt;&lt;font style=&quot;font-size: 20px;&quot;&gt;+&lt;/font&gt;&lt;/b&gt;" style="text;html=1;align=center;verticalAlign=middle;resizable=0;points=[];autosize=1;strokeColor=none;fillColor=none;" vertex="1" parent="1">
          <mxGeometry x="-2130" y="90" width="40" height="40" as="geometry" />
        </mxCell>
        <mxCell id="zWZj8fFm0EnB-VlaON-8-93" value="&lt;b&gt;&lt;font style=&quot;font-size: 20px;&quot;&gt;+&lt;/font&gt;&lt;/b&gt;" style="text;html=1;align=center;verticalAlign=middle;resizable=0;points=[];autosize=1;strokeColor=none;fillColor=none;" vertex="1" parent="1">
          <mxGeometry x="-1900" y="85" width="40" height="40" as="geometry" />
        </mxCell>
        <mxCell id="zWZj8fFm0EnB-VlaON-8-96" style="edgeStyle=orthogonalEdgeStyle;rounded=0;orthogonalLoop=1;jettySize=auto;html=1;exitX=1;exitY=0.5;exitDx=0;exitDy=0;entryX=0;entryY=0.5;entryDx=0;entryDy=0;" edge="1" parent="1" source="zWZj8fFm0EnB-VlaON-8-76" target="zWZj8fFm0EnB-VlaON-8-85">
          <mxGeometry relative="1" as="geometry" />
        </mxCell>
        <mxCell id="zWZj8fFm0EnB-VlaON-8-97" value="对称密钥" style="edgeLabel;html=1;align=center;verticalAlign=middle;resizable=0;points=[];" vertex="1" connectable="0" parent="zWZj8fFm0EnB-VlaON-8-96">
          <mxGeometry x="-0.0045" y="1" relative="1" as="geometry">
            <mxPoint as="offset" />
          </mxGeometry>
        </mxCell>
        <mxCell id="zWZj8fFm0EnB-VlaON-8-98" style="edgeStyle=orthogonalEdgeStyle;rounded=0;orthogonalLoop=1;jettySize=auto;html=1;exitX=1;exitY=0.5;exitDx=0;exitDy=0;entryX=0;entryY=0.5;entryDx=0;entryDy=0;" edge="1" parent="1" source="zWZj8fFm0EnB-VlaON-8-85" target="zWZj8fFm0EnB-VlaON-8-90">
          <mxGeometry relative="1" as="geometry" />
        </mxCell>
        <mxCell id="zWZj8fFm0EnB-VlaON-8-99" value="加密" style="edgeLabel;html=1;align=center;verticalAlign=middle;resizable=0;points=[];" vertex="1" connectable="0" parent="zWZj8fFm0EnB-VlaON-8-98">
          <mxGeometry x="-0.1584" y="1" relative="1" as="geometry">
            <mxPoint x="1" as="offset" />
          </mxGeometry>
        </mxCell>
      </root>
    </mxGraphModel>
  </diagram>
</mxfile>
